<?xml version="1.0" standalone="no"?>
<!DOCTYPE svg PUBLIC "-//W3C//DTD SVG 1.1//EN" "http://www.w3.org/Graphics/SVG/1.1/DTD/svg11.dtd" >
<svg xmlns="http://www.w3.org/2000/svg" xmlns:xlink="http://www.w3.org/1999/xlink" version="1.1">
<metadata>
Created by FontForge 20170924 at Tue Aug 19 10:36:32 2014
 By www-data
Copyright 2010 Monotype Imaging Inc. All rights reserved.
</metadata>
<defs>
<font id="HarmoniaSansW06-Condensed" horiz-adv-x="359" >
  <font-face 
    font-family="HarmoniaSansW06-Condensed"
    font-weight="400"
    font-stretch="condensed"
    units-per-em="1000"
    panose-1="2 11 5 6 3 4 2 2 2 4"
    ascent="800"
    descent="-200"
    x-height="479"
    cap-height="682"
    bbox="-153 -257 1014 932"
    underline-thickness="50"
    underline-position="-125"
    unicode-range="U+0020-FB04"
  />
<missing-glyph horiz-adv-x="500" 
d="M12 665h475v-665h-475v665zM250 375l161 243h-323zM60 91l7 10t18 27t25.5 39t29.5 45q35 54 81 121l-161 242v-484zM278 333l162 -243v485zM250 290l-162 -242h323z" />
    <glyph glyph-name="IJ" unicode="IJ" horiz-adv-x="504" 
d="M69 682h80v-682h-80v682zM360 682h80v-509q0 -102 -39 -145.5t-120 -43.5q-20 0 -35 3t-23 5v70q6 -2 22.5 -4t32.5 -2q43 0 62.5 22.5t19.5 88.5v515z" />
    <glyph glyph-name="ij" unicode="ij" horiz-adv-x="402" 
d="M64 479h73v-479h-73v479zM55 686h92v-91h-92v91zM338 479v-565q0 -81 -30 -115t-95 -34q-11 0 -20 1.5t-19 3.5v64q5 -2 15.5 -3t18.5 -1q33 0 45 18.5t12 62.5v568h73zM256 686h92v-91h-92v91z" />
    <glyph glyph-name="napostrophe" unicode="&#x27;n" horiz-adv-x="591" 
d="M171 479h74v-66q28 47 63 64t68 17q27 0 55 -11t50.5 -36t37 -66t14.5 -102v-279h-74v274q0 75 -26 113t-73 38q-54 0 -84.5 -42.5t-30.5 -127.5v-255h-74v479zM10 720h98v-52q0 -54 -13.5 -96.5t-33.5 -74.5h-49q18 28 25 59t9 63h-36v101z" />
    <glyph glyph-name="uniFB00" unicode="ff" horiz-adv-x="479" 
d="M23 479h55v88q0 82 33.5 120t96.5 38q11 0 25 -2t24 -4v-63q-9 2 -21 3.5t-21 1.5q-33 0 -48 -20t-15 -65v-97h161v88q0 82 33.5 120t96.5 38q11 0 25 -2t24 -4v-63q-9 2 -21 3.5t-21 1.5q-33 0 -48 -20t-15 -65v-97h89v-64h-89v-415h-74v415h-161v-415h-74v415h-55v64z
" />
    <glyph glyph-name="uniFB01" unicode="fi" horiz-adv-x="450" 
d="M23 479h55v88q0 82 33.5 120t96.5 38q11 0 25 -2t24 -4v-63q-9 2 -21 3.5t-21 1.5q-33 0 -48 -20t-15 -65v-97h89v-64h-89v-415h-74v415h-55v64zM313 479h73v-479h-73v479zM304 686h92v-91h-92v91z" />
    <glyph glyph-name="uniFB02" unicode="fl" horiz-adv-x="456" 
d="M23 479h55v88q0 82 33.5 120t96.5 38q11 0 25 -2t24 -4v-63q-9 2 -21 3.5t-21 1.5q-33 0 -48 -20t-15 -65v-97h89v-64h-89v-415h-74v415h-55v64zM318 720h74v-720h-74v720z" />
    <glyph glyph-name="uniFB03" unicode="ffi" horiz-adv-x="685" 
d="M548 479h73v-479h-73v479zM539 686h92v-91h-92v91zM23 479h55v88q0 82 33.5 120t96.5 38q11 0 25 -2t24 -4v-63q-9 2 -21 3.5t-21 1.5q-33 0 -48 -20t-15 -65v-97h161v88q0 82 33.5 120t96.5 38q11 0 25 -2t24 -4v-63q-9 2 -21 3.5t-21 1.5q-33 0 -48 -20t-15 -65v-97h89
v-64h-89v-415h-74v415h-161v-415h-74v415h-55v64z" />
    <glyph glyph-name="uniFB04" unicode="ffl" horiz-adv-x="686" 
d="M548 720h74v-720h-74v720zM23 479h55v88q0 82 33.5 120t96.5 38q11 0 25 -2t24 -4v-63q-9 2 -21 3.5t-21 1.5q-33 0 -48 -20t-15 -65v-97h161v88q0 82 33.5 120t96.5 38q11 0 25 -2t24 -4v-63q-9 2 -21 3.5t-21 1.5q-33 0 -48 -20t-15 -65v-97h89v-64h-89v-415h-74v415
h-161v-415h-74v415h-55v64z" />
    <glyph glyph-name=".notdef" horiz-adv-x="500" 
d="M12 665h475v-665h-475v665zM250 375l161 243h-323zM60 91l7 10t18 27t25.5 39t29.5 45q35 54 81 121l-161 242v-484zM278 333l162 -243v485zM250 290l-162 -242h323z" />
    <glyph glyph-name=".null" horiz-adv-x="0" 
 />
    <glyph glyph-name="nonmarkingreturn" horiz-adv-x="333" 
 />
    <glyph glyph-name="space" unicode=" " horiz-adv-x="240" 
 />
    <glyph glyph-name="exclam" unicode="!" horiz-adv-x="195" 
d="M56 87h83v-87h-83v87zM141 682l-9 -494h-69l-9 494h87z" />
    <glyph glyph-name="quotedbl" unicode="&#x22;" horiz-adv-x="311" 
d="M121 720l-9 -215h-58l-8 215h75zM264 720l-8 -215h-59l-6 215h73z" />
    <glyph glyph-name="numbersign" unicode="#" horiz-adv-x="500" 
d="M492 476l-12 -52h-105l-31 -172h108l-9 -52h-109l-37 -200h-54l36 200h-111l-38 -200h-54l37 200h-105l10 52h105l31 172h-107l9 52h109l36 206h55l-38 -206h112l38 206h54l-37 -206h107zM208 424l-31 -172h113l31 172h-113z" />
    <glyph glyph-name="dollar" unicode="$" horiz-adv-x="483" 
d="M338 522q-8 57 -61 72v-196q85 -39 123 -84.5t38 -114.5q0 -30 -10.5 -59.5t-30.5 -53.5t-50 -41t-70 -22v-70h-69v70q-81 7 -121.5 51.5t-44.5 110.5h80q1 -42 23.5 -67t62.5 -32v261q-72 33 -106 71.5t-34 95.5q0 59 39 98.5t101 48.5v59h69v-59q37 -4 63 -17.5
t42.5 -32.5t24.5 -42t10 -47h-79zM360 195q0 36 -17 64t-66 55v-226q42 10 62.5 40.5t20.5 66.5zM146 519q0 -15 2.5 -27t9 -22.5t18.5 -20t32 -19.5v165q-32 -7 -47 -27.5t-15 -48.5z" />
    <glyph glyph-name="percent" unicode="%" horiz-adv-x="644" 
d="M552 682l-388 -682h-70l387 682h71zM32 514q0 50 11.5 85t30 57t41.5 32t47 10q21 0 44 -9t42 -30t31.5 -56t12.5 -87q0 -57 -13.5 -94t-33 -58.5t-42 -29.5t-40.5 -8q-22 0 -45.5 9t-42.5 31t-31 58t-12 90zM222 514q0 63 -15.5 91.5t-44.5 28.5q-25 0 -42.5 -26.5
t-17.5 -92.5q0 -69 16 -97t45 -28q23 0 41 27.5t18 96.5zM351 171q0 50 11.5 85t30.5 57t42.5 32t46.5 10q22 0 45 -9t42 -30t31 -56t12 -87q0 -58 -13.5 -94.5t-33 -57.5t-42.5 -29t-41 -8q-22 0 -45.5 9t-42.5 30.5t-31 57.5t-12 90zM542 171q0 63 -16 91.5t-45 28.5
q-24 0 -42 -26t-18 -93q0 -69 16.5 -96.5t44.5 -27.5q12 0 22.5 6t19 20.5t13.5 38t5 58.5z" />
    <glyph glyph-name="ampersand" unicode="&#x26;" horiz-adv-x="520" 
d="M414 339h70v-9q0 -30 -5 -60t-13 -57.5t-19 -52t-23 -42.5q19 -27 36.5 -44.5t42.5 -17.5h7v-66q-5 -2 -13.5 -3.5t-14.5 -1.5q-13 0 -24 3t-22.5 11t-25 22t-31.5 37q-32 -32 -73 -53.5t-92 -21.5q-47 0 -82.5 15.5t-59.5 42t-36 61.5t-12 74q0 66 34.5 120.5
t100.5 93.5q-7 13 -16 29.5t-17 37t-13.5 43t-5.5 47.5q0 30 9 57.5t27 48t45.5 33t63.5 12.5q29 0 55 -9.5t45.5 -28t31 -45.5t11.5 -63q0 -33 -11 -59t-30.5 -47t-45 -39t-53.5 -36l128 -195q15 34 23 71.5t8 79.5v12zM215 53q34 0 67 16.5t57 43.5l-146 222
q-47 -26 -70 -68t-23 -91q0 -52 31.5 -87.5t83.5 -35.5zM179 543q0 -33 11 -58t31 -58q48 26 75 54t27 70q0 32 -17.5 56t-54.5 24q-19 0 -32.5 -7.5t-22.5 -20t-13 -28.5t-4 -32z" />
    <glyph glyph-name="quotesingle" unicode="'" horiz-adv-x="167" 
d="M121 720l-9 -215h-58l-8 215h75z" />
    <glyph glyph-name="parenleft" unicode="(" horiz-adv-x="272" 
d="M187 -215q-35 51 -60 110t-40.5 121t-23 125t-7.5 122q0 60 7.5 123.5t23 125.5t40.5 120.5t60 110.5h72q-35 -52 -60 -110.5t-41 -120.5t-23 -125.5t-7 -123.5q0 -59 7 -122t23 -125t41 -121t60 -110h-72z" />
    <glyph glyph-name="parenright" unicode=")" horiz-adv-x="272" 
d="M85 743q35 -51 60 -110t40.5 -121t23 -125t7.5 -122q0 -60 -7.5 -123.5t-23 -125.5t-40.5 -120.5t-60 -110.5h-72q35 52 60 110.5t40.5 120.5t23 125.5t7.5 123.5q0 59 -7.5 122t-23 125t-40.5 121t-60 110h72z" />
    <glyph glyph-name="asterisk" unicode="*" horiz-adv-x="360" 
d="M37 641l115 -44l-6 123h68l-6 -123l115 44l21 -64l-119 -32l77 -95l-54 -40l-68 103l-68 -103l-54 40l77 95l-119 32z" />
    <glyph glyph-name="plus" unicode="+" horiz-adv-x="566" 
d="M317 229v-229h-70v229h-195v70h195v231h70v-231h197v-70h-197z" />
    <glyph glyph-name="comma" unicode="," horiz-adv-x="214" 
d="M55 108h104v-59q0 -34 -5.5 -62.5t-13.5 -51t-17.5 -40.5t-17.5 -31h-48q17 29 26 62.5t13 73.5h-41v108z" />
    <glyph glyph-name="hyphen" unicode="-" horiz-adv-x="380" 
d="M62 225v78h256v-78h-256z" />
    <glyph glyph-name="period" unicode="." horiz-adv-x="214" 
d="M55 108h104v-108h-104v108z" />
    <glyph glyph-name="slash" unicode="/" horiz-adv-x="307" 
d="M297 720l-246 -834h-72l245 834h73z" />
    <glyph glyph-name="zero" unicode="0" horiz-adv-x="483" 
d="M31 345q0 99 18 166.5t47.5 109t66.5 59.5t75 18q42 0 80.5 -16t68 -56t47.5 -107.5t18 -169.5q0 -113 -20.5 -184.5t-51.5 -111.5t-68 -54.5t-70 -14.5q-39 0 -76.5 16t-67.5 57t-48.5 111t-18.5 177zM372 345q0 76 -8 129.5t-24.5 87.5t-41 49t-57.5 15
q-29 0 -52.5 -14.5t-41 -47t-27 -85.5t-9.5 -131q0 -80 9 -136t26 -90.5t41.5 -50t56.5 -15.5q27 0 50 14.5t40.5 48.5t27.5 89.5t10 136.5z" />
    <glyph glyph-name="one" unicode="1" horiz-adv-x="483" 
d="M212 608h-103v74h179v-682h-76v608z" />
    <glyph glyph-name="two" unicode="2" horiz-adv-x="483" 
d="M66 75l187 241q40 51 64 98.5t24 99.5q0 48 -24 80t-71 32q-41 0 -67.5 -30t-28.5 -85h-80q2 42 16.5 76.5t38 59t55.5 38t68 13.5q43 0 75.5 -14.5t54.5 -38.5t32.5 -56t10.5 -67q0 -36 -8.5 -68.5t-23 -63t-34.5 -59.5t-43 -59l-154 -198h275v-74h-367v75z" />
    <glyph glyph-name="three" unicode="3" horiz-adv-x="483" 
d="M65 534q1 33 13 62.5t33.5 52t52.5 36t71 13.5t71 -13t52 -36t32 -54t11 -68q0 -32 -9 -56.5t-23 -43t-31 -31t-34 -19.5l1 -2q23 -6 45 -20t39 -36.5t27.5 -54.5t10.5 -72q0 -42 -13 -79.5t-37.5 -66t-61 -45.5t-82.5 -17q-44 0 -77.5 14.5t-57 39t-36.5 57.5t-16 70h80
q4 -48 31.5 -78.5t77.5 -30.5q25 0 45.5 10t35.5 28t23 42.5t8 53.5q0 27 -7 52.5t-22 45t-39.5 31t-59.5 11.5h-29v75h23q48 0 78 29.5t30 88.5q0 20 -5 38.5t-16 33t-27.5 23t-40.5 8.5q-42 0 -64 -27t-24 -65h-79z" />
    <glyph glyph-name="four" unicode="4" horiz-adv-x="483" 
d="M372 158v-158h-75v158h-266l1 69l265 455h76v-450h74l-1 -74h-74zM109 232h189l-1 244v25v17.5t0.5 15t0.5 18.5h-7q-8 -17 -15 -32t-25 -45z" />
    <glyph glyph-name="five" unicode="5" horiz-adv-x="483" 
d="M151 424q13 4 33.5 6.5t37.5 2.5q99 0 155 -56t56 -159q0 -51 -13.5 -93.5t-38.5 -74t-62 -49t-83 -17.5q-91 0 -138 48t-53 133h80q1 -23 8 -43t20 -34.5t33.5 -23t49.5 -8.5q51 0 84 40t33 121q0 67 -33 105.5t-108 38.5q-31 0 -67.5 -5.5t-71.5 -19.5l28 346h292v-74
h-226z" />
    <glyph glyph-name="six" unicode="6" horiz-adv-x="483" 
d="M31 207q0 57 22.5 109.5t57.5 113.5l142 252h86l-148 -254q12 5 27 7t26 2q43 0 80 -15.5t64 -44.5t42.5 -70.5t15.5 -94.5q0 -51 -15.5 -93t-43 -72t-66 -46.5t-84.5 -16.5t-84 15t-65 43.5t-42 70t-15 94.5zM111 206q0 -76 35 -113t91 -37t92.5 39.5t36.5 115.5
q0 75 -32.5 114.5t-96.5 39.5q-57 0 -91.5 -40.5t-34.5 -118.5z" />
    <glyph glyph-name="seven" unicode="7" horiz-adv-x="483" 
d="M431 614l-245 -614h-89l255 608h-283v74h362v-68z" />
    <glyph glyph-name="eight" unicode="8" horiz-adv-x="483" 
d="M148 516q0 -54 27 -83.5t69 -29.5q44 0 67.5 31.5t23.5 81.5q0 54 -26 82t-68 28q-39 0 -66 -27.5t-27 -82.5zM127 195q0 -62 32 -100.5t82 -38.5q48 0 81.5 35t33.5 104q0 66 -33 101t-81 35q-26 0 -47 -11t-36 -29.5t-23.5 -43t-8.5 -52.5zM436 193q0 -43 -12.5 -81
t-37 -66.5t-61 -45t-84.5 -16.5t-84.5 16.5t-60.5 44.5t-36.5 65t-12.5 78q0 71 29 114t78 68v2q-40 23 -62 61t-22 92q0 37 12 69t34 55t54 36t71 13t71 -13t54.5 -36t34.5 -55t12 -69q0 -61 -25.5 -99t-59.5 -54v-2q51 -26 79.5 -70t28.5 -107z" />
    <glyph glyph-name="nine" unicode="9" horiz-adv-x="483" 
d="M446 475q0 -57 -22.5 -109.5t-57.5 -113.5l-142 -252h-86l148 254q-12 -5 -27 -7t-26 -2q-45 0 -82 16t-63.5 45.5t-41.5 71t-15 92.5t15.5 93t43 72t66 46.5t84.5 16.5t84 -15t65 -43.5t42 -70t15 -94.5zM366 476q0 76 -35 113t-91 37q-57 0 -93 -39.5t-36 -115.5
q0 -73 32.5 -113.5t96.5 -40.5q57 0 91.5 41t34.5 118z" />
    <glyph glyph-name="colon" unicode=":" horiz-adv-x="224" 
d="M60 462h104v-108h-104v108zM60 108h104v-108h-104v108z" />
    <glyph glyph-name="semicolon" unicode=";" horiz-adv-x="224" 
d="M60 108h104v-52q0 -36 -5 -65t-12 -52.5t-15.5 -42t-15.5 -31.5h-53q17 29 24.5 63.5t10.5 71.5h-38v108zM60 462h104v-108h-104v108z" />
    <glyph glyph-name="less" unicode="&#x3c;" horiz-adv-x="566" 
d="M60 232v67l446 232v-79l-364 -186v-2l364 -185v-80z" />
    <glyph glyph-name="equal" unicode="=" horiz-adv-x="566" 
d="M52 341v70h462v-70h-462zM52 119v70h462v-70h-462z" />
    <glyph glyph-name="greater" unicode="&#x3e;" horiz-adv-x="566" 
d="M60 -1v80l364 185v2l-364 186v79l446 -232v-67z" />
    <glyph glyph-name="question" unicode="?" horiz-adv-x="368" 
d="M264 337q-15 -18 -25 -34t-15.5 -33t-7.5 -37t-2 -45h-69q0 27 1.5 50t7 43.5t14.5 39.5t24 39q18 24 33 43t26 37.5t17 37.5t6 42q0 45 -22.5 75.5t-73.5 30.5q-49 0 -72 -31.5t-23 -83.5h-78q2 89 48.5 138t127.5 49q41 0 73 -13t53.5 -36t33 -54t11.5 -68
q0 -29 -5 -52.5t-15.5 -45t-27.5 -43.5t-40 -49zM138 87h83v-87h-83v87z" />
    <glyph glyph-name="at" unicode="@" horiz-adv-x="802" 
d="M749 356q0 -62 -15 -111t-40 -83.5t-56.5 -53t-65.5 -18.5q-42 0 -68 18.5t-31 58.5h-5q-17 -31 -48.5 -54t-66.5 -23q-62 0 -95.5 43t-33.5 128q0 57 14.5 105t39 83t58.5 55t73 20q34 0 56 -19t33 -49l9 54h62l-38 -257q-2 -14 -3.5 -27.5t-1.5 -25.5q0 -21 9.5 -36.5
t41.5 -15.5q18 0 37 12t34.5 37t26 63t10.5 91q0 139 -70 214t-206 75q-67 0 -120.5 -27.5t-91.5 -75t-58.5 -111.5t-20.5 -138q0 -75 20 -134.5t57 -101t90 -63.5t119 -22q53 0 98.5 9.5t74.5 25.5l19 -49q-35 -21 -86 -32.5t-113 -11.5q-79 0 -142.5 26.5t-108.5 76
t-69 120t-24 157.5t26.5 162t74 130t113.5 86t146 31q78 0 140 -24t105.5 -69t67 -108t23.5 -141zM410 466q-26 0 -48 -16t-38.5 -44t-25.5 -65t-9 -80q0 -58 19 -85.5t51 -27.5q24 0 46 15.5t39 43t27 65.5t10 84q0 48 -20.5 79t-50.5 31z" />
    <glyph glyph-name="A" unicode="A" horiz-adv-x="534" 
d="M234 682h73l225 -682h-87l-56 185h-245l-59 -185h-83zM166 258h200l-59 194q-8 28 -19 64.5t-19 66.5h-4q-8 -32 -18 -67.5t-19 -64.5z" />
    <glyph glyph-name="B" unicode="B" horiz-adv-x="498" 
d="M69 682h161q94 0 145 -47t51 -126q0 -58 -30 -93.5t-71 -51.5v-2q68 -12 101.5 -59t33.5 -111q0 -41 -13 -76t-39.5 -61t-65.5 -40.5t-91 -14.5h-182v682zM377 193q0 58 -33.5 90.5t-98.5 32.5h-96v-242h98q66 0 98 31t32 88zM344 502q0 53 -31 79.5t-87 26.5h-77v-218
h82q50 0 81.5 30.5t31.5 81.5z" />
    <glyph glyph-name="C" unicode="C" horiz-adv-x="580" 
d="M301 698q53 0 94 -15.5t70 -42t46 -61.5t23 -74h-84q-10 57 -49.5 89t-102.5 32q-38 0 -71 -17.5t-58 -52.5t-39.5 -88.5t-14.5 -125.5q0 -66 13.5 -119t38.5 -90t59 -57t75 -20q57 0 101 32t56 102h84q-20 -105 -82.5 -155.5t-157.5 -50.5q-60 0 -110 24t-85 69.5
t-54.5 112.5t-19.5 153q0 81 20 146.5t56 112t85 71.5t107 25z" />
    <glyph glyph-name="D" unicode="D" horiz-adv-x="584" 
d="M265 74q45 0 82 15t64 47.5t42 83.5t15 122q0 69 -14.5 119.5t-41 83t-64 48t-83.5 15.5h-115v-534h115zM70 0v682h196q68 0 121 -23.5t89.5 -67.5t55.5 -107t19 -142q0 -83 -21 -146.5t-58.5 -107t-90 -66t-115.5 -22.5h-196z" />
    <glyph glyph-name="E" unicode="E" horiz-adv-x="441" 
d="M385 608h-236v-218h226v-74h-226v-242h244v-74h-324v682h316v-74z" />
    <glyph glyph-name="F" unicode="F" horiz-adv-x="426" 
d="M384 608h-235v-229h226v-74h-226v-305h-80v682h315v-74z" />
    <glyph glyph-name="G" unicode="G" horiz-adv-x="602" 
d="M570 363v-8q0 -176 -65 -273.5t-193 -97.5q-67 0 -119 26t-87.5 73t-54 112.5t-18.5 145.5q0 82 20 148t56.5 112.5t87.5 71.5t112 25q48 0 89.5 -12.5t74 -37t53 -60t26.5 -81.5h-82q-8 56 -49 87.5t-104 31.5q-97 0 -149.5 -73t-52.5 -205q0 -75 14.5 -130t40.5 -91
t62 -53.5t80 -17.5q82 0 127.5 62t48.5 171h-203v74h285z" />
    <glyph glyph-name="H" unicode="H" horiz-adv-x="605" 
d="M455 316h-305v-316h-80v682h80v-292h305v292h80v-682h-80v316z" />
    <glyph glyph-name="I" unicode="I" horiz-adv-x="218" 
d="M69 682h80v-682h-80v682z" />
    <glyph glyph-name="J" unicode="J" horiz-adv-x="286" 
d="M142 682h80v-509q0 -102 -39 -145.5t-120 -43.5q-20 0 -35 3t-23 5v70q6 -2 22.5 -4t32.5 -2q43 0 62.5 22.5t19.5 88.5v515z" />
    <glyph glyph-name="K" unicode="K" horiz-adv-x="521" 
d="M210 331l-60 -73v-258h-80v682h80v-317l260 317h95l-244 -292l260 -390h-98z" />
    <glyph glyph-name="L" unicode="L" horiz-adv-x="408" 
d="M69 682h80v-608h244v-74h-324v682z" />
    <glyph glyph-name="M" unicode="M" horiz-adv-x="711" 
d="M676 0h-80l-35 409q-4 46 -6.5 87t-4.5 87h-4q-9 -40 -21 -90.5t-23 -92.5l-106 -400h-81l-107 400q-11 39 -23 89t-19 94h-4q-1 -32 -3.5 -74t-8.5 -100l-40 -409h-75l68 682h100l120 -438l7.5 -30t9 -38t8.5 -40l7 -35h4q3 16 7 35.5t8.5 39.5t9 38l7.5 30l118 438h100
z" />
    <glyph glyph-name="N" unicode="N" horiz-adv-x="587" 
d="M142 549q0 -14 0.5 -33.5t1 -40.5t0.5 -40.5v-32.5v-402h-75v682h76l179 -322q46 -83 75.5 -140.5t42.5 -87.5h3q-1 35 -1.5 68.5t-0.5 68.5v413h75v-682h-76l-180 325q-27 49 -46.5 85.5t-33 62.5t-22 44t-14.5 32h-4z" />
    <glyph glyph-name="O" unicode="O" horiz-adv-x="616" 
d="M115 340q0 -71 15 -124t40.5 -88.5t60.5 -53.5t76 -18t76 18t61 53.5t41 89t15 124.5q0 69 -14 122.5t-39.5 89.5t-61 54.5t-78.5 18.5q-41 0 -76 -18t-60.5 -54t-40.5 -89.5t-15 -124.5zM33 340q0 81 20.5 147t57.5 113t87 72.5t110 25.5q64 0 115 -26t86.5 -73.5
t54.5 -113t19 -144.5q0 -83 -21 -149t-57.5 -112t-87 -71t-109.5 -25q-71 0 -123 29t-85.5 78.5t-50 113.5t-16.5 135z" />
    <glyph glyph-name="P" unicode="P" horiz-adv-x="486" 
d="M373 469q0 31 -7.5 56.5t-23 44t-40 28.5t-58.5 10h-94v-274h92q39 0 64 10.5t40 29t21 43t6 52.5zM70 682h172q47 0 86 -12.5t67.5 -38.5t44.5 -66t16 -94q0 -99 -52.5 -155t-167.5 -56h-86v-260h-80v682z" />
    <glyph glyph-name="Q" unicode="Q" horiz-adv-x="616" 
d="M33 340q0 81 20.5 147t57.5 113t87 72.5t110 25.5q64 0 115 -26t86.5 -73.5t54.5 -113t19 -144.5q0 -101 -30.5 -176.5t-82.5 -120.5l64 -105l-61 -37l-63 103q-24 -10 -49.5 -15.5t-52.5 -5.5q-71 0 -123 29t-85.5 78.5t-50 113.5t-16.5 135zM115 340q0 -71 15 -124
t40.5 -88.5t60.5 -53.5t76 -18q34 0 64 12l-67 112l61 36l65 -107q32 35 51 93t19 139q0 69 -14 122.5t-39.5 89.5t-61 54.5t-78.5 18.5q-41 0 -76 -18t-60.5 -54t-40.5 -89.5t-15 -124.5z" />
    <glyph glyph-name="R" unicode="R" horiz-adv-x="480" 
d="M488 0h-90l-169 286h-80v-286h-80v682h177q56 0 94 -18t61 -46.5t33 -64.5t10 -71q0 -36 -10.5 -67t-28.5 -55t-42 -40.5t-50 -23.5zM361 482q0 63 -31.5 94.5t-89.5 31.5h-91v-248h97q59 0 87 35.5t28 86.5z" />
    <glyph glyph-name="S" unicode="S" horiz-adv-x="460" 
d="M330 540q-5 42 -29 64t-66 22q-47 0 -73.5 -25t-26.5 -70q0 -23 5 -40.5t19 -34t40.5 -32.5t68.5 -34q44 -19 73.5 -42.5t47.5 -50.5t26 -58.5t8 -67.5q0 -34 -12 -67.5t-36.5 -60t-61.5 -43t-87 -16.5q-48 0 -84 13.5t-61 37.5t-38.5 57.5t-15.5 73.5h82q2 -57 33 -83.5
t84 -26.5q30 0 51.5 9.5t36 25t21 35.5t6.5 41q0 27 -5.5 49.5t-19.5 41.5t-37.5 35.5t-60.5 31.5q-50 20 -81.5 43.5t-50.5 49.5t-26 54t-7 57q0 38 14 69t38 53.5t57 34.5t71 12q48 0 81.5 -13.5t54.5 -36t31 -51t12 -57.5h-82z" />
    <glyph glyph-name="T" unicode="T" horiz-adv-x="387" 
d="M154 608h-145v74h369v-74h-145v-608h-79v608z" />
    <glyph glyph-name="U" unicode="U" horiz-adv-x="547" 
d="M280 -16q-49 0 -89.5 14t-70 47t-46 87.5t-16.5 136.5v413h80v-425q0 -201 135 -201q77 0 106.5 50t29.5 151v425h79v-411q0 -82 -15 -137t-42 -88.5t-65.5 -47.5t-85.5 -14z" />
    <glyph glyph-name="V" unicode="V" horiz-adv-x="501" 
d="M291 0h-78l-213 682h80l135 -440q11 -35 20 -69t17 -69q8 35 17.5 71t20.5 71l131 436h80z" />
    <glyph glyph-name="W" unicode="W" horiz-adv-x="708" 
d="M380 425q-5 23 -8.5 41.5t-5.5 35.5t-4 33.5t-4 34.5h-4q-2 -17 -4 -32.5t-4 -32t-5.5 -35t-7.5 -42.5l-84 -428h-89l-152 682h79l92 -428q5 -25 9 -43t6.5 -33t5 -28.5t4.5 -28.5h4q5 32 10 68t13 74l87 419h80l89 -426q6 -27 11.5 -65.5t9.5 -69.5h4q5 35 11.5 73.5
t11.5 60.5l86 427h79l-143 -682h-89z" />
    <glyph glyph-name="X" unicode="X" horiz-adv-x="462" 
d="M192 509q11 -23 21.5 -45t19.5 -42h2q8 23 18.5 47t19.5 42l86 171h90l-175 -326l183 -356h-93l-89 182q-11 23 -22 48t-22 53h-1q-11 -24 -24 -52t-24 -51l-87 -180h-90l182 352l-176 330h93z" />
    <glyph glyph-name="Y" unicode="Y" horiz-adv-x="458" 
d="M190 277l-184 405h86l108 -242q10 -22 17 -43.5t13 -41.5h2q8 21 15.5 41t17.5 43l102 243h85l-182 -404v-278h-80v277z" />
    <glyph glyph-name="Z" unicode="Z" horiz-adv-x="506" 
d="M49 682h408v-69l-328 -539h342v-74h-436v68l328 540h-314v74z" />
    <glyph glyph-name="bracketleft" unicode="[" horiz-adv-x="297" 
d="M242 660h-93v-792h93v-68h-167v928h167v-68z" />
    <glyph glyph-name="backslash" unicode="\" horiz-adv-x="342" 
d="M269 -114l-268 834h73l269 -834h-74z" />
    <glyph glyph-name="bracketright" unicode="]" horiz-adv-x="297" 
d="M55 -132h93v792h-93v68h167v-928h-167v68z" />
    <glyph glyph-name="asciicircum" unicode="^" horiz-adv-x="566" 
d="M439 326l-156 297h-2l-153 -297h-79l200 378h68l201 -378h-79z" />
    <glyph glyph-name="underscore" unicode="_" horiz-adv-x="470" 
d="M0 -165h470v-70h-470v70z" />
    <glyph glyph-name="grave" unicode="`" horiz-adv-x="272" 
d="M71 726l131 -131l-37 -41l-141 118z" />
    <glyph glyph-name="a" unicode="a" horiz-adv-x="522" 
d="M458 0h-74v70q-23 -34 -58.5 -60t-91.5 -26q-40 0 -77 18t-65 51.5t-44.5 80.5t-16.5 106q0 55 15.5 102t43.5 80.5t66 52.5t82 19q28 0 50.5 -7.5t40.5 -19.5t31.5 -27t23.5 -31v70h74v-479zM107 240q0 -88 40 -138t103 -50q28 0 53 13.5t44.5 38t31 58.5t11.5 75
q0 43 -10.5 78t-29.5 59.5t-44 38t-54 13.5q-31 0 -57.5 -12.5t-46 -36t-30.5 -58t-11 -79.5z" />
    <glyph glyph-name="b" unicode="b" horiz-adv-x="522" 
d="M64 720h74v-312q22 34 58 60t92 26q40 0 77 -18t65 -51.5t44.5 -81t16.5 -105.5q0 -56 -16 -102.5t-43.5 -80t-65.5 -52.5t-82 -19q-28 0 -51 7.5t-41 19.5t-31.5 27t-22.5 31v-69h-74v720zM415 238q0 45 -11 80t-30 59t-45.5 36.5t-56.5 12.5q-28 0 -53 -13.5t-44.5 -38
t-31 -58.5t-11.5 -75q0 -43 10.5 -78t29.5 -59.5t44 -38t54 -13.5q28 0 54.5 11t46.5 33.5t32 57.5t12 84z" />
    <glyph glyph-name="c" unicode="c" horiz-adv-x="467" 
d="M248 494q43 0 75.5 -13.5t55 -33.5t36 -44t19.5 -45h-83q-11 31 -36.5 49.5t-65.5 18.5q-27 0 -53 -11.5t-45.5 -34.5t-31.5 -58t-12 -82q0 -41 10.5 -75.5t29.5 -59.5t45.5 -39t57.5 -14q46 0 71 24t36 54h83q-9 -26 -24 -52t-38 -47t-54.5 -34t-71.5 -13
q-45 0 -85 17.5t-70 51t-48 81t-18 107.5q0 52 15 98.5t43.5 80.5t68.5 54t90 20z" />
    <glyph glyph-name="d" unicode="d" horiz-adv-x="522" 
d="M458 0h-74v70q-23 -37 -58.5 -61.5t-91.5 -24.5q-40 0 -77 18t-65 51.5t-44.5 80.5t-16.5 106q0 55 15.5 102t43.5 80.5t66 52.5t82 19q28 0 50.5 -7.5t40.5 -19.5t31.5 -27t23.5 -31v311h74v-720zM107 240q0 -89 40 -138.5t103 -49.5q28 0 53 13.5t44.5 38t31 58.5
t11.5 75q0 43 -10.5 78t-29.5 59.5t-44 38t-54 13.5q-69 0 -107 -51t-38 -135z" />
    <glyph glyph-name="e" unicode="e" horiz-adv-x="469" 
d="M239 494q54 0 92 -22t62 -57.5t34.5 -79.5t10.5 -89q0 -6 -0.5 -15t-1.5 -14h-329q2 -36 13.5 -66.5t30 -52.5t43 -34t52.5 -12q35 0 61.5 14.5t41.5 43.5h82q-10 -24 -26 -47t-38.5 -40.5t-51.5 -28t-65 -10.5q-49 0 -89.5 18t-69 51.5t-44.5 82t-16 110.5
q0 57 16.5 102.5t44.5 78t66 50t81 17.5zM362 282q-1 30 -10 56.5t-25 46t-38.5 30.5t-51.5 11t-51.5 -13t-39 -33.5t-26.5 -46t-12 -51.5h254z" />
    <glyph glyph-name="f" unicode="f" horiz-adv-x="244" 
d="M23 479h55v88q0 82 33.5 120t96.5 38q11 0 25 -2t24 -4v-63q-9 2 -21 3.5t-21 1.5q-33 0 -48 -20t-15 -65v-97h89v-64h-89v-415h-74v415h-55v64z" />
    <glyph glyph-name="g" unicode="g" horiz-adv-x="522" 
d="M458 -6q0 -130 -56.5 -190t-158.5 -60q-42 0 -77 14.5t-60 39t-39.5 57.5t-16.5 71h74q1 -23 10 -44t24.5 -36.5t38.5 -24.5t52 -9q65 0 100 39t35 133v88q-23 -36 -60.5 -62t-89.5 -26q-41 0 -77.5 18t-64.5 51.5t-44.5 80.5t-16.5 106q0 55 15.5 102t42.5 80.5t64 52.5
t80 19q30 0 53.5 -7.5t42 -20t32 -28.5t23.5 -34v75h74v-485zM106 240q0 -40 10 -74t28.5 -59.5t45 -40t59.5 -14.5q28 0 54 13.5t45 38t30.5 58.5t11.5 75q0 43 -11 78t-29.5 59.5t-44 38t-54.5 13.5q-34 0 -61 -14.5t-45.5 -39.5t-28.5 -59t-10 -73z" />
    <glyph glyph-name="h" unicode="h" horiz-adv-x="479" 
d="M64 720h74v-307q28 47 63 64t68 17q27 0 55 -11t50.5 -36t37 -66t14.5 -102v-279h-74v276q0 75 -26 112t-73 37q-54 0 -84.5 -41.5t-30.5 -126.5v-257h-74v720z" />
    <glyph glyph-name="i" unicode="i" horiz-adv-x="201" 
d="M64 479h73v-479h-73v479zM55 686h92v-91h-92v91z" />
    <glyph glyph-name="j" unicode="j" horiz-adv-x="201" 
d="M137 479v-565q0 -81 -30 -115t-95 -34q-11 0 -20 1.5t-19 3.5v64q5 -2 15.5 -3t18.5 -1q33 0 45 18.5t12 62.5v568h73zM55 686h92v-91h-92v91z" />
    <glyph glyph-name="k" unicode="k" horiz-adv-x="407" 
d="M189 235l-51 -63v-172h-74v720h74v-451l166 210h86l-152 -188l164 -291h-87z" />
    <glyph glyph-name="l" unicode="l" horiz-adv-x="202" 
d="M64 720h74v-720h-74v720z" />
    <glyph glyph-name="m" unicode="m" horiz-adv-x="748" 
d="M64 479h74v-66q20 35 53.5 58t71.5 23q55 0 87 -29.5t46 -74.5q8 19 20 37.5t29 33.5t39.5 24t51.5 9q72 0 113 -54.5t41 -160.5v-279h-74v285q0 28 -5 53.5t-16.5 44.5t-29.5 30.5t-44 11.5q-22 0 -41.5 -9t-34 -28.5t-23 -49.5t-8.5 -72v-266h-74v285q0 61 -23.5 100.5
t-71.5 39.5q-49 0 -78 -41t-29 -118v-266h-74v479z" />
    <glyph glyph-name="n" unicode="n" horiz-adv-x="484" 
d="M64 479h74v-66q28 47 63 64t68 17q27 0 55 -11t50.5 -36t37 -66t14.5 -102v-279h-74v274q0 75 -26 113t-73 38q-54 0 -84.5 -42.5t-30.5 -127.5v-255h-74v479z" />
    <glyph glyph-name="o" unicode="o" horiz-adv-x="499" 
d="M31 240q0 55 16 102t44.5 80.5t69 52.5t88.5 19q50 0 90.5 -19.5t69 -53.5t44 -80.5t15.5 -100.5q0 -53 -15.5 -99.5t-44.5 -81.5t-69.5 -55t-89.5 -20q-48 0 -88.5 19.5t-69 54t-44.5 81.5t-16 101zM107 240q0 -41 10.5 -75t29.5 -59t45 -38.5t57 -13.5q33 0 59.5 14
t45 39t28 59t9.5 74q0 38 -9.5 72t-27.5 59t-44.5 39.5t-60.5 14.5t-60.5 -14t-44.5 -38.5t-27.5 -58.5t-9.5 -74z" />
    <glyph glyph-name="p" unicode="p" horiz-adv-x="522" 
d="M64 479h74v-71q22 34 58 60t92 26q40 0 77 -18t65 -51.5t44.5 -81t16.5 -105.5q0 -56 -16 -102.5t-43.5 -80t-65.5 -52.5t-82 -19q-28 0 -51 7.5t-41 19.5t-31.5 27t-22.5 31v-304h-74v714zM415 238q0 86 -38.5 137t-104.5 51q-28 0 -53 -13.5t-44.5 -38t-31 -58.5
t-11.5 -75q0 -43 10.5 -78t29.5 -59.5t44 -38t54 -13.5q66 0 105.5 49t39.5 137z" />
    <glyph glyph-name="q" unicode="q" horiz-adv-x="522" 
d="M458 -235h-74v305q-21 -35 -57.5 -60.5t-92.5 -25.5q-40 0 -77 18t-65 51.5t-44.5 80.5t-16.5 106q0 55 15.5 102t43.5 80.5t66 52.5t82 19q28 0 51 -7.5t41 -19.5t31.5 -27t22.5 -31v70h74v-714zM107 240q0 -91 40.5 -139.5t102.5 -48.5q28 0 53 13.5t44.5 38t31 58.5
t11.5 75q0 43 -10.5 78t-29.5 59.5t-44 38t-54 13.5q-69 0 -107 -51t-38 -135z" />
    <glyph glyph-name="r" unicode="r" horiz-adv-x="293" 
d="M273 423q-14 3 -34 3q-44 0 -72.5 -40.5t-28.5 -132.5v-253h-74v479h74v-60h3q5 12 14.5 25t22.5 24.5t29 18.5t35 7q17 0 31 -3v-68z" />
    <glyph glyph-name="s" unicode="s" horiz-adv-x="355" 
d="M244 370q-4 26 -21.5 42t-44.5 16q-30 0 -47.5 -16t-17.5 -46q0 -15 3.5 -26.5t13 -21.5t25.5 -19.5t41 -20.5q39 -17 64 -34.5t39.5 -36.5t19.5 -39t5 -43q0 -27 -10 -52.5t-29.5 -45t-48.5 -31.5t-66 -12q-66 0 -106.5 38.5t-45.5 100.5h72q2 -32 21.5 -52.5
t60.5 -20.5q42 0 60.5 22.5t18.5 49.5q0 25 -17.5 47t-66.5 44q-35 15 -59 30.5t-39 33.5t-21.5 40t-6.5 49q0 26 9.5 49t27 40.5t43 28t57.5 10.5t56.5 -11t41.5 -28.5t26 -39.5t11 -45h-69z" />
    <glyph glyph-name="t" unicode="t" horiz-adv-x="264" 
d="M12 479h54v154h74v-154h102v-64h-102v-275q0 -45 15 -63t50 -18q11 0 21.5 1t19.5 3v-63q-11 -3 -27.5 -4.5t-27.5 -1.5q-63 0 -94 34t-31 115v272h-54v64z" />
    <glyph glyph-name="u" unicode="u" horiz-adv-x="484" 
d="M420 0h-74v66q-28 -47 -63 -64t-68 -17q-27 0 -55 11t-50.5 36t-37 66t-14.5 102v279h74v-274q0 -75 26 -112.5t73 -37.5q54 0 84.5 42t30.5 127v255h74v-479z" />
    <glyph glyph-name="v" unicode="v" horiz-adv-x="361" 
d="M215 0h-70l-149 479h77l79 -273q3 -9 6.5 -22.5t7.5 -29.5t7.5 -32t5.5 -29h2q2 12 6 28t8 31.5t8 30t7 23.5l77 273h77z" />
    <glyph glyph-name="w" unicode="w" horiz-adv-x="592" 
d="M466 0h-88l-66 305q-5 22 -8 51.5t-5 49.5h-4q-1 -21 -4.5 -50.5t-8.5 -50.5l-71 -305h-87l-108 479h72l60 -279q7 -32 13 -62.5t10 -56.5h4q3 26 9.5 59.5t12.5 59.5l62 279h76l62 -279q6 -27 12.5 -60t9.5 -59h4q2 25 8.5 58t12.5 61l60 279h72z" />
    <glyph glyph-name="x" unicode="x" horiz-adv-x="380" 
d="M150 246l-127 233h79l63 -120q9 -17 14.5 -32.5t9.5 -25.5h5q5 15 11.5 29t12.5 26l67 123h79l-134 -231l142 -248h-83l-71 133q-7 13 -14.5 29.5t-12.5 29.5h-6q-5 -13 -12 -30t-15 -30l-72 -132h-78z" />
    <glyph glyph-name="y" unicode="y" horiz-adv-x="393" 
d="M169 0l-167 479h79l74 -223q10 -29 24 -72t25 -89h2q6 29 18.5 72.5t24.5 88.5l61 223h78l-214 -714h-74z" />
    <glyph glyph-name="z" unicode="z" horiz-adv-x="396" 
d="M40 479h316v-58l-237 -356h245v-65h-332v59l238 356h-230v64z" />
    <glyph glyph-name="braceleft" unicode="{" horiz-adv-x="318" 
d="M262 676q-32 -2 -44 -23.5t-12 -58.5v-202q0 -40 -16.5 -75.5t-51.5 -53.5v-2q32 -14 50 -50t18 -89v-190q0 -37 12 -59t44 -23v-65q-61 1 -95.5 42t-34.5 117v204q0 34 -18 57.5t-53 27.5v59q35 5 53 28t18 56v205q0 75 33 116.5t97 43.5v-65z" />
    <glyph glyph-name="bar" unicode="|" horiz-adv-x="316" 
d="M125 -210v1000h66v-1000h-66z" />
    <glyph glyph-name="braceright" unicode="}" horiz-adv-x="318" 
d="M56 741q63 -2 96 -43.5t33 -116.5v-205q0 -33 18 -56t53 -28v-59q-35 -4 -53 -27.5t-18 -57.5v-204q0 -76 -34 -117t-95 -42v65q32 1 44 23t12 59v190q0 53 18 89t50 50v2q-36 18 -52 53.5t-16 75.5v202q0 37 -12 58.5t-44 23.5v65z" />
    <glyph glyph-name="asciitilde" unicode="~" horiz-adv-x="566" 
d="M526 288q-26 -43 -60 -73.5t-84 -30.5q-31 0 -56 9.5t-51 26.5q-19 13 -32.5 21t-24 12.5t-18.5 6.5t-17 2q-31 0 -51.5 -18.5t-37.5 -47.5l-56 36q10 19 24.5 37.5t32.5 32t39.5 22t46.5 8.5q32 0 56 -10.5t52 -28.5q19 -12 32 -20t23 -12t18.5 -5.5t19.5 -1.5
q31 0 50.5 20t37.5 50l56 -36v0z" />
    <glyph glyph-name="uni00A0" unicode="&#xa0;" horiz-adv-x="240" 
 />
    <glyph glyph-name="exclamdown" unicode="&#xa1;" horiz-adv-x="195" 
d="M139 595h-83v87h83v-87zM54 0l9 494h69l9 -494h-87z" />
    <glyph glyph-name="cent" unicode="&#xa2;" horiz-adv-x="483" 
d="M220 93q-38 7 -70.5 28t-56.5 53t-38 75.5t-14 96.5q0 47 12.5 89.5t35.5 75.5t56 55t75 29v87h67v-85q36 -5 63 -19t46 -33.5t30.5 -41t17.5 -40.5h-83q-9 25 -27.5 42t-46.5 23v-368q32 7 51 28t29 47h83q-8 -24 -21.5 -48t-33.5 -44.5t-47 -34.5t-61 -18v-90h-67v93z
M117 345q0 -69 28 -117.5t75 -64.5v362q-43 -14 -73 -58t-30 -122z" />
    <glyph glyph-name="sterling" unicode="&#xa3;" horiz-adv-x="483" 
d="M361 321h-185q4 -23 7 -47.5t3 -46.5q0 -43 -13.5 -74.5t-35.5 -48.5q23 0 47 -7t53 -21q22 -11 42.5 -18.5t39.5 -7.5q23 0 39 23t17 83h78q-2 -88 -35 -133t-87 -45q-33 0 -62.5 9t-58.5 22q-25 11 -45 18t-40 7q-26 0 -48.5 -9t-46.5 -23v70q23 10 39 26t26 34.5
t14.5 39t4.5 40.5q0 32 -4 59t-9 50h-71v65h55q-5 27 -9.5 57.5t-4.5 68.5t11.5 73t34 61.5t55.5 42.5t76 16t75.5 -14t55 -39t34 -59.5t13.5 -75.5h-78q-2 56 -28.5 86t-70.5 30q-50 0 -74 -32t-24 -91q0 -32 3.5 -63.5t8.5 -60.5h198v-65z" />
    <glyph glyph-name="currency" unicode="&#xa4;" horiz-adv-x="618" 
d="M492 131l-67 67q-51 -39 -117 -39q-26 0 -57 8.5t-60 30.5l-67 -67l-41 43l68 65q-18 25 -28.5 54t-10.5 61q0 65 39 115q-9 8 -20.5 19t-22.5 22l-25 25l41 43l67 -67q30 21 60.5 29.5t56.5 8.5q28 0 59.5 -9t56.5 -29l68 67l42 -43l-68 -66q20 -27 29 -57t9 -58
q0 -62 -38 -115q33 -34 68 -65zM445 355q0 30 -11.5 55t-31 43t-44 28t-49.5 10q-30 0 -55 -11t-43.5 -30t-29 -43.5t-10.5 -51.5q0 -28 11 -53t29.5 -44t43.5 -30t53 -11t53 11t43.5 30t29.5 44t11 53z" />
    <glyph glyph-name="yen" unicode="&#xa5;" horiz-adv-x="483" 
d="M48 346h123l-153 336h86l108 -242q10 -22 17 -43.5t13 -41.5h2q8 21 15.5 41t17.5 43l103 243h85l-153 -336h124v-63h-152l-2 -5v-89h154v-63h-154v-126h-80v126h-154v63h154v88l-3 6h-151v63z" />
    <glyph glyph-name="brokenbar" unicode="&#xa6;" horiz-adv-x="316" 
d="M125 390v300h66v-300h-66zM125 -110v300h66v-300h-66z" />
    <glyph glyph-name="section" unicode="&#xa7;" horiz-adv-x="380" 
d="M337 323q0 -33 -19.5 -64t-54.5 -43q26 -21 42.5 -49.5t16.5 -70.5q0 -27 -8.5 -52.5t-26.5 -45.5t-44.5 -32t-62.5 -12q-68 0 -104.5 39t-37.5 100h76q2 -30 18.5 -51.5t48.5 -21.5q31 0 49 20.5t18 46.5q0 13 -3 25t-11 23t-23 23t-40 26q-40 23 -65.5 42t-40 37
t-20 37t-5.5 42q0 35 19.5 66t54.5 43q-26 22 -42.5 50t-16.5 67q0 26 8.5 49.5t26 41.5t43 28.5t60.5 10.5q30 0 54 -10t41 -27t26.5 -40t10.5 -50h-74q-3 29 -19.5 44.5t-41.5 15.5q-28 0 -45 -17.5t-17 -42.5q0 -11 3 -21t13.5 -21.5t29.5 -25.5t52 -32q63 -35 87 -69.5
t24 -78.5zM263 317q0 18 -8 33t-21 27t-30 22t-35 19q-24 -3 -39.5 -21t-15.5 -47q0 -17 7.5 -30.5t20.5 -25t30.5 -22.5t37.5 -23q23 5 38 22t15 46z" />
    <glyph glyph-name="dieresis" unicode="&#xa8;" horiz-adv-x="318" 
d="M45 682h88v-87h-88v87zM185 682h88v-87h-88v87z" />
    <glyph glyph-name="copyright" unicode="&#xa9;" horiz-adv-x="796" 
d="M35 341q0 75 28.5 141t78 115.5t115.5 78t141 28.5t141.5 -28.5t115.5 -78t77.5 -115.5t28.5 -141t-28.5 -141t-77.5 -115.5t-115.5 -78t-141.5 -28.5t-141 28.5t-115.5 78t-78 115.5t-28.5 141zM400 550q37 0 65.5 -11.5t48.5 -30.5t32 -42.5t17 -48.5h-72
q-8 34 -32 53.5t-60 19.5q-47 0 -78.5 -37t-31.5 -107q0 -30 8 -56t22.5 -45.5t35.5 -30.5t47 -11q35 0 60 21.5t33 58.5h72q-14 -63 -57.5 -101.5t-109.5 -38.5q-41 0 -74.5 15.5t-57 43t-36 65t-12.5 81.5q0 43 13.5 80t37.5 64t57 42.5t72 15.5zM93 341q0 -63 24 -119
t65.5 -97t97 -65t118.5 -24t119 24t97 65t65 97t24 119t-24 119t-65 97t-97 65t-119 24t-118.5 -24t-97 -65t-65.5 -97t-24 -119z" />
    <glyph glyph-name="ordfeminine" unicode="&#xaa;" horiz-adv-x="349" 
d="M315 341q-3 -2 -12 -3t-17 -1q-22 0 -38 13.5t-21 45.5q-15 -26 -43 -44t-59 -18q-39 0 -67 24.5t-28 74.5q0 51 49 88t149 47v10q0 38 -13.5 54t-43.5 16q-26 0 -41.5 -15t-20.5 -38h-63q8 50 42.5 79.5t82.5 29.5q56 0 89 -31t33 -103v-153q0 -12 2.5 -18.5t11.5 -6.5
q5 0 8 1v-52zM228 523q-72 -10 -100.5 -34t-28.5 -53q0 -46 47 -46q32 0 57 28t25 76v29z" />
    <glyph glyph-name="guillemotleft" unicode="&#xab;" horiz-adv-x="403" 
d="M141 441l53 -22l-65 -179l65 -179l-53 -22l-99 201zM300 441l53 -22l-65 -179l65 -179l-53 -22l-99 201z" />
    <glyph glyph-name="logicalnot" unicode="&#xac;" horiz-adv-x="566" 
d="M497 99l-70 1v229h-375v70l445 -1v-299z" />
    <glyph glyph-name="uni00AD" unicode="&#xad;" horiz-adv-x="380" 
d="M62 225v78h256v-78h-256z" />
    <glyph glyph-name="registered" unicode="&#xae;" horiz-adv-x="485" 
d="M37 498q0 42 16.5 79.5t44.5 65.5t65.5 44.5t79.5 16.5t79.5 -16.5t65.5 -44.5t44 -65.5t16 -79.5q0 -43 -16 -80.5t-44 -65t-65.5 -43.5t-79.5 -16t-79.5 16t-65.5 43.5t-44.5 65t-16.5 80.5zM76 498q0 -35 13.5 -65t36 -52.5t53 -35.5t64.5 -13t64.5 13t53 35.5
t35.5 52.5t13 65q0 34 -13 64.5t-35.5 53t-53 35.5t-64.5 13t-64.5 -13t-53 -35.5t-36 -53t-13.5 -64.5zM350 388h-54l-61 85h-26v-85h-47v226h88q47 0 67 -22t20 -48t-15 -43.5t-38 -22.5zM287 542q0 13 -8.5 24t-34.5 11h-35v-69h34q44 0 44 34z" />
    <glyph glyph-name="macron" unicode="&#xaf;" horiz-adv-x="318" 
d="M30 609v59h258v-59h-258z" />
    <glyph glyph-name="degree" unicode="&#xb0;" horiz-adv-x="360" 
d="M55 572q0 25 10 48t27 39.5t40 26.5t49 10q25 0 48 -10t39.5 -26.5t26.5 -39.5t10 -48q0 -26 -10 -48.5t-26.5 -39.5t-39.5 -27t-48 -10q-26 0 -49 10t-40 27t-27 39.5t-10 48.5zM106 571q0 -32 21.5 -53t53.5 -21q31 0 52.5 21t21.5 53t-21.5 54t-52.5 22
q-32 0 -53.5 -22t-21.5 -54z" />
    <glyph glyph-name="plusminus" unicode="&#xb1;" horiz-adv-x="566" 
d="M318 294v-164h-70v164h-196v70h196v166h70v-166h196v-70h-196zM52 0v70h462v-70h-462z" />
    <glyph glyph-name="uni00B2" unicode="&#xb2;" 
d="M52 474l126 153q25 31 42.5 58t17.5 59q0 29 -15 47t-42 18q-28 0 -42.5 -20t-16.5 -55h-72q4 58 37 97t97 39q30 0 54 -9.5t40.5 -26.5t25.5 -39.5t9 -47.5q0 -43 -20.5 -79t-61.5 -83l-85 -99h173v-63h-267v51z" />
    <glyph glyph-name="uni00B3" unicode="&#xb3;" 
d="M48 748q1 25 10.5 47.5t26 39t40 26t53.5 9.5q61 0 94 -31.5t33 -80.5q0 -37 -22.5 -62.5t-55.5 -33.5v-2q42 -9 66.5 -38t24.5 -76q0 -27 -9 -51.5t-26.5 -43.5t-44 -30.5t-62.5 -11.5q-66 0 -101 36.5t-40 96.5h72q9 -74 70 -74q33 0 51 23.5t18 59.5q0 31 -19.5 54.5
t-64.5 23.5h-26v56h22q33 0 54 17.5t21 46.5q0 27 -14 45t-43 18t-42 -20t-15 -44h-71z" />
    <glyph glyph-name="acute" unicode="&#xb4;" horiz-adv-x="272" 
d="M248 672l-141 -118l-37 41l131 131z" />
    <glyph glyph-name="uni00B5" unicode="&#xb5;" horiz-adv-x="509" 
d="M64 479h76v-274q0 -72 24 -112t75 -40q54 0 82 44.5t28 125.5v256h77v-366q0 -26 8 -38t28 -12q5 0 11.5 1t9.5 2v-67q-15 -5 -40 -5t-48.5 16t-31.5 56h-3q-26 -44 -60 -63.5t-76 -19.5q-21 0 -44 8.5t-48 28.5l-3 -2q7 -27 9 -59t2 -63v-131h-76v714z" />
    <glyph glyph-name="paragraph" unicode="&#xb6;" horiz-adv-x="466" 
d="M379 618v-618h-64v618h-60v-618h-63v348q-37 1 -66 15t-49 37t-30.5 53t-10.5 63q0 37 12.5 67.5t34 52.5t50.5 34t62 12h229v-64h-45z" />
    <glyph glyph-name="periodcentered" unicode="&#xb7;" horiz-adv-x="214" 
d="M55 409h104v-108h-104v108z" />
    <glyph glyph-name="cedilla" unicode="&#xb8;" horiz-adv-x="318" 
d="M188 0l-18 -44q42 -6 64 -28.5t22 -57.5q0 -45 -35 -70t-86 -25q-22 0 -42.5 4t-38.5 11l18 48q11 -5 28 -8t36 -3q28 0 42.5 13t14.5 32q0 21 -20.5 36.5t-64.5 15.5l32 76h48z" />
    <glyph glyph-name="uni00B9" unicode="&#xb9;" 
d="M150 796h-62v61h133v-434h-71v373z" />
    <glyph glyph-name="ordmasculine" unicode="&#xba;" horiz-adv-x="386" 
d="M28 519q0 43 12.5 77.5t35 58.5t52.5 36.5t65 12.5q37 0 67.5 -14t52.5 -39t33.5 -58.5t11.5 -73.5q0 -41 -11.5 -75t-33.5 -58.5t-52.5 -38t-67.5 -13.5q-35 0 -65.5 12.5t-52.5 36.5t-34.5 58.5t-12.5 77.5zM95 519q0 -57 27 -91.5t71 -34.5t71 33.5t27 92.5
q0 57 -27 91.5t-71 34.5q-42 0 -70 -30t-28 -96z" />
    <glyph glyph-name="guillemotright" unicode="&#xbb;" horiz-adv-x="403" 
d="M103 39l-53 22l65 179l-65 179l53 22l99 -201zM262 39l-53 22l65 179l-65 179l53 22l99 -201z" />
    <glyph glyph-name="onequarter" unicode="&#xbc;" horiz-adv-x="869" 
d="M150 621h-62v61h133v-434h-71v373zM658 682l-387 -682h-70l386 682h71zM785 86v-86h-68v86h-183v55l186 293h65v-290h60v-58h-60zM600 144h117v147q0 22 3 49h-3q-5 -12 -14 -29.5t-15 -28.5z" />
    <glyph glyph-name="onehalf" unicode="&#xbd;" horiz-adv-x="869" 
d="M150 621h-62v61h133v-434h-71v373zM648 682l-387 -682h-70l386 682h71zM562 51l126 153q25 31 42.5 58t17.5 59q0 29 -15 47t-42 18q-28 0 -42.5 -20t-16.5 -55h-72q4 58 37 97t97 39q30 0 54 -9.5t40.5 -26.5t25.5 -39.5t9 -47.5q0 -43 -20.5 -79t-61.5 -83l-85 -99h173
v-63h-267v51z" />
    <glyph glyph-name="threequarters" unicode="&#xbe;" horiz-adv-x="869" 
d="M48 573q1 25 10.5 47.5t26 39t40 26t53.5 9.5q61 0 94 -31.5t33 -80.5q0 -37 -22.5 -62.5t-55.5 -33.5v-2q42 -9 66.5 -38t24.5 -76q0 -27 -9 -51.5t-26.5 -43.5t-44 -30.5t-62.5 -11.5q-66 0 -101 36.5t-40 96.5h72q9 -74 70 -74q33 0 51 23.5t18 59.5q0 31 -19.5 54.5
t-64.5 23.5h-26v56h22q33 0 54 17.5t21 46.5q0 27 -14 45t-43 18t-42 -20t-15 -44h-71zM673 682l-387 -682h-70l386 682h71zM785 86v-86h-68v86h-183v55l186 293h65v-290h60v-58h-60zM600 144h117v147q0 22 3 49h-3q-5 -12 -14 -29.5t-15 -28.5z" />
    <glyph glyph-name="questiondown" unicode="&#xbf;" horiz-adv-x="368" 
d="M104 345q15 18 25 34t15.5 33t7.5 37t2 45h69q0 -27 -1.5 -50t-7 -43.5t-14.5 -39.5t-24 -39q-18 -24 -33 -43t-26 -37.5t-17 -37.5t-6 -42q0 -45 22.5 -75.5t73.5 -30.5q49 0 72 31.5t23 83.5h78q-2 -89 -48.5 -138t-127.5 -49q-41 0 -73 13t-54 36t-33 54t-11 68
q0 29 5 52.5t15.5 45t27.5 43.5t40 49zM230 595h-83v87h83v-87z" />
    <glyph glyph-name="Agrave" unicode="&#xc0;" horiz-adv-x="534" 
d="M234 682h73l225 -682h-87l-56 185h-245l-59 -185h-83zM166 258h200l-59 194q-8 28 -19 64.5t-19 66.5h-4q-8 -32 -18 -67.5t-19 -64.5zM193 887l154 -104l-29 -47l-160 89z" />
    <glyph glyph-name="Aacute" unicode="&#xc1;" horiz-adv-x="534" 
d="M234 682h73l225 -682h-87l-56 185h-245l-59 -185h-83zM166 258h200l-59 194q-8 28 -19 64.5t-19 66.5h-4q-8 -32 -18 -67.5t-19 -64.5zM382 825l-160 -89l-29 47l154 104z" />
    <glyph glyph-name="Acircumflex" unicode="&#xc2;" horiz-adv-x="534" 
d="M234 682h73l225 -682h-87l-56 185h-245l-59 -185h-83zM166 258h200l-59 194q-8 28 -19 64.5t-19 66.5h-4q-8 -32 -18 -67.5t-19 -64.5zM405 783l-28 -44l-107 59l-107 -59l-28 44l135 94z" />
    <glyph glyph-name="Atilde" unicode="&#xc3;" horiz-adv-x="534" 
d="M234 682h73l225 -682h-87l-56 185h-245l-59 -185h-83zM166 258h200l-59 194q-8 28 -19 64.5t-19 66.5h-4q-8 -32 -18 -67.5t-19 -64.5zM124 772q2 52 22 82t62 30q22 0 37 -8.5t29 -19.5q14 -12 23.5 -19t15.5 -10t10 -4t8 -1q14 0 22.5 10t9.5 45h53q-2 -55 -24.5 -83.5
t-60.5 -28.5q-20 0 -36 7t-33 21t-30.5 24t-22.5 10q-14 0 -22 -12.5t-10 -42.5h-53z" />
    <glyph glyph-name="Adieresis" unicode="&#xc4;" horiz-adv-x="534" 
d="M234 682h73l225 -682h-87l-56 185h-245l-59 -185h-83zM166 258h200l-59 194q-8 28 -19 64.5t-19 66.5h-4q-8 -32 -18 -67.5t-19 -64.5zM146 863h88v-87h-88v87zM306 863h88v-87h-88v87z" />
    <glyph glyph-name="Aring" unicode="&#xc5;" horiz-adv-x="534" 
d="M234 682h73l225 -682h-87l-56 185h-245l-59 -185h-83zM166 258h200l-59 194q-8 28 -19 64.5t-19 66.5h-4q-8 -32 -18 -67.5t-19 -64.5zM208 823q0 -26 18.5 -44.5t44.5 -18.5t43.5 18.5t17.5 44.5t-17.5 43.5t-43.5 17.5t-44.5 -17.5t-18.5 -43.5zM163 823q0 22 8.5 41.5
t23 33.5t34 22.5t42.5 8.5q45 0 75.5 -30.5t30.5 -75.5q0 -22 -8.5 -41.5t-22.5 -34.5t-33.5 -23.5t-41.5 -8.5q-23 0 -42.5 8.5t-34 23.5t-23 34.5t-8.5 41.5z" />
    <glyph glyph-name="AE" unicode="&#xc6;" horiz-adv-x="720" 
d="M664 608h-236v-218h226v-74h-226v-242h244v-74h-320v185h-196l-78 -185h-83l297 682h372v-74zM352 258v355h-18l-149 -355h167z" />
    <glyph glyph-name="Ccedilla" unicode="&#xc7;" horiz-adv-x="580" 
d="M301 698q53 0 94 -15.5t70 -42t46 -61.5t23 -74h-84q-10 57 -49.5 89t-102.5 32q-38 0 -71 -17.5t-58 -52.5t-39.5 -88.5t-14.5 -125.5q0 -66 13.5 -119t38.5 -90t59 -57t75 -20q57 0 101 32t56 102h84q-20 -100 -77 -150t-145 -55l-11 -29q42 -6 64 -28.5t22 -57.5
q0 -45 -35 -70t-86 -25q-22 0 -42.5 4t-38.5 11l18 48q11 -5 28 -8t36 -3q28 0 42.5 13t14.5 32q0 21 -20.5 36.5t-64.5 15.5l26 62q-54 5 -98.5 31.5t-76 72t-48.5 109t-17 144.5t20 146.5t56 112t85 71.5t107 25z" />
    <glyph glyph-name="Egrave" unicode="&#xc8;" horiz-adv-x="441" 
d="M385 608h-236v-218h226v-74h-226v-242h244v-74h-324v682h316v-74zM150 887l154 -104l-29 -47l-160 89z" />
    <glyph glyph-name="Eacute" unicode="&#xc9;" horiz-adv-x="441" 
d="M385 608h-236v-218h226v-74h-226v-242h244v-74h-324v682h316v-74zM339 825l-160 -89l-29 47l154 104z" />
    <glyph glyph-name="Ecircumflex" unicode="&#xca;" horiz-adv-x="441" 
d="M385 608h-236v-218h226v-74h-226v-242h244v-74h-324v682h316v-74zM362 783l-28 -44l-107 59l-107 -59l-28 44l135 94z" />
    <glyph glyph-name="Edieresis" unicode="&#xcb;" horiz-adv-x="441" 
d="M385 608h-236v-218h226v-74h-226v-242h244v-74h-324v682h316v-74zM103 863h88v-87h-88v87zM263 863h88v-87h-88v87z" />
    <glyph glyph-name="Igrave" unicode="&#xcc;" horiz-adv-x="218" 
d="M69 682h80v-682h-80v682zM32 887l154 -104l-29 -47l-160 89z" />
    <glyph glyph-name="Iacute" unicode="&#xcd;" horiz-adv-x="218" 
d="M69 682h80v-682h-80v682zM221 825l-160 -89l-29 47l154 104z" />
    <glyph glyph-name="Icircumflex" unicode="&#xce;" horiz-adv-x="218" 
d="M69 682h80v-682h-80v682zM244 783l-28 -44l-107 59l-107 -59l-28 44l135 94z" />
    <glyph glyph-name="Idieresis" unicode="&#xcf;" horiz-adv-x="218" 
d="M69 682h80v-682h-80v682zM-15 863h88v-87h-88v87zM145 863h88v-87h-88v87z" />
    <glyph glyph-name="Eth" unicode="&#xd0;" horiz-adv-x="604" 
d="M90 0v317h-75v74h75v291h196q68 0 121 -23.5t89.5 -67.5t55.5 -107t19 -142q0 -83 -21 -146.5t-58.5 -107t-90 -66t-115.5 -22.5h-196zM285 74q45 0 82 15t64 47.5t42 83.5t15 122q0 69 -14.5 119.5t-41 83t-64 48t-83.5 15.5h-115v-217h160v-74h-160v-243h115z" />
    <glyph glyph-name="Ntilde" unicode="&#xd1;" horiz-adv-x="587" 
d="M142 549q0 -14 0.5 -33.5t1 -40.5t0.5 -40.5v-32.5v-402h-75v682h76l179 -322q46 -83 75.5 -140.5t42.5 -87.5h3q-1 35 -1.5 68.5t-0.5 68.5v413h75v-682h-76l-180 325q-27 49 -46.5 85.5t-33 62.5t-22 44t-14.5 32h-4zM150 772q2 52 22 82t62 30q22 0 37 -8.5t29 -19.5
q14 -12 23.5 -19t15.5 -10t10 -4t8 -1q14 0 22.5 10t9.5 45h53q-2 -55 -24.5 -83.5t-60.5 -28.5q-20 0 -36 7t-33 21t-30.5 24t-22.5 10q-14 0 -22 -12.5t-10 -42.5h-53z" />
    <glyph glyph-name="Ograve" unicode="&#xd2;" horiz-adv-x="616" 
d="M115 340q0 -71 15 -124t40.5 -88.5t60.5 -53.5t76 -18t76 18t61 53.5t41 89t15 124.5q0 69 -14 122.5t-39.5 89.5t-61 54.5t-78.5 18.5q-41 0 -76 -18t-60.5 -54t-40.5 -89.5t-15 -124.5zM33 340q0 81 20.5 147t57.5 113t87 72.5t110 25.5q64 0 115 -26t86.5 -73.5
t54.5 -113t19 -144.5q0 -83 -21 -149t-57.5 -112t-87 -71t-109.5 -25q-71 0 -123 29t-85.5 78.5t-50 113.5t-16.5 135zM236 887l154 -104l-29 -47l-160 89z" />
    <glyph glyph-name="Oacute" unicode="&#xd3;" horiz-adv-x="616" 
d="M115 340q0 -71 15 -124t40.5 -88.5t60.5 -53.5t76 -18t76 18t61 53.5t41 89t15 124.5q0 69 -14 122.5t-39.5 89.5t-61 54.5t-78.5 18.5q-41 0 -76 -18t-60.5 -54t-40.5 -89.5t-15 -124.5zM33 340q0 81 20.5 147t57.5 113t87 72.5t110 25.5q64 0 115 -26t86.5 -73.5
t54.5 -113t19 -144.5q0 -83 -21 -149t-57.5 -112t-87 -71t-109.5 -25q-71 0 -123 29t-85.5 78.5t-50 113.5t-16.5 135zM425 825l-160 -89l-29 47l154 104z" />
    <glyph glyph-name="Ocircumflex" unicode="&#xd4;" horiz-adv-x="616" 
d="M115 340q0 -71 15 -124t40.5 -88.5t60.5 -53.5t76 -18t76 18t61 53.5t41 89t15 124.5q0 69 -14 122.5t-39.5 89.5t-61 54.5t-78.5 18.5q-41 0 -76 -18t-60.5 -54t-40.5 -89.5t-15 -124.5zM33 340q0 81 20.5 147t57.5 113t87 72.5t110 25.5q64 0 115 -26t86.5 -73.5
t54.5 -113t19 -144.5q0 -83 -21 -149t-57.5 -112t-87 -71t-109.5 -25q-71 0 -123 29t-85.5 78.5t-50 113.5t-16.5 135zM448 783l-28 -44l-107 59l-107 -59l-28 44l135 94z" />
    <glyph glyph-name="Otilde" unicode="&#xd5;" horiz-adv-x="616" 
d="M115 340q0 -71 15 -124t40.5 -88.5t60.5 -53.5t76 -18t76 18t61 53.5t41 89t15 124.5q0 69 -14 122.5t-39.5 89.5t-61 54.5t-78.5 18.5q-41 0 -76 -18t-60.5 -54t-40.5 -89.5t-15 -124.5zM33 340q0 81 20.5 147t57.5 113t87 72.5t110 25.5q64 0 115 -26t86.5 -73.5
t54.5 -113t19 -144.5q0 -83 -21 -149t-57.5 -112t-87 -71t-109.5 -25q-71 0 -123 29t-85.5 78.5t-50 113.5t-16.5 135zM167 772q2 52 22 82t62 30q22 0 37 -8.5t29 -19.5q14 -12 23.5 -19t15.5 -10t10 -4t8 -1q14 0 22.5 10t9.5 45h53q-2 -55 -24.5 -83.5t-60.5 -28.5
q-20 0 -36 7t-33 21t-30.5 24t-22.5 10q-14 0 -22 -12.5t-10 -42.5h-53z" />
    <glyph glyph-name="Odieresis" unicode="&#xd6;" horiz-adv-x="616" 
d="M115 340q0 -71 15 -124t40.5 -88.5t60.5 -53.5t76 -18t76 18t61 53.5t41 89t15 124.5q0 69 -14 122.5t-39.5 89.5t-61 54.5t-78.5 18.5q-41 0 -76 -18t-60.5 -54t-40.5 -89.5t-15 -124.5zM33 340q0 81 20.5 147t57.5 113t87 72.5t110 25.5q64 0 115 -26t86.5 -73.5
t54.5 -113t19 -144.5q0 -83 -21 -149t-57.5 -112t-87 -71t-109.5 -25q-71 0 -123 29t-85.5 78.5t-50 113.5t-16.5 135zM189 863h88v-87h-88v87zM349 863h88v-87h-88v87z" />
    <glyph glyph-name="multiply" unicode="&#xd7;" horiz-adv-x="566" 
d="M282 218l-165 -165l-46 46l165 165l-165 165l46 46l165 -165l165 165l46 -46l-165 -165l165 -165l-46 -46z" />
    <glyph glyph-name="Oslash" unicode="&#xd8;" horiz-adv-x="616" 
d="M120 65q-45 51 -66 122.5t-21 152.5t20.5 147t57.5 113t87 72.5t110 25.5q74 0 133 -36l46 85l57 -29l-53 -98q45 -48 68.5 -119t23.5 -160q0 -83 -21 -149t-57.5 -112t-87 -71t-109.5 -25q-42 0 -75.5 10t-62.5 28l-50 -92l-57 29zM501 341q0 66 -13 117.5t-37 87.5
l-245 -456q43 -34 101 -34q41 0 76.5 18t61.5 53.5t41 89t15 124.5zM115 340q0 -65 12 -114.5t34 -84.5l244 454q-41 31 -98 31q-41 0 -76 -18t-60.5 -54t-40.5 -89.5t-15 -124.5z" />
    <glyph glyph-name="Ugrave" unicode="&#xd9;" horiz-adv-x="547" 
d="M280 -16q-49 0 -89.5 14t-70 47t-46 87.5t-16.5 136.5v413h80v-425q0 -201 135 -201q77 0 106.5 50t29.5 151v425h79v-411q0 -82 -15 -137t-42 -88.5t-65.5 -47.5t-85.5 -14zM196 887l154 -104l-29 -47l-160 89z" />
    <glyph glyph-name="Uacute" unicode="&#xda;" horiz-adv-x="547" 
d="M280 -16q-49 0 -89.5 14t-70 47t-46 87.5t-16.5 136.5v413h80v-425q0 -201 135 -201q77 0 106.5 50t29.5 151v425h79v-411q0 -82 -15 -137t-42 -88.5t-65.5 -47.5t-85.5 -14zM385 825l-160 -89l-29 47l154 104z" />
    <glyph glyph-name="Ucircumflex" unicode="&#xdb;" horiz-adv-x="547" 
d="M280 -16q-49 0 -89.5 14t-70 47t-46 87.5t-16.5 136.5v413h80v-425q0 -201 135 -201q77 0 106.5 50t29.5 151v425h79v-411q0 -82 -15 -137t-42 -88.5t-65.5 -47.5t-85.5 -14zM408 783l-28 -44l-107 59l-107 -59l-28 44l135 94z" />
    <glyph glyph-name="Udieresis" unicode="&#xdc;" horiz-adv-x="547" 
d="M280 -16q-49 0 -89.5 14t-70 47t-46 87.5t-16.5 136.5v413h80v-425q0 -201 135 -201q77 0 106.5 50t29.5 151v425h79v-411q0 -82 -15 -137t-42 -88.5t-65.5 -47.5t-85.5 -14zM149 863h88v-87h-88v87zM309 863h88v-87h-88v87z" />
    <glyph glyph-name="Yacute" unicode="&#xdd;" horiz-adv-x="458" 
d="M190 277l-184 405h86l108 -242q10 -22 17 -43.5t13 -41.5h2q8 21 15.5 41t17.5 43l102 243h85l-182 -404v-278h-80v277zM341 825l-160 -89l-29 47l154 104z" />
    <glyph glyph-name="Thorn" unicode="&#xde;" horiz-adv-x="486" 
d="M373 349q0 55 -30.5 90t-98.5 35h-94v-246h92q39 0 64 9.5t40 26t21 38.5t6 47zM70 682h80v-134h92q47 0 86 -12t67.5 -36t44.5 -61t16 -88q0 -92 -52.5 -144.5t-167.5 -52.5h-86v-154h-80v682z" />
    <glyph glyph-name="germandbls" unicode="&#xdf;" horiz-adv-x="491" 
d="M201 369q0 29 12 55t49 57q26 22 37 44.5t11 51.5q0 15 -5 30t-15 27t-25 19.5t-36 7.5q-42 0 -66.5 -28t-24.5 -89v-544h-74v545q0 46 12.5 80t34.5 56.5t52.5 33t67.5 10.5q68 0 110 -41.5t42 -110.5q0 -46 -18.5 -77.5t-50.5 -57.5q-18 -14 -30.5 -29.5t-12.5 -37.5
q0 -13 4 -23t14 -19t25.5 -18.5t39.5 -22.5q61 -34 83.5 -72.5t22.5 -90.5q0 -27 -9 -52.5t-27 -45t-45.5 -31.5t-63.5 -12q-66 0 -102 36t-38 98h72q2 -32 18.5 -51t51.5 -19q38 0 54 23.5t16 50.5q0 34 -13.5 56.5t-51.5 44.5q-30 17 -52.5 32t-37.5 31.5t-23 36.5t-8 46z
" />
    <glyph glyph-name="agrave" unicode="&#xe0;" horiz-adv-x="522" 
d="M458 0h-74v70q-23 -34 -58.5 -60t-91.5 -26q-40 0 -77 18t-65 51.5t-44.5 80.5t-16.5 106q0 55 15.5 102t43.5 80.5t66 52.5t82 19q28 0 50.5 -7.5t40.5 -19.5t31.5 -27t23.5 -31v70h74v-479zM107 240q0 -88 40 -138t103 -50q28 0 53 13.5t44.5 38t31 58.5t11.5 75
q0 43 -10.5 78t-29.5 59.5t-44 38t-54 13.5q-31 0 -57.5 -12.5t-46 -36t-30.5 -58t-11 -79.5zM188 726l131 -131l-37 -41l-141 118z" />
    <glyph glyph-name="aacute" unicode="&#xe1;" horiz-adv-x="522" 
d="M458 0h-74v70q-23 -34 -58.5 -60t-91.5 -26q-40 0 -77 18t-65 51.5t-44.5 80.5t-16.5 106q0 55 15.5 102t43.5 80.5t66 52.5t82 19q28 0 50.5 -7.5t40.5 -19.5t31.5 -27t23.5 -31v70h74v-479zM107 240q0 -88 40 -138t103 -50q28 0 53 13.5t44.5 38t31 58.5t11.5 75
q0 43 -10.5 78t-29.5 59.5t-44 38t-54 13.5q-31 0 -57.5 -12.5t-46 -36t-30.5 -58t-11 -79.5zM365 672l-141 -118l-37 41l131 131z" />
    <glyph glyph-name="acircumflex" unicode="&#xe2;" horiz-adv-x="522" 
d="M458 0h-74v70q-23 -34 -58.5 -60t-91.5 -26q-40 0 -77 18t-65 51.5t-44.5 80.5t-16.5 106q0 55 15.5 102t43.5 80.5t66 52.5t82 19q28 0 50.5 -7.5t40.5 -19.5t31.5 -27t23.5 -31v70h74v-479zM107 240q0 -88 40 -138t103 -50q28 0 53 13.5t44.5 38t31 58.5t11.5 75
q0 43 -10.5 78t-29.5 59.5t-44 38t-54 13.5q-31 0 -57.5 -12.5t-46 -36t-30.5 -58t-11 -79.5zM388 599l-34 -40l-101 79l-101 -79l-34 40l135 118z" />
    <glyph glyph-name="atilde" unicode="&#xe3;" horiz-adv-x="522" 
d="M458 0h-74v70q-23 -34 -58.5 -60t-91.5 -26q-40 0 -77 18t-65 51.5t-44.5 80.5t-16.5 106q0 55 15.5 102t43.5 80.5t66 52.5t82 19q28 0 50.5 -7.5t40.5 -19.5t31.5 -27t23.5 -31v70h74v-479zM107 240q0 -88 40 -138t103 -50q28 0 53 13.5t44.5 38t31 58.5t11.5 75
q0 43 -10.5 78t-29.5 59.5t-44 38t-54 13.5q-31 0 -57.5 -12.5t-46 -36t-30.5 -58t-11 -79.5zM107 592q2 52 22 82t62 30q22 0 37 -8.5t29 -19.5q14 -12 23.5 -19t15.5 -10t10 -4t8 -1q14 0 22.5 10t9.5 45h53q-2 -55 -24.5 -83.5t-60.5 -28.5q-20 0 -36 7t-33 21t-30.5 24
t-22.5 10q-14 0 -22 -12.5t-10 -42.5h-53z" />
    <glyph glyph-name="adieresis" unicode="&#xe4;" horiz-adv-x="522" 
d="M458 0h-74v70q-23 -34 -58.5 -60t-91.5 -26q-40 0 -77 18t-65 51.5t-44.5 80.5t-16.5 106q0 55 15.5 102t43.5 80.5t66 52.5t82 19q28 0 50.5 -7.5t40.5 -19.5t31.5 -27t23.5 -31v70h74v-479zM107 240q0 -88 40 -138t103 -50q28 0 53 13.5t44.5 38t31 58.5t11.5 75
q0 43 -10.5 78t-29.5 59.5t-44 38t-54 13.5q-31 0 -57.5 -12.5t-46 -36t-30.5 -58t-11 -79.5zM139 682h88v-87h-88v87zM279 682h88v-87h-88v87z" />
    <glyph glyph-name="aring" unicode="&#xe5;" horiz-adv-x="522" 
d="M458 0h-74v70q-23 -34 -58.5 -60t-91.5 -26q-40 0 -77 18t-65 51.5t-44.5 80.5t-16.5 106q0 55 15.5 102t43.5 80.5t66 52.5t82 19q28 0 50.5 -7.5t40.5 -19.5t31.5 -27t23.5 -31v70h74v-479zM107 240q0 -88 40 -138t103 -50q28 0 53 13.5t44.5 38t31 58.5t11.5 75
q0 43 -10.5 78t-29.5 59.5t-44 38t-54 13.5q-31 0 -57.5 -12.5t-46 -36t-30.5 -58t-11 -79.5zM191 637q0 -26 18.5 -44.5t44.5 -18.5t43.5 18.5t17.5 44.5t-17.5 43.5t-43.5 17.5t-44.5 -17.5t-18.5 -43.5zM146 637q0 22 8.5 41.5t23 33.5t34 22.5t42.5 8.5q45 0 75.5 -30.5
t30.5 -75.5q0 -22 -8.5 -41.5t-22.5 -34.5t-33.5 -23.5t-41.5 -8.5q-23 0 -42.5 8.5t-34 23.5t-23 34.5t-8.5 41.5z" />
    <glyph glyph-name="ae" unicode="&#xe6;" horiz-adv-x="758" 
d="M231 495q108 0 155 -78q24 37 61 57t85 20q54 0 91 -22t60 -57t33.5 -79t10.5 -89q0 -6 -0.5 -15t-1.5 -14h-314q0 -85 35 -125.5t95 -40.5q32 0 57.5 14.5t39.5 43.5h82q-10 -24 -26 -47t-38.5 -40.5t-51.5 -28t-63 -10.5q-125 0 -171 104q-25 -48 -74.5 -76.5
t-108.5 -28.5q-42 0 -71.5 13t-47.5 33.5t-26 47t-8 53.5q0 77 60.5 115t168.5 38h78v32q0 51 -27 81.5t-75 30.5q-49 0 -77 -19t-32 -51h-76q1 25 13 50t34.5 44.5t55 31.5t74.5 12zM651 283q-2 61 -33 102t-88 41q-26 0 -47.5 -11t-37.5 -30t-25 -45.5t-9 -56.5h240z
M265 218q-79 0 -115 -24t-36 -66q0 -21 7.5 -35.5t19.5 -23.5t27 -13t30 -4q35 0 62 14t45 37.5t27 53t9 61.5h-76z" />
    <glyph glyph-name="ccedilla" unicode="&#xe7;" horiz-adv-x="467" 
d="M248 496q43 0 75.5 -13.5t55 -34.5t36 -45t19.5 -45h-83q-11 31 -36.5 50.5t-65.5 19.5q-27 0 -53 -11.5t-45.5 -35t-31.5 -59t-12 -82.5q0 -41 10.5 -75.5t29.5 -59.5t45.5 -39t57.5 -14q23 0 40.5 7t30.5 18t21.5 25.5t14.5 29.5h83q-9 -26 -23.5 -51.5t-37 -46.5
t-52 -35t-68.5 -15l-11 -28q42 -6 64 -28.5t22 -57.5q0 -45 -35 -70t-86 -25q-22 0 -42.5 4t-38.5 11l18 48q11 -5 28 -8t36 -3q28 0 42.5 13t14.5 32q0 21 -20.5 36.5t-64.5 15.5l26 64q-38 7 -71 27.5t-57.5 53t-38.5 76t-14 96.5q0 52 15 98.5t43.5 81.5t68.5 55t90 20z
" />
    <glyph glyph-name="egrave" unicode="&#xe8;" horiz-adv-x="469" 
d="M239 494q54 0 92 -22t62 -57.5t34.5 -79.5t10.5 -89q0 -6 -0.5 -15t-1.5 -14h-329q2 -36 13.5 -66.5t30 -52.5t43 -34t52.5 -12q35 0 61.5 14.5t41.5 43.5h82q-10 -24 -26 -47t-38.5 -40.5t-51.5 -28t-65 -10.5q-49 0 -89.5 18t-69 51.5t-44.5 82t-16 110.5
q0 57 16.5 102.5t44.5 78t66 50t81 17.5zM362 282q-1 30 -10 56.5t-25 46t-38.5 30.5t-51.5 11t-51.5 -13t-39 -33.5t-26.5 -46t-12 -51.5h254zM175 726l131 -131l-37 -41l-141 118z" />
    <glyph glyph-name="eacute" unicode="&#xe9;" horiz-adv-x="469" 
d="M239 494q54 0 92 -22t62 -57.5t34.5 -79.5t10.5 -89q0 -6 -0.5 -15t-1.5 -14h-329q2 -36 13.5 -66.5t30 -52.5t43 -34t52.5 -12q35 0 61.5 14.5t41.5 43.5h82q-10 -24 -26 -47t-38.5 -40.5t-51.5 -28t-65 -10.5q-49 0 -89.5 18t-69 51.5t-44.5 82t-16 110.5
q0 57 16.5 102.5t44.5 78t66 50t81 17.5zM362 282q-1 30 -10 56.5t-25 46t-38.5 30.5t-51.5 11t-51.5 -13t-39 -33.5t-26.5 -46t-12 -51.5h254zM352 672l-141 -118l-37 41l131 131z" />
    <glyph glyph-name="ecircumflex" unicode="&#xea;" horiz-adv-x="469" 
d="M239 494q54 0 92 -22t62 -57.5t34.5 -79.5t10.5 -89q0 -6 -0.5 -15t-1.5 -14h-329q2 -36 13.5 -66.5t30 -52.5t43 -34t52.5 -12q35 0 61.5 14.5t41.5 43.5h82q-10 -24 -26 -47t-38.5 -40.5t-51.5 -28t-65 -10.5q-49 0 -89.5 18t-69 51.5t-44.5 82t-16 110.5
q0 57 16.5 102.5t44.5 78t66 50t81 17.5zM362 282q-1 30 -10 56.5t-25 46t-38.5 30.5t-51.5 11t-51.5 -13t-39 -33.5t-26.5 -46t-12 -51.5h254zM375 599l-34 -40l-101 79l-101 -79l-34 40l135 118z" />
    <glyph glyph-name="edieresis" unicode="&#xeb;" horiz-adv-x="469" 
d="M239 494q54 0 92 -22t62 -57.5t34.5 -79.5t10.5 -89q0 -6 -0.5 -15t-1.5 -14h-329q2 -36 13.5 -66.5t30 -52.5t43 -34t52.5 -12q35 0 61.5 14.5t41.5 43.5h82q-10 -24 -26 -47t-38.5 -40.5t-51.5 -28t-65 -10.5q-49 0 -89.5 18t-69 51.5t-44.5 82t-16 110.5
q0 57 16.5 102.5t44.5 78t66 50t81 17.5zM362 282q-1 30 -10 56.5t-25 46t-38.5 30.5t-51.5 11t-51.5 -13t-39 -33.5t-26.5 -46t-12 -51.5h254zM126 682h88v-87h-88v87zM266 682h88v-87h-88v87z" />
    <glyph glyph-name="igrave" unicode="&#xec;" horiz-adv-x="201" 
d="M64 479h73v-479h-73v479zM35 726l131 -131l-37 -41l-141 118z" />
    <glyph glyph-name="iacute" unicode="&#xed;" horiz-adv-x="201" 
d="M64 479h73v-479h-73v479zM212 672l-141 -118l-37 41l131 131z" />
    <glyph glyph-name="icircumflex" unicode="&#xee;" horiz-adv-x="201" 
d="M64 479h73v-479h-73v479zM235 599l-34 -40l-101 79l-101 -79l-34 40l135 118z" />
    <glyph glyph-name="idieresis" unicode="&#xef;" horiz-adv-x="201" 
d="M64 479h73v-479h-73v479zM-14 682h88v-87h-88v87zM126 682h88v-87h-88v87z" />
    <glyph glyph-name="eth" unicode="&#xf0;" horiz-adv-x="499" 
d="M143 581l91 53q-23 24 -45 45t-48 41h92q15 -13 29 -25.5t28 -26.5l87 52l33 -55l-76 -45q64 -88 99 -182t35 -198q0 -61 -17 -108.5t-47 -80.5t-70 -50t-85 -17q-48 0 -88.5 19.5t-69 54t-44.5 81.5t-16 101q0 55 16 102t44.5 80.5t69 52.5t88.5 19q25 0 52 -8t48 -26
l2 2q-12 28 -33 62t-42 60l-100 -58zM107 240q0 -41 10.5 -75t29.5 -59t45 -38.5t57 -13.5q65 0 103.5 49t38.5 137q0 83 -36.5 134t-105.5 51q-34 0 -60.5 -14t-44.5 -38.5t-27.5 -58.5t-9.5 -74z" />
    <glyph glyph-name="ntilde" unicode="&#xf1;" horiz-adv-x="484" 
d="M64 479h74v-66q28 47 63 64t68 17q27 0 55 -11t50.5 -36t37 -66t14.5 -102v-279h-74v274q0 75 -26 113t-73 38q-54 0 -84.5 -42.5t-30.5 -127.5v-255h-74v479zM102 592q2 52 22 82t62 30q22 0 37 -8.5t29 -19.5q14 -12 23.5 -19t15.5 -10t10 -4t8 -1q14 0 22.5 10t9.5 45
h53q-2 -55 -24.5 -83.5t-60.5 -28.5q-20 0 -36 7t-33 21t-30.5 24t-22.5 10q-14 0 -22 -12.5t-10 -42.5h-53z" />
    <glyph glyph-name="ograve" unicode="&#xf2;" horiz-adv-x="499" 
d="M31 240q0 55 16 102t44.5 80.5t69 52.5t88.5 19q50 0 90.5 -19.5t69 -53.5t44 -80.5t15.5 -100.5q0 -53 -15.5 -99.5t-44.5 -81.5t-69.5 -55t-89.5 -20q-48 0 -88.5 19.5t-69 54t-44.5 81.5t-16 101zM107 240q0 -41 10.5 -75t29.5 -59t45 -38.5t57 -13.5q33 0 59.5 14
t45 39t28 59t9.5 74q0 38 -9.5 72t-27.5 59t-44.5 39.5t-60.5 14.5t-60.5 -14t-44.5 -38.5t-27.5 -58.5t-9.5 -74zM187 726l131 -131l-37 -41l-141 118z" />
    <glyph glyph-name="oacute" unicode="&#xf3;" horiz-adv-x="499" 
d="M31 240q0 55 16 102t44.5 80.5t69 52.5t88.5 19q50 0 90.5 -19.5t69 -53.5t44 -80.5t15.5 -100.5q0 -53 -15.5 -99.5t-44.5 -81.5t-69.5 -55t-89.5 -20q-48 0 -88.5 19.5t-69 54t-44.5 81.5t-16 101zM107 240q0 -41 10.5 -75t29.5 -59t45 -38.5t57 -13.5q33 0 59.5 14
t45 39t28 59t9.5 74q0 38 -9.5 72t-27.5 59t-44.5 39.5t-60.5 14.5t-60.5 -14t-44.5 -38.5t-27.5 -58.5t-9.5 -74zM358 672l-141 -118l-37 41l131 131z" />
    <glyph glyph-name="ocircumflex" unicode="&#xf4;" horiz-adv-x="499" 
d="M31 240q0 55 16 102t44.5 80.5t69 52.5t88.5 19q50 0 90.5 -19.5t69 -53.5t44 -80.5t15.5 -100.5q0 -53 -15.5 -99.5t-44.5 -81.5t-69.5 -55t-89.5 -20q-48 0 -88.5 19.5t-69 54t-44.5 81.5t-16 101zM107 240q0 -41 10.5 -75t29.5 -59t45 -38.5t57 -13.5q33 0 59.5 14
t45 39t28 59t9.5 74q0 38 -9.5 72t-27.5 59t-44.5 39.5t-60.5 14.5t-60.5 -14t-44.5 -38.5t-27.5 -58.5t-9.5 -74zM384 599l-34 -40l-101 79l-101 -79l-34 40l135 118z" />
    <glyph glyph-name="otilde" unicode="&#xf5;" horiz-adv-x="499" 
d="M31 240q0 55 16 102t44.5 80.5t69 52.5t88.5 19q50 0 90.5 -19.5t69 -53.5t44 -80.5t15.5 -100.5q0 -53 -15.5 -99.5t-44.5 -81.5t-69.5 -55t-89.5 -20q-48 0 -88.5 19.5t-69 54t-44.5 81.5t-16 101zM107 240q0 -41 10.5 -75t29.5 -59t45 -38.5t57 -13.5q33 0 59.5 14
t45 39t28 59t9.5 74q0 38 -9.5 72t-27.5 59t-44.5 39.5t-60.5 14.5t-60.5 -14t-44.5 -38.5t-27.5 -58.5t-9.5 -74zM103 592q2 52 22 82t62 30q22 0 37 -8.5t29 -19.5q14 -12 23.5 -19t15.5 -10t10 -4t8 -1q14 0 22.5 10t9.5 45h53q-2 -55 -24.5 -83.5t-60.5 -28.5
q-20 0 -36 7t-33 21t-30.5 24t-22.5 10q-14 0 -22 -12.5t-10 -42.5h-53z" />
    <glyph glyph-name="odieresis" unicode="&#xf6;" horiz-adv-x="499" 
d="M31 240q0 55 16 102t44.5 80.5t69 52.5t88.5 19q50 0 90.5 -19.5t69 -53.5t44 -80.5t15.5 -100.5q0 -53 -15.5 -99.5t-44.5 -81.5t-69.5 -55t-89.5 -20q-48 0 -88.5 19.5t-69 54t-44.5 81.5t-16 101zM107 240q0 -41 10.5 -75t29.5 -59t45 -38.5t57 -13.5q33 0 59.5 14
t45 39t28 59t9.5 74q0 38 -9.5 72t-27.5 59t-44.5 39.5t-60.5 14.5t-60.5 -14t-44.5 -38.5t-27.5 -58.5t-9.5 -74zM135 682h88v-87h-88v87zM275 682h88v-87h-88v87z" />
    <glyph glyph-name="divide" unicode="&#xf7;" horiz-adv-x="566" 
d="M336 455q0 -25 -16 -39t-37 -14q-22 0 -37.5 15.5t-15.5 36.5q0 23 15 38.5t38 15.5t38 -15t15 -38zM336 75q0 -24 -16 -39.5t-37 -15.5q-22 0 -37.5 16.5t-15.5 37.5q0 22 15 37.5t38 15.5t38 -15t15 -37zM52 229v70h462v-70h-462z" />
    <glyph glyph-name="oslash" unicode="&#xf8;" horiz-adv-x="499" 
d="M84 -52l36 82q-42 34 -65.5 88.5t-23.5 121.5q0 55 16 102t44.5 80.5t69 52.5t88.5 19q39 0 72 -12l34 73l59 -26l-36 -79q42 -34 66 -88t24 -122q0 -53 -15.5 -99.5t-44.5 -81.5t-69.5 -55t-89.5 -20q-20 0 -38 3.5t-35 9.5l-33 -75zM107 240q0 -43 11.5 -78.5
t32.5 -60.5l142 316q-21 8 -44 8q-34 0 -60.5 -14t-44.5 -38.5t-27.5 -58.5t-9.5 -74zM391 240q0 42 -11 78t-33 62l-143 -318q22 -8 45 -8q33 0 59.5 14t45 39t28 59t9.5 74z" />
    <glyph glyph-name="ugrave" unicode="&#xf9;" horiz-adv-x="484" 
d="M420 0h-74v66q-28 -47 -63 -64t-68 -17q-27 0 -55 11t-50.5 36t-37 66t-14.5 102v279h74v-274q0 -75 26 -112.5t73 -37.5q54 0 84.5 42t30.5 127v255h74v-479zM177 726l131 -131l-37 -41l-141 118z" />
    <glyph glyph-name="uacute" unicode="&#xfa;" horiz-adv-x="484" 
d="M420 0h-74v66q-28 -47 -63 -64t-68 -17q-27 0 -55 11t-50.5 36t-37 66t-14.5 102v279h74v-274q0 -75 26 -112.5t73 -37.5q54 0 84.5 42t30.5 127v255h74v-479zM354 672l-141 -118l-37 41l131 131z" />
    <glyph glyph-name="ucircumflex" unicode="&#xfb;" horiz-adv-x="484" 
d="M420 0h-74v66q-28 -47 -63 -64t-68 -17q-27 0 -55 11t-50.5 36t-37 66t-14.5 102v279h74v-274q0 -75 26 -112.5t73 -37.5q54 0 84.5 42t30.5 127v255h74v-479zM377 599l-34 -40l-101 79l-101 -79l-34 40l135 118z" />
    <glyph glyph-name="udieresis" unicode="&#xfc;" horiz-adv-x="484" 
d="M420 0h-74v66q-28 -47 -63 -64t-68 -17q-27 0 -55 11t-50.5 36t-37 66t-14.5 102v279h74v-274q0 -75 26 -112.5t73 -37.5q54 0 84.5 42t30.5 127v255h74v-479zM128 682h88v-87h-88v87zM268 682h88v-87h-88v87z" />
    <glyph glyph-name="yacute" unicode="&#xfd;" horiz-adv-x="393" 
d="M169 0l-167 479h79l74 -223q10 -29 24 -72t25 -89h2q6 29 18.5 72.5t24.5 88.5l61 223h78l-214 -714h-74zM308 672l-141 -118l-37 41l131 131z" />
    <glyph glyph-name="thorn" unicode="&#xfe;" horiz-adv-x="522" 
d="M64 720h74v-312q22 34 58 60t92 26q40 0 77 -18t65 -51.5t44.5 -81t16.5 -105.5q0 -56 -16 -102.5t-43.5 -80t-65.5 -52.5t-82 -19q-28 0 -50.5 7.5t-40.5 19.5t-31.5 27t-23.5 31v-304h-74v955zM415 238q0 91 -40.5 139.5t-102.5 48.5q-28 0 -53 -13.5t-44.5 -38
t-31 -58.5t-11.5 -75q0 -43 10.5 -78t29.5 -59.5t44 -38t54 -13.5q31 0 57.5 12t46 35.5t30.5 58t11 80.5z" />
    <glyph glyph-name="ydieresis" unicode="&#xff;" horiz-adv-x="393" 
d="M169 0l-167 479h79l74 -223q10 -29 24 -72t25 -89h2q6 29 18.5 72.5t24.5 88.5l61 223h78l-214 -714h-74zM82 682h88v-87h-88v87zM222 682h88v-87h-88v87z" />
    <glyph glyph-name="Amacron" unicode="&#x100;" horiz-adv-x="534" 
d="M234 682h73l225 -682h-87l-56 185h-245l-59 -185h-83zM166 258h200l-59 194q-8 28 -19 64.5t-19 66.5h-4q-8 -32 -18 -67.5t-19 -64.5zM131 788v59h278v-59h-278z" />
    <glyph glyph-name="amacron" unicode="&#x101;" horiz-adv-x="522" 
d="M458 0h-74v70q-23 -34 -58.5 -60t-91.5 -26q-40 0 -77 18t-65 51.5t-44.5 80.5t-16.5 106q0 55 15.5 102t43.5 80.5t66 52.5t82 19q28 0 50.5 -7.5t40.5 -19.5t31.5 -27t23.5 -31v70h74v-479zM107 240q0 -88 40 -138t103 -50q28 0 53 13.5t44.5 38t31 58.5t11.5 75
q0 43 -10.5 78t-29.5 59.5t-44 38t-54 13.5q-31 0 -57.5 -12.5t-46 -36t-30.5 -58t-11 -79.5zM114 609v59h258v-59h-258z" />
    <glyph glyph-name="Abreve" unicode="&#x102;" horiz-adv-x="534" 
d="M234 682h73l225 -682h-87l-56 185h-245l-59 -185h-83zM166 258h200l-59 194q-8 28 -19 64.5t-19 66.5h-4q-8 -32 -18 -67.5t-19 -64.5zM416 879q-2 -28 -13 -52t-30 -42t-45 -28t-58 -10q-33 0 -59 10t-45 28t-30 42t-12 52h61q2 -29 24.5 -50.5t60.5 -21.5t60.5 21.5
t24.5 50.5h61z" />
    <glyph glyph-name="abreve" unicode="&#x103;" horiz-adv-x="522" 
d="M458 0h-74v70q-23 -34 -58.5 -60t-91.5 -26q-40 0 -77 18t-65 51.5t-44.5 80.5t-16.5 106q0 55 15.5 102t43.5 80.5t66 52.5t82 19q28 0 50.5 -7.5t40.5 -19.5t31.5 -27t23.5 -31v70h74v-479zM107 240q0 -88 40 -138t103 -50q28 0 53 13.5t44.5 38t31 58.5t11.5 75
q0 43 -10.5 78t-29.5 59.5t-44 38t-54 13.5q-31 0 -57.5 -12.5t-46 -36t-30.5 -58t-11 -79.5zM399 714q-2 -32 -13 -58.5t-30 -46.5t-45 -31t-58 -11q-33 0 -59 11t-45 31t-30 46.5t-12 58.5h61q2 -37 24.5 -62t60.5 -25t60.5 25t24.5 62h61z" />
    <glyph glyph-name="Aogonek" unicode="&#x104;" horiz-adv-x="534" 
d="M534 -205q-12 -2 -24 -3.5t-22 -1.5q-60 0 -84.5 27.5t-24.5 70.5q0 28 19 60t52 52h-5l-56 185h-245l-59 -185h-83l232 682h73l225 -682q-16 0 -31.5 -9t-27.5 -23t-19.5 -32.5t-7.5 -37.5q0 -18 12 -33.5t38 -15.5q8 0 17 1t21 3v-58zM166 258h200l-59 194
q-8 28 -18 64.5t-18 66.5h-4q-8 -32 -19 -67.5t-20 -64.5z" />
    <glyph glyph-name="aogonek" unicode="&#x105;" horiz-adv-x="522" 
d="M458 -205q-12 -2 -24 -3.5t-22 -1.5q-58 0 -83.5 27.5t-25.5 70.5q0 30 21.5 62.5t63.5 49.5h-4v70q-23 -34 -58.5 -60t-91.5 -26q-40 0 -77 18t-65 51.5t-44.5 80.5t-16.5 106q0 55 15.5 102t43.5 80.5t66 52.5t82 19q28 0 50.5 -7.5t40.5 -19.5t31.5 -27t23.5 -31v70
h74v-479q-14 -3 -29.5 -11.5t-28.5 -22t-21.5 -30.5t-8.5 -38t12 -35t38 -14q8 0 17 1t21 3v-58zM107 240q0 -88 40 -138t103 -50q28 0 53 13.5t44.5 38t31 58.5t11.5 75q0 43 -10.5 78t-29.5 59.5t-44 38t-54 13.5q-31 0 -57.5 -12.5t-46 -36t-30.5 -58t-11 -79.5z" />
    <glyph glyph-name="Cacute" unicode="&#x106;" horiz-adv-x="580" 
d="M301 698q53 0 94 -15.5t70 -42t46 -61.5t23 -74h-84q-10 57 -49.5 89t-102.5 32q-38 0 -71 -17.5t-58 -52.5t-39.5 -88.5t-14.5 -125.5q0 -66 13.5 -119t38.5 -90t59 -57t75 -20q57 0 101 32t56 102h84q-20 -105 -82.5 -155.5t-157.5 -50.5q-60 0 -110 24t-85 69.5
t-54.5 112.5t-19.5 153q0 81 20 146.5t56 112t85 71.5t107 25zM413 825l-160 -89l-29 47l154 104z" />
    <glyph glyph-name="cacute" unicode="&#x107;" horiz-adv-x="467" 
d="M248 494q43 0 75.5 -13.5t55 -33.5t36 -44t19.5 -45h-83q-11 31 -36.5 49.5t-65.5 18.5q-27 0 -53 -11.5t-45.5 -34.5t-31.5 -58t-12 -82q0 -41 10.5 -75.5t29.5 -59.5t45.5 -39t57.5 -14q46 0 71 24t36 54h83q-9 -26 -24 -52t-38 -47t-54.5 -34t-71.5 -13
q-45 0 -85 17.5t-70 51t-48 81t-18 107.5q0 52 15 98.5t43.5 80.5t68.5 54t90 20zM346 672l-141 -118l-37 41l131 131z" />
    <glyph glyph-name="Ccircumflex" unicode="&#x108;" horiz-adv-x="580" 
d="M301 698q53 0 94 -15.5t70 -42t46 -61.5t23 -74h-84q-10 57 -49.5 89t-102.5 32q-38 0 -71 -17.5t-58 -52.5t-39.5 -88.5t-14.5 -125.5q0 -66 13.5 -119t38.5 -90t59 -57t75 -20q57 0 101 32t56 102h84q-20 -105 -82.5 -155.5t-157.5 -50.5q-60 0 -110 24t-85 69.5
t-54.5 112.5t-19.5 153q0 81 20 146.5t56 112t85 71.5t107 25zM440 783l-28 -44l-107 59l-107 -59l-28 44l135 94z" />
    <glyph glyph-name="ccircumflex" unicode="&#x109;" horiz-adv-x="467" 
d="M248 494q43 0 75.5 -13.5t55 -33.5t36 -44t19.5 -45h-83q-11 31 -36.5 49.5t-65.5 18.5q-27 0 -53 -11.5t-45.5 -34.5t-31.5 -58t-12 -82q0 -41 10.5 -75.5t29.5 -59.5t45.5 -39t57.5 -14q46 0 71 24t36 54h83q-9 -26 -24 -52t-38 -47t-54.5 -34t-71.5 -13
q-45 0 -85 17.5t-70 51t-48 81t-18 107.5q0 52 15 98.5t43.5 80.5t68.5 54t90 20zM379 599l-34 -40l-101 79l-101 -79l-34 40l135 118z" />
    <glyph glyph-name="Cdotaccent" unicode="&#x10a;" horiz-adv-x="580" 
d="M301 698q53 0 94 -15.5t70 -42t46 -61.5t23 -74h-84q-10 57 -49.5 89t-102.5 32q-38 0 -71 -17.5t-58 -52.5t-39.5 -88.5t-14.5 -125.5q0 -66 13.5 -119t38.5 -90t59 -57t75 -20q57 0 101 32t56 102h84q-20 -105 -82.5 -155.5t-157.5 -50.5q-60 0 -110 24t-85 69.5
t-54.5 112.5t-19.5 153q0 81 20 146.5t56 112t85 71.5t107 25zM257 866h88v-87h-88v87z" />
    <glyph glyph-name="cdotaccent" unicode="&#x10b;" horiz-adv-x="467" 
d="M248 494q43 0 75.5 -13.5t55 -33.5t36 -44t19.5 -45h-83q-11 31 -36.5 49.5t-65.5 18.5q-27 0 -53 -11.5t-45.5 -34.5t-31.5 -58t-12 -82q0 -41 10.5 -75.5t29.5 -59.5t45.5 -39t57.5 -14q46 0 71 24t36 54h83q-9 -26 -24 -52t-38 -47t-54.5 -34t-71.5 -13
q-45 0 -85 17.5t-70 51t-48 81t-18 107.5q0 52 15 98.5t43.5 80.5t68.5 54t90 20zM206 684h88v-87h-88v87z" />
    <glyph glyph-name="Ccaron" unicode="&#x10c;" horiz-adv-x="580" 
d="M301 698q53 0 94 -15.5t70 -42t46 -61.5t23 -74h-84q-10 57 -49.5 89t-102.5 32q-38 0 -71 -17.5t-58 -52.5t-39.5 -88.5t-14.5 -125.5q0 -66 13.5 -119t38.5 -90t59 -57t75 -20q57 0 101 32t56 102h84q-20 -105 -82.5 -155.5t-157.5 -50.5q-60 0 -110 24t-85 69.5
t-54.5 112.5t-19.5 153q0 81 20 146.5t56 112t85 71.5t107 25zM165 833l28 44l107 -59l107 59l28 -44l-135 -94z" />
    <glyph glyph-name="ccaron" unicode="&#x10d;" horiz-adv-x="467" 
d="M248 494q43 0 75.5 -13.5t55 -33.5t36 -44t19.5 -45h-83q-11 31 -36.5 49.5t-65.5 18.5q-27 0 -53 -11.5t-45.5 -34.5t-31.5 -58t-12 -82q0 -41 10.5 -75.5t29.5 -59.5t45.5 -39t57.5 -14q46 0 71 24t36 54h83q-9 -26 -24 -52t-38 -47t-54.5 -34t-71.5 -13
q-45 0 -85 17.5t-70 51t-48 81t-18 107.5q0 52 15 98.5t43.5 80.5t68.5 54t90 20zM104 677l34 40l101 -79l101 79l34 -40l-135 -118z" />
    <glyph glyph-name="Dcaron" unicode="&#x10e;" horiz-adv-x="584" 
d="M265 74q45 0 82 15t64 47.5t42 83.5t15 122q0 69 -14.5 119.5t-41 83t-64 48t-83.5 15.5h-115v-534h115zM70 0v682h196q68 0 121 -23.5t89.5 -67.5t55.5 -107t19 -142q0 -83 -21 -146.5t-58.5 -107t-90 -66t-115.5 -22.5h-196zM116 833l28 44l107 -59l107 59l28 -44
l-135 -94z" />
    <glyph glyph-name="dcaron" unicode="&#x10f;" horiz-adv-x="584" 
d="M458 0h-74v70q-23 -37 -58.5 -61.5t-91.5 -24.5q-40 0 -77 18t-65 51.5t-44.5 80.5t-16.5 106q0 55 15.5 102t43.5 80.5t66 52.5t82 19q28 0 50.5 -7.5t40.5 -19.5t31.5 -27t23.5 -31v311h74v-720zM107 240q0 -89 40 -138.5t103 -49.5q28 0 53 13.5t44.5 38t31 58.5
t11.5 75q0 43 -10.5 78t-29.5 59.5t-44 38t-54 13.5q-69 0 -107 -51t-38 -135zM506 720h88v-65q0 -32 -10 -57.5t-20 -36.5h-45q20 32 23 72h-36v87z" />
    <glyph glyph-name="Dcroat" unicode="&#x110;" horiz-adv-x="604" 
d="M90 0v317h-75v74h75v291h196q68 0 121 -23.5t89.5 -67.5t55.5 -107t19 -142q0 -83 -21 -146.5t-58.5 -107t-90 -66t-115.5 -22.5h-196zM285 74q45 0 82 15t64 47.5t42 83.5t15 122q0 69 -14.5 119.5t-41 83t-64 48t-83.5 15.5h-115v-217h160v-74h-160v-243h115z" />
    <glyph glyph-name="dcroat" unicode="&#x111;" horiz-adv-x="522" 
d="M458 579v-579h-74v70q-23 -37 -58.5 -61.5t-91.5 -24.5q-40 0 -77 18t-65 51.5t-44.5 80.5t-16.5 106q0 55 15.5 102t43.5 80.5t66 52.5t82 19q28 0 50.5 -7.5t40.5 -19.5t31.5 -27t23.5 -31v170h-160v59h160v82h74v-82h64v-59h-64zM107 240q0 -89 40 -138.5t103 -49.5
q28 0 53 13.5t44.5 38t31 58.5t11.5 75q0 43 -10.5 78t-29.5 59.5t-44 38t-54 13.5q-69 0 -107 -51t-38 -135z" />
    <glyph glyph-name="Emacron" unicode="&#x112;" horiz-adv-x="441" 
d="M385 608h-236v-218h226v-74h-226v-242h244v-74h-324v682h316v-74zM88 788v59h278v-59h-278z" />
    <glyph glyph-name="emacron" unicode="&#x113;" horiz-adv-x="469" 
d="M239 494q54 0 92 -22t62 -57.5t34.5 -79.5t10.5 -89q0 -6 -0.5 -15t-1.5 -14h-329q2 -36 13.5 -66.5t30 -52.5t43 -34t52.5 -12q35 0 61.5 14.5t41.5 43.5h82q-10 -24 -26 -47t-38.5 -40.5t-51.5 -28t-65 -10.5q-49 0 -89.5 18t-69 51.5t-44.5 82t-16 110.5
q0 57 16.5 102.5t44.5 78t66 50t81 17.5zM362 282q-1 30 -10 56.5t-25 46t-38.5 30.5t-51.5 11t-51.5 -13t-39 -33.5t-26.5 -46t-12 -51.5h254zM106 609v59h258v-59h-258z" />
    <glyph glyph-name="Ebreve" unicode="&#x114;" horiz-adv-x="441" 
d="M385 608h-236v-218h226v-74h-226v-242h244v-74h-324v682h316v-74zM373 879q-2 -28 -13 -52t-30 -42t-45 -28t-58 -10q-33 0 -59 10t-45 28t-30 42t-12 52h61q2 -29 24.5 -50.5t60.5 -21.5t60.5 21.5t24.5 50.5h61z" />
    <glyph glyph-name="ebreve" unicode="&#x115;" horiz-adv-x="469" 
d="M239 494q54 0 92 -22t62 -57.5t34.5 -79.5t10.5 -89q0 -6 -0.5 -15t-1.5 -14h-329q2 -36 13.5 -66.5t30 -52.5t43 -34t52.5 -12q35 0 61.5 14.5t41.5 43.5h82q-10 -24 -26 -47t-38.5 -40.5t-51.5 -28t-65 -10.5q-49 0 -89.5 18t-69 51.5t-44.5 82t-16 110.5
q0 57 16.5 102.5t44.5 78t66 50t81 17.5zM362 282q-1 30 -10 56.5t-25 46t-38.5 30.5t-51.5 11t-51.5 -13t-39 -33.5t-26.5 -46t-12 -51.5h254zM381 714q-2 -32 -13 -58.5t-30 -46.5t-45 -31t-58 -11q-33 0 -59 11t-45 31t-30 46.5t-12 58.5h61q2 -37 24.5 -62t60.5 -25
t60.5 25t24.5 62h61z" />
    <glyph glyph-name="Edotaccent" unicode="&#x116;" horiz-adv-x="441" 
d="M385 608h-236v-218h226v-74h-226v-242h244v-74h-324v682h316v-74zM183 866h88v-87h-88v87z" />
    <glyph glyph-name="edotaccent" unicode="&#x117;" horiz-adv-x="469" 
d="M239 494q54 0 92 -22t62 -57.5t34.5 -79.5t10.5 -89q0 -6 -0.5 -15t-1.5 -14h-329q2 -36 13.5 -66.5t30 -52.5t43 -34t52.5 -12q35 0 61.5 14.5t41.5 43.5h82q-10 -24 -26 -47t-38.5 -40.5t-51.5 -28t-65 -10.5q-49 0 -89.5 18t-69 51.5t-44.5 82t-16 110.5
q0 57 16.5 102.5t44.5 78t66 50t81 17.5zM362 282q-1 30 -10 56.5t-25 46t-38.5 30.5t-51.5 11t-51.5 -13t-39 -33.5t-26.5 -46t-12 -51.5h254zM193 684h88v-87h-88v87z" />
    <glyph glyph-name="Eogonek" unicode="&#x118;" horiz-adv-x="441" 
d="M375 -205q-12 -2 -24 -3.5t-22 -1.5q-60 0 -84.5 27.5t-24.5 70.5q0 28 18 60t53 52h-222v682h316v-74h-236v-218h226v-74h-226v-242h244v-74h-16q-39 0 -64.5 -28.5t-25.5 -73.5q0 -18 12 -33.5t38 -15.5q8 0 17 1t21 3v-58z" />
    <glyph glyph-name="eogonek" unicode="&#x119;" horiz-adv-x="469" 
d="M345 -205q-12 -2 -24 -3.5t-22 -1.5q-60 0 -84.5 27.5t-24.5 70.5q0 23 13 49t37 47q-95 4 -152 72.5t-57 189.5q0 57 16.5 102.5t44.5 78t66 50t81 17.5q54 0 92 -22t62 -57t34.5 -79.5t10.5 -89.5q0 -6 -0.5 -15t-1.5 -14h-329q2 -36 13.5 -66.5t30 -52.5t43 -34
t52.5 -12q35 0 61.5 14.5t41.5 43.5h82q-11 -28 -30.5 -53.5t-47.5 -43.5q-17 -11 -31.5 -18.5t-26.5 -17.5q-17 -13 -27.5 -31.5t-10.5 -47.5q0 -18 12 -33.5t38 -15.5q8 0 17 1t21 3v-58zM237 426q-29 0 -51.5 -13t-39 -33.5t-26.5 -46t-12 -51.5h254q-1 30 -10 56.5
t-25 46t-38.5 30.5t-51.5 11z" />
    <glyph glyph-name="Ecaron" unicode="&#x11a;" horiz-adv-x="441" 
d="M385 608h-236v-218h226v-74h-226v-242h244v-74h-324v682h316v-74zM92 833l28 44l107 -59l107 59l28 -44l-135 -94z" />
    <glyph glyph-name="ecaron" unicode="&#x11b;" horiz-adv-x="469" 
d="M239 494q54 0 92 -22t62 -57.5t34.5 -79.5t10.5 -89q0 -6 -0.5 -15t-1.5 -14h-329q2 -36 13.5 -66.5t30 -52.5t43 -34t52.5 -12q35 0 61.5 14.5t41.5 43.5h82q-10 -24 -26 -47t-38.5 -40.5t-51.5 -28t-65 -10.5q-49 0 -89.5 18t-69 51.5t-44.5 82t-16 110.5
q0 57 16.5 102.5t44.5 78t66 50t81 17.5zM362 282q-1 30 -10 56.5t-25 46t-38.5 30.5t-51.5 11t-51.5 -13t-39 -33.5t-26.5 -46t-12 -51.5h254zM100 677l34 40l101 -79l101 79l34 -40l-135 -118z" />
    <glyph glyph-name="Gcircumflex" unicode="&#x11c;" horiz-adv-x="602" 
d="M570 363v-8q0 -176 -65 -273.5t-193 -97.5q-67 0 -119 26t-87.5 73t-54 112.5t-18.5 145.5q0 82 20 148t56.5 112.5t87.5 71.5t112 25q48 0 89.5 -12.5t74 -37t53 -60t26.5 -81.5h-82q-8 56 -49 87.5t-104 31.5q-97 0 -149.5 -73t-52.5 -205q0 -75 14.5 -130t40.5 -91
t62 -53.5t80 -17.5q82 0 127.5 62t48.5 171h-203v74h285zM444 783l-28 -44l-107 59l-107 -59l-28 44l135 94z" />
    <glyph glyph-name="gcircumflex" unicode="&#x11d;" horiz-adv-x="522" 
d="M458 -6q0 -130 -56.5 -190t-158.5 -60q-42 0 -77 14.5t-60 39t-39.5 57.5t-16.5 71h74q1 -23 10 -44t24.5 -36.5t38.5 -24.5t52 -9q65 0 100 39t35 133v88q-23 -36 -60.5 -62t-89.5 -26q-41 0 -77.5 18t-64.5 51.5t-44.5 80.5t-16.5 106q0 55 15.5 102t42.5 80.5t64 52.5
t80 19q30 0 53.5 -7.5t42 -20t32 -28.5t23.5 -34v75h74v-485zM106 240q0 -40 10 -74t28.5 -59.5t45 -40t59.5 -14.5q28 0 54 13.5t45 38t30.5 58.5t11.5 75q0 43 -11 78t-29.5 59.5t-44 38t-54.5 13.5q-34 0 -61 -14.5t-45.5 -39.5t-28.5 -59t-10 -73zM377 599l-34 -40
l-101 79l-101 -79l-34 40l135 118z" />
    <glyph glyph-name="Gbreve" unicode="&#x11e;" horiz-adv-x="602" 
d="M570 363v-8q0 -176 -65 -273.5t-193 -97.5q-67 0 -119 26t-87.5 73t-54 112.5t-18.5 145.5q0 82 20 148t56.5 112.5t87.5 71.5t112 25q48 0 89.5 -12.5t74 -37t53 -60t26.5 -81.5h-82q-8 56 -49 87.5t-104 31.5q-97 0 -149.5 -73t-52.5 -205q0 -75 14.5 -130t40.5 -91
t62 -53.5t80 -17.5q82 0 127.5 62t48.5 171h-203v74h285zM452 879q-2 -28 -13 -52t-30 -42t-45 -28t-58 -10q-33 0 -59 10t-45 28t-30 42t-12 52h61q2 -29 24.5 -50.5t60.5 -21.5t60.5 21.5t24.5 50.5h61z" />
    <glyph glyph-name="gbreve" unicode="&#x11f;" horiz-adv-x="522" 
d="M458 -6q0 -130 -56.5 -190t-158.5 -60q-42 0 -77 14.5t-60 39t-39.5 57.5t-16.5 71h74q1 -23 10 -44t24.5 -36.5t38.5 -24.5t52 -9q65 0 100 39t35 133v88q-23 -36 -60.5 -62t-89.5 -26q-41 0 -77.5 18t-64.5 51.5t-44.5 80.5t-16.5 106q0 55 15.5 102t42.5 80.5t64 52.5
t80 19q30 0 53.5 -7.5t42 -20t32 -28.5t23.5 -34v75h74v-485zM106 240q0 -40 10 -74t28.5 -59.5t45 -40t59.5 -14.5q28 0 54 13.5t45 38t30.5 58.5t11.5 75q0 43 -11 78t-29.5 59.5t-44 38t-54.5 13.5q-34 0 -61 -14.5t-45.5 -39.5t-28.5 -59t-10 -73zM388 714
q-2 -32 -13 -58.5t-30 -46.5t-45 -31t-58 -11q-33 0 -59 11t-45 31t-30 46.5t-12 58.5h61q2 -37 24.5 -62t60.5 -25t60.5 25t24.5 62h61z" />
    <glyph glyph-name="Gdotaccent" unicode="&#x120;" horiz-adv-x="602" 
d="M570 363v-8q0 -176 -65 -273.5t-193 -97.5q-67 0 -119 26t-87.5 73t-54 112.5t-18.5 145.5q0 82 20 148t56.5 112.5t87.5 71.5t112 25q48 0 89.5 -12.5t74 -37t53 -60t26.5 -81.5h-82q-8 56 -49 87.5t-104 31.5q-97 0 -149.5 -73t-52.5 -205q0 -75 14.5 -130t40.5 -91
t62 -53.5t80 -17.5q82 0 127.5 62t48.5 171h-203v74h285zM269 866h88v-87h-88v87z" />
    <glyph glyph-name="gdotaccent" unicode="&#x121;" horiz-adv-x="522" 
d="M458 -6q0 -130 -56.5 -190t-158.5 -60q-42 0 -77 14.5t-60 39t-39.5 57.5t-16.5 71h74q1 -23 10 -44t24.5 -36.5t38.5 -24.5t52 -9q65 0 100 39t35 133v88q-23 -36 -60.5 -62t-89.5 -26q-41 0 -77.5 18t-64.5 51.5t-44.5 80.5t-16.5 106q0 55 15.5 102t42.5 80.5t64 52.5
t80 19q30 0 53.5 -7.5t42 -20t32 -28.5t23.5 -34v75h74v-485zM106 240q0 -40 10 -74t28.5 -59.5t45 -40t59.5 -14.5q28 0 54 13.5t45 38t30.5 58.5t11.5 75q0 43 -11 78t-29.5 59.5t-44 38t-54.5 13.5q-34 0 -61 -14.5t-45.5 -39.5t-28.5 -59t-10 -73zM194 684h88v-87h-88
v87z" />
    <glyph glyph-name="Gcommaaccent" unicode="&#x122;" horiz-adv-x="602" 
d="M570 363v-8q0 -176 -65 -273.5t-193 -97.5q-67 0 -119 26t-87.5 73t-54 112.5t-18.5 145.5q0 82 20 148t56.5 112.5t87.5 71.5t112 25q48 0 89.5 -12.5t74 -37t53 -60t26.5 -81.5h-82q-8 56 -49 87.5t-104 31.5q-97 0 -149.5 -73t-52.5 -205q0 -75 14.5 -130t40.5 -91
t62 -53.5t80 -17.5q82 0 127.5 62t48.5 171h-203v74h285zM264 -68h88v-65q0 -32 -10 -57.5t-20 -36.5h-45q20 32 23 72h-36v87z" />
    <glyph glyph-name="gcommaaccent" unicode="&#x123;" horiz-adv-x="522" 
d="M458 -6q0 -130 -56.5 -190t-158.5 -60q-42 0 -77 14.5t-60 39t-39.5 57.5t-16.5 71h74q1 -23 10 -44t24.5 -36.5t38.5 -24.5t52 -9q65 0 100 39t35 133v88q-23 -36 -60.5 -62t-89.5 -26q-41 0 -77.5 18t-64.5 51.5t-44.5 80.5t-16.5 106q0 55 15.5 102t42.5 80.5t64 52.5
t80 19q30 0 53.5 -7.5t42 -20t32 -28.5t23.5 -34v75h74v-485zM106 240q0 -40 10 -74t28.5 -59.5t45 -40t59.5 -14.5q28 0 54 13.5t45 38t30.5 58.5t11.5 75q0 43 -11 78t-29.5 59.5t-44 38t-54.5 13.5q-34 0 -61 -14.5t-45.5 -39.5t-28.5 -59t-10 -73zM286 553h-88v65
q0 32 10 57.5t20 36.5h45q-20 -32 -23 -72h36v-87z" />
    <glyph glyph-name="Hcircumflex" unicode="&#x124;" horiz-adv-x="605" 
d="M455 316h-305v-316h-80v682h80v-292h305v292h80v-682h-80v316zM437 783l-28 -44l-107 59l-107 -59l-28 44l135 94z" />
    <glyph glyph-name="hcircumflex" unicode="&#x125;" horiz-adv-x="479" 
d="M64 720h74v-307q28 47 63 64t68 17q27 0 55 -11t50.5 -36t37 -66t14.5 -102v-279h-74v276q0 75 -26 112t-73 37q-54 0 -84.5 -41.5t-30.5 -126.5v-257h-74v720zM237 805l-34 -40l-101 79l-101 -79l-34 40l135 118z" />
    <glyph glyph-name="Hbar" unicode="&#x126;" horiz-adv-x="605" 
d="M535 525v-525h-79v316h-306v-316h-80v525h-70v59h70v98h80v-98h306v98h79v-98h70v-59h-70zM456 390v135h-306v-135h306z" />
    <glyph glyph-name="hbar" unicode="&#x127;" horiz-adv-x="479" 
d="M138 579v-166q28 47 63 64t68 17q27 0 55 -11t50.5 -36t37 -66t14.5 -102v-279h-74v276q0 75 -26 112t-73 37q-54 0 -84.5 -41.5t-30.5 -126.5v-257h-74v579h-64v59h64v82h74v-82h140v-59h-140z" />
    <glyph glyph-name="Itilde" unicode="&#x128;" horiz-adv-x="218" 
d="M69 682h80v-682h-80v682zM-37 772q2 52 22 82t62 30q22 0 37 -8.5t29 -19.5q14 -12 23.5 -19t15.5 -10t10 -4t8 -1q14 0 22.5 10t9.5 45h53q-2 -55 -24.5 -83.5t-60.5 -28.5q-20 0 -36 7t-33 21t-30.5 24t-22.5 10q-14 0 -22 -12.5t-10 -42.5h-53z" />
    <glyph glyph-name="itilde" unicode="&#x129;" horiz-adv-x="201" 
d="M64 479h73v-479h-73v479zM-46 592q2 52 22 82t62 30q22 0 37 -8.5t29 -19.5q14 -12 23.5 -19t15.5 -10t10 -4t8 -1q14 0 22.5 10t9.5 45h53q-2 -55 -24.5 -83.5t-60.5 -28.5q-20 0 -36 7t-33 21t-30.5 24t-22.5 10q-14 0 -22 -12.5t-10 -42.5h-53z" />
    <glyph glyph-name="Imacron" unicode="&#x12a;" horiz-adv-x="218" 
d="M69 682h80v-682h-80v682zM-30 788v59h278v-59h-278z" />
    <glyph glyph-name="imacron" unicode="&#x12b;" horiz-adv-x="201" 
d="M64 479h73v-479h-73v479zM-29 609v59h258v-59h-258z" />
    <glyph glyph-name="Ibreve" unicode="&#x12c;" horiz-adv-x="218" 
d="M69 682h80v-682h-80v682zM255 879q-2 -28 -13 -52t-30 -42t-45 -28t-58 -10q-33 0 -59 10t-45 28t-30 42t-12 52h61q2 -29 24.5 -50.5t60.5 -21.5t60.5 21.5t24.5 50.5h61z" />
    <glyph glyph-name="ibreve" unicode="&#x12d;" horiz-adv-x="201" 
d="M64 479h73v-479h-73v479zM246 714q-2 -32 -13 -58.5t-30 -46.5t-45 -31t-58 -11q-33 0 -59 11t-45 31t-30 46.5t-12 58.5h61q2 -37 24.5 -62t60.5 -25t60.5 25t24.5 62h61z" />
    <glyph glyph-name="Iogonek" unicode="&#x12e;" horiz-adv-x="218" 
d="M69 682h80v-682q-26 -5 -45 -32.5t-19 -64.5q0 -24 12 -39t38 -15q8 0 17 1t21 3v-58q-12 -2 -24 -3.5t-22 -1.5q-60 0 -84.5 27.5t-24.5 70.5q0 38 20 66t47 46h-16v682z" />
    <glyph glyph-name="iogonek" unicode="&#x12f;" horiz-adv-x="201" 
d="M64 479h73v-479q-28 -13 -45 -37t-17 -65q0 -22 12 -35.5t38 -13.5q8 0 17 1t21 3v-58q-12 -2 -24 -3.5t-22 -1.5q-60 0 -84.5 27.5t-24.5 70.5q0 18 6.5 35.5t16.5 32.5t22.5 26.5t25.5 17.5h-15v479zM55 686h92v-91h-92v91z" />
    <glyph glyph-name="Idotaccent" unicode="&#x130;" horiz-adv-x="218" 
d="M69 682h80v-682h-80v682zM65 866h88v-87h-88v87z" />
    <glyph glyph-name="dotlessi" unicode="&#x131;" horiz-adv-x="201" 
d="M64 479h73v-479h-73v479z" />
    <glyph glyph-name="Jcircumflex" unicode="&#x134;" horiz-adv-x="286" 
d="M142 682h80v-509q0 -102 -39 -145.5t-120 -43.5q-20 0 -35 3t-23 5v70q6 -2 22.5 -4t32.5 -2q43 0 62.5 22.5t19.5 88.5v515zM318 783l-28 -44l-107 59l-107 -59l-28 44l135 94z" />
    <glyph glyph-name="jcircumflex" unicode="&#x135;" horiz-adv-x="201" 
d="M137 479v-565q0 -81 -30 -115t-95 -34q-11 0 -20 1.5t-19 3.5v64q5 -2 15.5 -3t18.5 -1q33 0 45 18.5t12 62.5v568h73zM236 574l-34 -40l-101 79l-101 -79l-34 40l135 118z" />
    <glyph glyph-name="Kcommaaccent" unicode="&#x136;" horiz-adv-x="521" 
d="M210 331l-60 -73v-258h-80v682h80v-317l260 317h95l-244 -292l260 -390h-98zM224 -68h88v-65q0 -32 -10 -57.5t-20 -36.5h-45q20 32 23 72h-36v87z" />
    <glyph glyph-name="kcommaaccent" unicode="&#x137;" horiz-adv-x="407" 
d="M189 235l-51 -63v-172h-74v720h74v-451l166 210h86l-152 -188l164 -291h-87zM175 -68h88v-65q0 -32 -10 -57.5t-20 -36.5h-45q20 32 23 72h-36v87z" />
    <glyph glyph-name="kgreenlandic" unicode="&#x138;" horiz-adv-x="407" 
d="M189 235l-51 -63v-172h-74v479h74v-210l166 210h86l-152 -188l164 -291h-87z" />
    <glyph glyph-name="Lacute" unicode="&#x139;" horiz-adv-x="408" 
d="M69 682h80v-608h244v-74h-324v682zM225 825l-160 -89l-29 47l154 104z" />
    <glyph glyph-name="lacute" unicode="&#x13a;" horiz-adv-x="202" 
d="M64 720h74v-720h-74v720zM214 878l-141 -118l-37 41l131 131z" />
    <glyph glyph-name="Lcommaaccent" unicode="&#x13b;" horiz-adv-x="408" 
d="M69 682h80v-608h244v-74h-324v682zM179 -68h88v-65q0 -32 -10 -57.5t-20 -36.5h-45q20 32 23 72h-36v87z" />
    <glyph glyph-name="lcommaaccent" unicode="&#x13c;" horiz-adv-x="202" 
d="M64 720h74v-720h-74v720zM57 -68h88v-65q0 -32 -10 -57.5t-20 -36.5h-45q20 32 23 72h-36v87z" />
    <glyph glyph-name="Lcaron" unicode="&#x13d;" horiz-adv-x="408" 
d="M69 682h80v-608h244v-74h-324v682zM266 682h88v-65q0 -32 -10 -57.5t-20 -36.5h-45q20 32 23 72h-36v87z" />
    <glyph glyph-name="lcaron" unicode="&#x13e;" horiz-adv-x="264" 
d="M64 720h74v-720h-74v720zM186 720h88v-65q0 -32 -10 -57.5t-20 -36.5h-45q20 32 23 72h-36v87z" />
    <glyph glyph-name="Ldot" unicode="&#x13f;" horiz-adv-x="448" 
d="M69 682h80v-608h244v-74h-324v682zM290 399h88v-87h-88v87z" />
    <glyph glyph-name="ldot" unicode="&#x140;" horiz-adv-x="292" 
d="M64 720h74v-720h-74v720zM203 429h88v-87h-88v87z" />
    <glyph glyph-name="Lslash" unicode="&#x141;" horiz-adv-x="423" 
d="M15 272l69 47v363h80v-316l144 99v-77l-144 -100v-214h244v-74h-324v241l-69 -48v79z" />
    <glyph glyph-name="lslash" unicode="&#x142;" horiz-adv-x="222" 
d="M10 326l64 43v351h74v-308l64 44v-71l-64 -45v-340h-74v296l-64 -44v74z" />
    <glyph glyph-name="Nacute" unicode="&#x143;" horiz-adv-x="587" 
d="M142 549q0 -14 0.5 -33.5t1 -40.5t0.5 -40.5v-32.5v-402h-75v682h76l179 -322q46 -83 75.5 -140.5t42.5 -87.5h3q-1 35 -1.5 68.5t-0.5 68.5v413h75v-682h-76l-180 325q-27 49 -46.5 85.5t-33 62.5t-22 44t-14.5 32h-4zM408 825l-160 -89l-29 47l154 104z" />
    <glyph glyph-name="nacute" unicode="&#x144;" horiz-adv-x="484" 
d="M64 479h74v-66q28 47 63 64t68 17q27 0 55 -11t50.5 -36t37 -66t14.5 -102v-279h-74v274q0 75 -26 113t-73 38q-54 0 -84.5 -42.5t-30.5 -127.5v-255h-74v479zM360 672l-141 -118l-37 41l131 131z" />
    <glyph glyph-name="Ncommaaccent" unicode="&#x145;" horiz-adv-x="587" 
d="M142 549q0 -14 0.5 -33.5t1 -40.5t0.5 -40.5v-32.5v-402h-75v682h76l179 -322q46 -83 75.5 -140.5t42.5 -87.5h3q-1 35 -1.5 68.5t-0.5 68.5v413h75v-682h-76l-180 325q-27 49 -46.5 85.5t-33 62.5t-22 44t-14.5 32h-4zM249 -68h88v-65q0 -32 -10 -57.5t-20 -36.5h-45
q20 32 23 72h-36v87z" />
    <glyph glyph-name="ncommaaccent" unicode="&#x146;" horiz-adv-x="484" 
d="M64 479h74v-66q28 47 63 64t68 17q27 0 55 -11t50.5 -36t37 -66t14.5 -102v-279h-74v274q0 75 -26 113t-73 38q-54 0 -84.5 -42.5t-30.5 -127.5v-255h-74v479zM198 -68h88v-65q0 -32 -10 -57.5t-20 -36.5h-45q20 32 23 72h-36v87z" />
    <glyph glyph-name="Ncaron" unicode="&#x147;" horiz-adv-x="587" 
d="M142 549q0 -14 0.5 -33.5t1 -40.5t0.5 -40.5v-32.5v-402h-75v682h76l179 -322q46 -83 75.5 -140.5t42.5 -87.5h3q-1 35 -1.5 68.5t-0.5 68.5v413h75v-682h-76l-180 325q-27 49 -46.5 85.5t-33 62.5t-22 44t-14.5 32h-4zM161 833l28 44l107 -59l107 59l28 -44l-135 -94z
" />
    <glyph glyph-name="ncaron" unicode="&#x148;" horiz-adv-x="484" 
d="M64 479h74v-66q28 47 63 64t68 17q27 0 55 -11t50.5 -36t37 -66t14.5 -102v-279h-74v274q0 75 -26 113t-73 38q-54 0 -84.5 -42.5t-30.5 -127.5v-255h-74v479zM113 677l34 40l101 -79l101 79l34 -40l-135 -118z" />
    <glyph glyph-name="Eng" unicode="&#x14a;" horiz-adv-x="587" 
d="M443 0l-181 325q-27 49 -46.5 85.5t-33 62.5t-22 44t-14.5 32h-4q0 -14 0.5 -33.5t1 -40.5t0.5 -40.5v-32.5v-402h-75v682h76l179 -322q46 -83 75.5 -140.5t42.5 -87.5h3q-1 35 -1.5 68.5t-0.5 68.5v413h75v-679q0 -102 -39 -145.5t-120 -43.5q-20 0 -35 3t-23 5v70
q6 -2 23.5 -4t33.5 -2q44 0 64.5 22.5t20.5 88.5v3z" />
    <glyph glyph-name="eng" unicode="&#x14b;" horiz-adv-x="484" 
d="M64 0v479h74v-66q28 47 63 64t68 17q27 0 55 -11t50.5 -36t37 -66t14.5 -102v-365q0 -81 -30 -115t-95 -34q-11 0 -20 1.5t-19 3.5v64q5 -2 15.5 -3t18.5 -1q33 0 44.5 18.5t11.5 62.5v363q0 75 -26 113t-73 38q-54 0 -84.5 -42.5t-30.5 -127.5v-255h-74z" />
    <glyph glyph-name="Omacron" unicode="&#x14c;" horiz-adv-x="616" 
d="M115 340q0 -71 15 -124t40.5 -88.5t60.5 -53.5t76 -18t76 18t61 53.5t41 89t15 124.5q0 69 -14 122.5t-39.5 89.5t-61 54.5t-78.5 18.5q-41 0 -76 -18t-60.5 -54t-40.5 -89.5t-15 -124.5zM33 340q0 81 20.5 147t57.5 113t87 72.5t110 25.5q64 0 115 -26t86.5 -73.5
t54.5 -113t19 -144.5q0 -83 -21 -149t-57.5 -112t-87 -71t-109.5 -25q-71 0 -123 29t-85.5 78.5t-50 113.5t-16.5 135zM174 788v59h278v-59h-278z" />
    <glyph glyph-name="omacron" unicode="&#x14d;" horiz-adv-x="499" 
d="M31 240q0 55 16 102t44.5 80.5t69 52.5t88.5 19q50 0 90.5 -19.5t69 -53.5t44 -80.5t15.5 -100.5q0 -53 -15.5 -99.5t-44.5 -81.5t-69.5 -55t-89.5 -20q-48 0 -88.5 19.5t-69 54t-44.5 81.5t-16 101zM107 240q0 -41 10.5 -75t29.5 -59t45 -38.5t57 -13.5q33 0 59.5 14
t45 39t28 59t9.5 74q0 38 -9.5 72t-27.5 59t-44.5 39.5t-60.5 14.5t-60.5 -14t-44.5 -38.5t-27.5 -58.5t-9.5 -74zM120 609v59h258v-59h-258z" />
    <glyph glyph-name="Obreve" unicode="&#x14e;" horiz-adv-x="616" 
d="M115 340q0 -71 15 -124t40.5 -88.5t60.5 -53.5t76 -18t76 18t61 53.5t41 89t15 124.5q0 69 -14 122.5t-39.5 89.5t-61 54.5t-78.5 18.5q-41 0 -76 -18t-60.5 -54t-40.5 -89.5t-15 -124.5zM33 340q0 81 20.5 147t57.5 113t87 72.5t110 25.5q64 0 115 -26t86.5 -73.5
t54.5 -113t19 -144.5q0 -83 -21 -149t-57.5 -112t-87 -71t-109.5 -25q-71 0 -123 29t-85.5 78.5t-50 113.5t-16.5 135zM459 879q-2 -28 -13 -52t-30 -42t-45 -28t-58 -10q-33 0 -59 10t-45 28t-30 42t-12 52h61q2 -29 24.5 -50.5t60.5 -21.5t60.5 21.5t24.5 50.5h61z" />
    <glyph glyph-name="obreve" unicode="&#x14f;" horiz-adv-x="499" 
d="M31 240q0 55 16 102t44.5 80.5t69 52.5t88.5 19q50 0 90.5 -19.5t69 -53.5t44 -80.5t15.5 -100.5q0 -53 -15.5 -99.5t-44.5 -81.5t-69.5 -55t-89.5 -20q-48 0 -88.5 19.5t-69 54t-44.5 81.5t-16 101zM107 240q0 -41 10.5 -75t29.5 -59t45 -38.5t57 -13.5q33 0 59.5 14
t45 39t28 59t9.5 74q0 38 -9.5 72t-27.5 59t-44.5 39.5t-60.5 14.5t-60.5 -14t-44.5 -38.5t-27.5 -58.5t-9.5 -74zM395 714q-2 -32 -13 -58.5t-30 -46.5t-45 -31t-58 -11q-33 0 -59 11t-45 31t-30 46.5t-12 58.5h61q2 -37 24.5 -62t60.5 -25t60.5 25t24.5 62h61z" />
    <glyph glyph-name="Ohungarumlaut" unicode="&#x150;" horiz-adv-x="616" 
d="M115 340q0 -71 15 -124t40.5 -88.5t60.5 -53.5t76 -18t76 18t61 53.5t41 89t15 124.5q0 69 -14 122.5t-39.5 89.5t-61 54.5t-78.5 18.5q-41 0 -76 -18t-60.5 -54t-40.5 -89.5t-15 -124.5zM33 340q0 81 20.5 147t57.5 113t87 72.5t110 25.5q64 0 115 -26t86.5 -73.5
t54.5 -113t19 -144.5q0 -83 -21 -149t-57.5 -112t-87 -71t-109.5 -25q-71 0 -123 29t-85.5 78.5t-50 113.5t-16.5 135zM389 839l-155 -108l-32 41l144 123zM554 839l-155 -108l-32 41l144 123z" />
    <glyph glyph-name="ohungarumlaut" unicode="&#x151;" horiz-adv-x="499" 
d="M31 240q0 55 16 102t44.5 80.5t69 52.5t88.5 19q50 0 90.5 -19.5t69 -53.5t44 -80.5t15.5 -100.5q0 -53 -15.5 -99.5t-44.5 -81.5t-69.5 -55t-89.5 -20q-48 0 -88.5 19.5t-69 54t-44.5 81.5t-16 101zM107 240q0 -41 10.5 -75t29.5 -59t45 -38.5t57 -13.5q33 0 59.5 14
t45 39t28 59t9.5 74q0 38 -9.5 72t-27.5 59t-44.5 39.5t-60.5 14.5t-60.5 -14t-44.5 -38.5t-27.5 -58.5t-9.5 -74zM288 709l-114 -151l-43 29l98 162zM438 709l-114 -151l-43 29l98 162z" />
    <glyph glyph-name="OE" unicode="&#x152;" horiz-adv-x="835" 
d="M779 608h-236v-218h226v-74h-226v-242h244v-74h-320v95q-31 -51 -75.5 -81t-101.5 -30q-66 0 -114.5 29t-80 78.5t-47 113.5t-15.5 135q0 81 19.5 147t53.5 113t81 72.5t103 25.5q60 0 103.5 -29.5t73.5 -77.5v91h312v-74zM115 340q0 -71 13.5 -124t37 -88.5t55.5 -53.5
t69 -18t70 16.5t58 51t39.5 88.5t14.5 129q0 73 -14 126.5t-38 89t-57.5 52.5t-72.5 17q-37 0 -69 -18t-55.5 -54t-37 -89.5t-13.5 -124.5z" />
    <glyph glyph-name="oe" unicode="&#x153;" horiz-adv-x="823" 
d="M589 494q56 0 94.5 -22t62.5 -57.5t35 -79.5t11 -89q0 -6 -0.5 -15t-1.5 -14h-329q0 -37 11.5 -67.5t30.5 -52t44 -33.5t53 -12q35 0 61.5 14.5t41.5 43.5h82q-10 -24 -26 -47t-38.5 -40.5t-51.5 -28t-65 -10.5q-65 0 -110 28t-70 81q-26 -50 -70 -79.5t-105 -29.5
q-48 0 -88.5 19.5t-69 54t-44.5 81.5t-16 101q0 55 16 102t44.5 80.5t69 52.5t88.5 19q60 0 104.5 -28t70.5 -76q23 49 64.5 76.5t100.5 27.5zM107 240q0 -41 10.5 -75t29.5 -59t45 -38.5t57 -13.5q33 0 59.5 14t45 39t28 59t9.5 74q0 38 -9.5 72t-27.5 59t-44.5 39.5
t-60.5 14.5t-60.5 -14t-44.5 -38.5t-27.5 -58.5t-9.5 -74zM716 282q-1 30 -10 56.5t-25 46t-39.5 30.5t-53.5 11q-27 0 -50 -11t-40 -30.5t-26.5 -46t-9.5 -56.5h254z" />
    <glyph glyph-name="Racute" unicode="&#x154;" horiz-adv-x="480" 
d="M488 0h-90l-169 286h-80v-286h-80v682h177q56 0 94 -18t61 -46.5t33 -64.5t10 -71q0 -36 -10.5 -67t-28.5 -55t-42 -40.5t-50 -23.5zM361 482q0 63 -31.5 94.5t-89.5 31.5h-91v-248h97q59 0 87 35.5t28 86.5zM346 825l-160 -89l-29 47l154 104z" />
    <glyph glyph-name="racute" unicode="&#x155;" horiz-adv-x="293" 
d="M273 423q-14 3 -34 3q-44 0 -72.5 -40.5t-28.5 -132.5v-253h-74v479h74v-60h3q5 12 14.5 25t22.5 24.5t29 18.5t35 7q17 0 31 -3v-68zM284 672l-141 -118l-37 41l131 131z" />
    <glyph glyph-name="Rcommaaccent" unicode="&#x156;" horiz-adv-x="480" 
d="M488 0h-90l-169 286h-80v-286h-80v682h177q56 0 94 -18t61 -46.5t33 -64.5t10 -71q0 -36 -10.5 -67t-28.5 -55t-42 -40.5t-50 -23.5zM361 482q0 63 -31.5 94.5t-89.5 31.5h-91v-248h97q59 0 87 35.5t28 86.5zM218 -68h88v-65q0 -32 -10 -57.5t-20 -36.5h-45q20 32 23 72
h-36v87z" />
    <glyph glyph-name="rcommaaccent" unicode="&#x157;" horiz-adv-x="293" 
d="M273 423q-14 3 -34 3q-44 0 -72.5 -40.5t-28.5 -132.5v-253h-74v479h74v-60h3q5 12 14.5 25t22.5 24.5t29 18.5t35 7q17 0 31 -3v-68zM58 -68h88v-65q0 -32 -10 -57.5t-20 -36.5h-45q20 32 23 72h-36v87z" />
    <glyph glyph-name="Rcaron" unicode="&#x158;" horiz-adv-x="480" 
d="M488 0h-90l-169 286h-80v-286h-80v682h177q56 0 94 -18t61 -46.5t33 -64.5t10 -71q0 -36 -10.5 -67t-28.5 -55t-42 -40.5t-50 -23.5zM361 482q0 63 -31.5 94.5t-89.5 31.5h-91v-248h97q59 0 87 35.5t28 86.5zM89 833l28 44l107 -59l107 59l28 -44l-135 -94z" />
    <glyph glyph-name="rcaron" unicode="&#x159;" horiz-adv-x="293" 
d="M273 423q-14 3 -34 3q-44 0 -72.5 -40.5t-28.5 -132.5v-253h-74v479h74v-60h3q5 12 14.5 25t22.5 24.5t29 18.5t35 7q17 0 31 -3v-68zM37 677l34 40l101 -79l101 79l34 -40l-135 -118z" />
    <glyph glyph-name="Sacute" unicode="&#x15a;" horiz-adv-x="460" 
d="M330 540q-5 42 -29 64t-66 22q-47 0 -73.5 -25t-26.5 -70q0 -23 5 -40.5t19 -34t40.5 -32.5t68.5 -34q44 -19 73.5 -42.5t47.5 -50.5t26 -58.5t8 -67.5q0 -34 -12 -67.5t-36.5 -60t-61.5 -43t-87 -16.5q-48 0 -84 13.5t-61 37.5t-38.5 57.5t-15.5 73.5h82q2 -57 33 -83.5
t84 -26.5q30 0 51.5 9.5t36 25t21 35.5t6.5 41q0 27 -5.5 49.5t-19.5 41.5t-37.5 35.5t-60.5 31.5q-50 20 -81.5 43.5t-50.5 49.5t-26 54t-7 57q0 38 14 69t38 53.5t57 34.5t71 12q48 0 81.5 -13.5t54.5 -36t31 -51t12 -57.5h-82zM348 825l-160 -89l-29 47l154 104z" />
    <glyph glyph-name="sacute" unicode="&#x15b;" horiz-adv-x="355" 
d="M244 370q-4 26 -21.5 42t-44.5 16q-30 0 -47.5 -16t-17.5 -46q0 -15 3.5 -26.5t13 -21.5t25.5 -19.5t41 -20.5q39 -17 64 -34.5t39.5 -36.5t19.5 -39t5 -43q0 -27 -10 -52.5t-29.5 -45t-48.5 -31.5t-66 -12q-66 0 -106.5 38.5t-45.5 100.5h72q2 -32 21.5 -52.5
t60.5 -20.5q42 0 60.5 22.5t18.5 49.5q0 25 -17.5 47t-66.5 44q-35 15 -59 30.5t-39 33.5t-21.5 40t-6.5 49q0 26 9.5 49t27 40.5t43 28t57.5 10.5t56.5 -11t41.5 -28.5t26 -39.5t11 -45h-69zM279 672l-141 -118l-37 41l131 131z" />
    <glyph glyph-name="Scircumflex" unicode="&#x15c;" horiz-adv-x="460" 
d="M330 540q-5 42 -29 64t-66 22q-47 0 -73.5 -25t-26.5 -70q0 -23 5 -40.5t19 -34t40.5 -32.5t68.5 -34q44 -19 73.5 -42.5t47.5 -50.5t26 -58.5t8 -67.5q0 -34 -12 -67.5t-36.5 -60t-61.5 -43t-87 -16.5q-48 0 -84 13.5t-61 37.5t-38.5 57.5t-15.5 73.5h82q2 -57 33 -83.5
t84 -26.5q30 0 51.5 9.5t36 25t21 35.5t6.5 41q0 27 -5.5 49.5t-19.5 41.5t-37.5 35.5t-60.5 31.5q-50 20 -81.5 43.5t-50.5 49.5t-26 54t-7 57q0 38 14 69t38 53.5t57 34.5t71 12q48 0 81.5 -13.5t54.5 -36t31 -51t12 -57.5h-82zM371 783l-28 -44l-107 59l-107 -59l-28 44
l135 94z" />
    <glyph glyph-name="scircumflex" unicode="&#x15d;" horiz-adv-x="355" 
d="M244 370q-4 26 -21.5 42t-44.5 16q-30 0 -47.5 -16t-17.5 -46q0 -15 3.5 -26.5t13 -21.5t25.5 -19.5t41 -20.5q39 -17 64 -34.5t39.5 -36.5t19.5 -39t5 -43q0 -27 -10 -52.5t-29.5 -45t-48.5 -31.5t-66 -12q-66 0 -106.5 38.5t-45.5 100.5h72q2 -32 21.5 -52.5
t60.5 -20.5q42 0 60.5 22.5t18.5 49.5q0 25 -17.5 47t-66.5 44q-35 15 -59 30.5t-39 33.5t-21.5 40t-6.5 49q0 26 9.5 49t27 40.5t43 28t57.5 10.5t56.5 -11t41.5 -28.5t26 -39.5t11 -45h-69zM312 599l-34 -40l-101 79l-101 -79l-34 40l135 118z" />
    <glyph glyph-name="Scedilla" unicode="&#x15e;" horiz-adv-x="460" 
d="M330 540q-5 42 -29 64t-66 22q-47 0 -73.5 -25t-26.5 -70q0 -23 5 -40.5t19 -34t40.5 -32.5t68.5 -34q44 -19 73.5 -42.5t47.5 -50.5t26 -58.5t8 -67.5q0 -32 -10.5 -63t-31.5 -57t-53.5 -44t-75.5 -22l-12 -29q42 -6 64 -28.5t22 -57.5q0 -45 -35 -70t-86 -25
q-22 0 -42.5 4t-38.5 11l18 48q11 -5 28 -8t36 -3q28 0 42.5 13t14.5 32q0 21 -20.5 36.5t-64.5 15.5l25 61q-85 6 -128.5 55.5t-47.5 125.5h82q2 -57 33 -83.5t84 -26.5q30 0 51.5 9.5t36 25t21 35.5t6.5 41q0 27 -5.5 49.5t-19.5 41.5t-37.5 35.5t-60.5 31.5
q-50 20 -81.5 43.5t-50.5 49.5t-26 54t-7 57q0 38 14 69t38 53.5t57 34.5t71 12q48 0 81.5 -13.5t54.5 -36t31 -51t12 -57.5h-82z" />
    <glyph glyph-name="scedilla" unicode="&#x15f;" horiz-adv-x="355" 
d="M244 370q-4 26 -21.5 42t-44.5 16q-30 0 -47.5 -16t-17.5 -46q0 -15 3.5 -26.5t13 -21.5t25.5 -19.5t41 -20.5q39 -17 64 -34.5t39.5 -36.5t19.5 -39t5 -43q0 -51 -33.5 -91.5t-98.5 -48.5l-12 -29q42 -6 64 -28.5t22 -57.5q0 -45 -35 -70t-86 -25q-22 0 -42.5 4
t-38.5 11l18 48q11 -5 28 -8t36 -3q28 0 42.5 13t14.5 32q0 21 -20.5 36.5t-64.5 15.5l26 62q-55 8 -88 44.5t-38 92.5h72q2 -32 21.5 -52.5t60.5 -20.5q42 0 60.5 22.5t18.5 49.5q0 25 -17.5 47t-66.5 44q-35 15 -59 30.5t-39 33.5t-21.5 40t-6.5 49q0 26 9.5 49t27 40.5
t43 28t57.5 10.5t56.5 -11t41.5 -28.5t26 -39.5t11 -45h-69z" />
    <glyph glyph-name="Scaron" unicode="&#x160;" horiz-adv-x="460" 
d="M330 540q-5 42 -29 64t-66 22q-47 0 -73.5 -25t-26.5 -70q0 -23 5 -40.5t19 -34t40.5 -32.5t68.5 -34q44 -19 73.5 -42.5t47.5 -50.5t26 -58.5t8 -67.5q0 -34 -12 -67.5t-36.5 -60t-61.5 -43t-87 -16.5q-48 0 -84 13.5t-61 37.5t-38.5 57.5t-15.5 73.5h82q2 -57 33 -83.5
t84 -26.5q30 0 51.5 9.5t36 25t21 35.5t6.5 41q0 27 -5.5 49.5t-19.5 41.5t-37.5 35.5t-60.5 31.5q-50 20 -81.5 43.5t-50.5 49.5t-26 54t-7 57q0 38 14 69t38 53.5t57 34.5t71 12q48 0 81.5 -13.5t54.5 -36t31 -51t12 -57.5h-82zM101 833l28 44l107 -59l107 59l28 -44
l-135 -94z" />
    <glyph glyph-name="scaron" unicode="&#x161;" horiz-adv-x="355" 
d="M244 370q-4 26 -21.5 42t-44.5 16q-30 0 -47.5 -16t-17.5 -46q0 -15 3.5 -26.5t13 -21.5t25.5 -19.5t41 -20.5q39 -17 64 -34.5t39.5 -36.5t19.5 -39t5 -43q0 -27 -10 -52.5t-29.5 -45t-48.5 -31.5t-66 -12q-66 0 -106.5 38.5t-45.5 100.5h72q2 -32 21.5 -52.5
t60.5 -20.5q42 0 60.5 22.5t18.5 49.5q0 25 -17.5 47t-66.5 44q-35 15 -59 30.5t-39 33.5t-21.5 40t-6.5 49q0 26 9.5 49t27 40.5t43 28t57.5 10.5t56.5 -11t41.5 -28.5t26 -39.5t11 -45h-69zM42 677l34 40l101 -79l101 79l34 -40l-135 -118z" />
    <glyph glyph-name="Tcommaaccent" unicode="&#x162;" horiz-adv-x="387" 
d="M154 608h-145v74h369v-74h-145v-608h-79v608zM149 -68h88v-65q0 -32 -10 -57.5t-20 -36.5h-45q20 32 23 72h-36v87z" />
    <glyph glyph-name="tcommaaccent" unicode="&#x163;" horiz-adv-x="264" 
d="M12 479h54v154h74v-154h102v-64h-102v-275q0 -45 15 -63t50 -18q11 0 21.5 1t19.5 3v-63q-11 -3 -27.5 -4.5t-27.5 -1.5q-63 0 -94 34t-31 115v272h-54v64zM129 -68h88v-65q0 -32 -10 -57.5t-20 -36.5h-45q20 32 23 72h-36v87z" />
    <glyph glyph-name="Tcaron" unicode="&#x164;" horiz-adv-x="387" 
d="M154 608h-145v74h369v-74h-145v-608h-79v608zM58 833l28 44l107 -59l107 59l28 -44l-135 -94z" />
    <glyph glyph-name="tcaron" unicode="&#x165;" horiz-adv-x="264" 
d="M12 479h54v154h74v-154h102v-64h-102v-275q0 -45 15 -63t50 -18q11 0 21.5 1t19.5 3v-63q-11 -3 -27.5 -4.5t-27.5 -1.5q-63 0 -94 34t-31 115v272h-54v64zM186 720h88v-65q0 -32 -10 -57.5t-20 -36.5h-45q20 32 23 72h-36v87z" />
    <glyph glyph-name="Tbar" unicode="&#x166;" horiz-adv-x="387" 
d="M233 322v-322h-79v322h-110v59h110v227h-145v74h369v-74h-145v-227h110v-59h-110z" />
    <glyph glyph-name="tbar" unicode="&#x167;" horiz-adv-x="264" 
d="M140 220v-80q0 -45 15 -63t50 -18q11 0 21.5 1t19.5 3v-63q-11 -3 -27.5 -4.5t-27.5 -1.5q-63 0 -94 34t-31 115v77h-49v59h49v136h-54v64h54v154h74v-154h102v-64h-102v-136h97v-59h-97z" />
    <glyph glyph-name="Utilde" unicode="&#x168;" horiz-adv-x="547" 
d="M280 -16q-49 0 -89.5 14t-70 47t-46 87.5t-16.5 136.5v413h80v-425q0 -201 135 -201q77 0 106.5 50t29.5 151v425h79v-411q0 -82 -15 -137t-42 -88.5t-65.5 -47.5t-85.5 -14zM127 772q2 52 22 82t62 30q22 0 37 -8.5t29 -19.5q14 -12 23.5 -19t15.5 -10t10 -4t8 -1
q14 0 22.5 10t9.5 45h53q-2 -55 -24.5 -83.5t-60.5 -28.5q-20 0 -36 7t-33 21t-30.5 24t-22.5 10q-14 0 -22 -12.5t-10 -42.5h-53z" />
    <glyph glyph-name="utilde" unicode="&#x169;" horiz-adv-x="484" 
d="M420 0h-74v66q-28 -47 -63 -64t-68 -17q-27 0 -55 11t-50.5 36t-37 66t-14.5 102v279h74v-274q0 -75 26 -112.5t73 -37.5q54 0 84.5 42t30.5 127v255h74v-479zM96 592q2 52 22 82t62 30q22 0 37 -8.5t29 -19.5q14 -12 23.5 -19t15.5 -10t10 -4t8 -1q14 0 22.5 10t9.5 45
h53q-2 -55 -24.5 -83.5t-60.5 -28.5q-20 0 -36 7t-33 21t-30.5 24t-22.5 10q-14 0 -22 -12.5t-10 -42.5h-53z" />
    <glyph glyph-name="Umacron" unicode="&#x16a;" horiz-adv-x="547" 
d="M280 -16q-49 0 -89.5 14t-70 47t-46 87.5t-16.5 136.5v413h80v-425q0 -201 135 -201q77 0 106.5 50t29.5 151v425h79v-411q0 -82 -15 -137t-42 -88.5t-65.5 -47.5t-85.5 -14zM134 788v59h278v-59h-278z" />
    <glyph glyph-name="umacron" unicode="&#x16b;" horiz-adv-x="484" 
d="M420 0h-74v66q-28 -47 -63 -64t-68 -17q-27 0 -55 11t-50.5 36t-37 66t-14.5 102v279h74v-274q0 -75 26 -112.5t73 -37.5q54 0 84.5 42t30.5 127v255h74v-479zM113 609v59h258v-59h-258z" />
    <glyph glyph-name="Ubreve" unicode="&#x16c;" horiz-adv-x="547" 
d="M280 -16q-49 0 -89.5 14t-70 47t-46 87.5t-16.5 136.5v413h80v-425q0 -201 135 -201q77 0 106.5 50t29.5 151v425h79v-411q0 -82 -15 -137t-42 -88.5t-65.5 -47.5t-85.5 -14zM419 879q-2 -28 -13 -52t-30 -42t-45 -28t-58 -10q-33 0 -59 10t-45 28t-30 42t-12 52h61
q2 -29 24.5 -50.5t60.5 -21.5t60.5 21.5t24.5 50.5h61z" />
    <glyph glyph-name="ubreve" unicode="&#x16d;" horiz-adv-x="484" 
d="M420 0h-74v66q-28 -47 -63 -64t-68 -17q-27 0 -55 11t-50.5 36t-37 66t-14.5 102v279h74v-274q0 -75 26 -112.5t73 -37.5q54 0 84.5 42t30.5 127v255h74v-479zM388 714q-2 -32 -13 -58.5t-30 -46.5t-45 -31t-58 -11q-33 0 -59 11t-45 31t-30 46.5t-12 58.5h61
q2 -37 24.5 -62t60.5 -25t60.5 25t24.5 62h61z" />
    <glyph glyph-name="Uring" unicode="&#x16e;" horiz-adv-x="547" 
d="M280 -16q-49 0 -89.5 14t-70 47t-46 87.5t-16.5 136.5v413h80v-425q0 -201 135 -201q77 0 106.5 50t29.5 151v425h79v-411q0 -82 -15 -137t-42 -88.5t-65.5 -47.5t-85.5 -14zM211 823q0 -26 18.5 -44.5t44.5 -18.5t43.5 18.5t17.5 44.5t-17.5 43.5t-43.5 17.5
t-44.5 -17.5t-18.5 -43.5zM166 823q0 22 8.5 41.5t23 33.5t34 22.5t42.5 8.5q45 0 75.5 -30.5t30.5 -75.5q0 -22 -8.5 -41.5t-22.5 -34.5t-33.5 -23.5t-41.5 -8.5q-23 0 -42.5 8.5t-34 23.5t-23 34.5t-8.5 41.5z" />
    <glyph glyph-name="uring" unicode="&#x16f;" horiz-adv-x="484" 
d="M420 0h-74v66q-28 -47 -63 -64t-68 -17q-27 0 -55 11t-50.5 36t-37 66t-14.5 102v279h74v-274q0 -75 26 -112.5t73 -37.5q54 0 84.5 42t30.5 127v255h74v-479zM180 637q0 -26 18.5 -44.5t44.5 -18.5t43.5 18.5t17.5 44.5t-17.5 43.5t-43.5 17.5t-44.5 -17.5t-18.5 -43.5z
M135 637q0 22 8.5 41.5t23 33.5t34 22.5t42.5 8.5q45 0 75.5 -30.5t30.5 -75.5q0 -22 -8.5 -41.5t-22.5 -34.5t-33.5 -23.5t-41.5 -8.5q-23 0 -42.5 8.5t-34 23.5t-23 34.5t-8.5 41.5z" />
    <glyph glyph-name="Uhungarumlaut" unicode="&#x170;" horiz-adv-x="547" 
d="M280 -16q-49 0 -89.5 14t-70 47t-46 87.5t-16.5 136.5v413h80v-425q0 -201 135 -201q77 0 106.5 50t29.5 151v425h79v-411q0 -82 -15 -137t-42 -88.5t-65.5 -47.5t-85.5 -14zM334 839l-155 -108l-32 41l144 123zM499 839l-155 -108l-32 41l144 123z" />
    <glyph glyph-name="uhungarumlaut" unicode="&#x171;" horiz-adv-x="484" 
d="M420 0h-74v66q-28 -47 -63 -64t-68 -17q-27 0 -55 11t-50.5 36t-37 66t-14.5 102v279h74v-274q0 -75 26 -112.5t73 -37.5q54 0 84.5 42t30.5 127v255h74v-479zM281 709l-114 -151l-43 29l98 162zM431 709l-114 -151l-43 29l98 162z" />
    <glyph glyph-name="Uogonek" unicode="&#x172;" horiz-adv-x="547" 
d="M383 -205q-12 -2 -24 -3.5t-22 -1.5q-60 0 -84.5 27.5t-24.5 70.5q0 23 13 50t37 46q-48 0 -88.5 14t-70 47t-45.5 88t-16 136v413h80v-425q0 -201 135 -201q77 0 106.5 50t29.5 151v425h79v-411q0 -116 -29.5 -179t-81.5 -88q-43 -17 -62.5 -40.5t-19.5 -65.5
q0 -18 12 -33.5t38 -15.5q8 0 17 1t21 3v-58z" />
    <glyph glyph-name="uogonek" unicode="&#x173;" horiz-adv-x="484" 
d="M418 -205q-12 -2 -23.5 -3.5t-21.5 -1.5q-60 0 -84.5 26t-24.5 72q0 18 7.5 35.5t19.5 32t27.5 26t31.5 18.5h-4v66q-28 -47 -63 -64t-68 -17q-27 0 -55 11t-50.5 36t-37 66t-14.5 102v279h74v-274q0 -75 26 -112.5t73 -37.5q54 0 84.5 42t30.5 127v255h74v-479
q-16 -2 -32 -10t-28.5 -21t-20.5 -31t-8 -40t12 -35.5t38 -13.5q8 0 16.5 1t20.5 3v-58z" />
    <glyph glyph-name="Wcircumflex" unicode="&#x174;" horiz-adv-x="708" 
d="M380 425q-5 23 -8.5 41.5t-5.5 35.5t-4 33.5t-4 34.5h-4q-2 -17 -4 -32.5t-4 -32t-5.5 -35t-7.5 -42.5l-84 -428h-89l-152 682h79l92 -428q5 -25 9 -43t6.5 -33t5 -28.5t4.5 -28.5h4q5 32 10 68t13 74l87 419h80l89 -426q6 -27 11.5 -65.5t9.5 -69.5h4q5 35 11.5 73.5
t11.5 60.5l86 427h79l-143 -682h-89zM492 783l-28 -44l-107 59l-107 -59l-28 44l135 94z" />
    <glyph glyph-name="wcircumflex" unicode="&#x175;" horiz-adv-x="592" 
d="M466 0h-88l-66 305q-5 22 -8 51.5t-5 49.5h-4q-1 -21 -4.5 -50.5t-8.5 -50.5l-71 -305h-87l-108 479h72l60 -279q7 -32 13 -62.5t10 -56.5h4q3 26 9.5 59.5t12.5 59.5l62 279h76l62 -279q6 -27 12.5 -60t9.5 -59h4q2 25 8.5 58t12.5 61l60 279h72zM431 599l-34 -40
l-101 79l-101 -79l-34 40l135 118z" />
    <glyph glyph-name="Ycircumflex" unicode="&#x176;" horiz-adv-x="458" 
d="M190 277l-184 405h86l108 -242q10 -22 17 -43.5t13 -41.5h2q8 21 15.5 41t17.5 43l102 243h85l-182 -404v-278h-80v277zM364 783l-28 -44l-107 59l-107 -59l-28 44l135 94z" />
    <glyph glyph-name="ycircumflex" unicode="&#x177;" horiz-adv-x="393" 
d="M169 0l-167 479h79l74 -223q10 -29 24 -72t25 -89h2q6 29 18.5 72.5t24.5 88.5l61 223h78l-214 -714h-74zM331 599l-34 -40l-101 79l-101 -79l-34 40l135 118z" />
    <glyph glyph-name="Ydieresis" unicode="&#x178;" horiz-adv-x="458" 
d="M190 277l-184 405h86l108 -242q10 -22 17 -43.5t13 -41.5h2q8 21 15.5 41t17.5 43l102 243h85l-182 -404v-278h-80v277zM105 863h88v-87h-88v87zM265 863h88v-87h-88v87z" />
    <glyph glyph-name="Zacute" unicode="&#x179;" horiz-adv-x="506" 
d="M49 682h408v-69l-328 -539h342v-74h-436v68l328 540h-314v74zM365 825l-160 -89l-29 47l154 104z" />
    <glyph glyph-name="zacute" unicode="&#x17a;" horiz-adv-x="396" 
d="M40 479h316v-58l-237 -356h245v-65h-332v59l238 356h-230v64zM310 672l-141 -118l-37 41l131 131z" />
    <glyph glyph-name="Zdotaccent" unicode="&#x17b;" horiz-adv-x="506" 
d="M49 682h408v-69l-328 -539h342v-74h-436v68l328 540h-314v74zM209 866h88v-87h-88v87z" />
    <glyph glyph-name="zdotaccent" unicode="&#x17c;" horiz-adv-x="396" 
d="M40 479h316v-58l-237 -356h245v-65h-332v59l238 356h-230v64zM155 684h88v-87h-88v87z" />
    <glyph glyph-name="Zcaron" unicode="&#x17d;" horiz-adv-x="506" 
d="M49 682h408v-69l-328 -539h342v-74h-436v68l328 540h-314v74zM118 833l28 44l107 -59l107 59l28 -44l-135 -94z" />
    <glyph glyph-name="zcaron" unicode="&#x17e;" horiz-adv-x="396" 
d="M40 479h316v-58l-237 -356h245v-65h-332v59l238 356h-230v64zM63 677l34 40l101 -79l101 79l34 -40l-135 -118z" />
    <glyph glyph-name="longs" unicode="&#x17f;" horiz-adv-x="212" 
d="M68 567q0 82 33.5 120t96.5 38q11 0 25 -2t24 -4v-63q-9 2 -21 3.5t-21 1.5q-33 0 -48 -20t-15 -65v-576h-74v567z" />
    <glyph glyph-name="florin" unicode="&#x192;" horiz-adv-x="483" 
d="M187 -99q-7 -45 -19.5 -75.5t-31 -48.5t-43 -26t-54.5 -8q-14 0 -29 2t-25 4v64q8 -2 22 -4t25 -2q35 0 53.5 21t25.5 64l83 523h-90v64h100l11 65q14 82 49.5 118t98.5 36q11 0 27.5 -1.5t26.5 -3.5v-64q-8 2 -21.5 3.5t-22.5 1.5q-38 0 -56.5 -20t-26.5 -65l-12 -70
h105v-64h-115z" />
    <glyph glyph-name="Scommaaccent" unicode="&#x218;" horiz-adv-x="460" 
d="M330 540q-5 42 -29 64t-66 22q-47 0 -73.5 -25t-26.5 -70q0 -23 5 -40.5t19 -34t40.5 -32.5t68.5 -34q44 -19 73.5 -42.5t47.5 -50.5t26 -58.5t8 -67.5q0 -34 -12 -67.5t-36.5 -60t-61.5 -43t-87 -16.5q-48 0 -84 13.5t-61 37.5t-38.5 57.5t-15.5 73.5h82q2 -57 33 -83.5
t84 -26.5q30 0 51.5 9.5t36 25t21 35.5t6.5 41q0 27 -5.5 49.5t-19.5 41.5t-37.5 35.5t-60.5 31.5q-50 20 -81.5 43.5t-50.5 49.5t-26 54t-7 57q0 38 14 69t38 53.5t57 34.5t71 12q48 0 81.5 -13.5t54.5 -36t31 -51t12 -57.5h-82zM186 -68h88v-65q0 -32 -10 -57.5t-20 -36.5
h-45q20 32 23 72h-36v87z" />
    <glyph glyph-name="scommaaccent" unicode="&#x219;" horiz-adv-x="355" 
d="M244 370q-4 26 -21.5 42t-44.5 16q-30 0 -47.5 -16t-17.5 -46q0 -15 3.5 -26.5t13 -21.5t25.5 -19.5t41 -20.5q39 -17 64 -34.5t39.5 -36.5t19.5 -39t5 -43q0 -27 -10 -52.5t-29.5 -45t-48.5 -31.5t-66 -12q-66 0 -106.5 38.5t-45.5 100.5h72q2 -32 21.5 -52.5
t60.5 -20.5q42 0 60.5 22.5t18.5 49.5q0 25 -17.5 47t-66.5 44q-35 15 -59 30.5t-39 33.5t-21.5 40t-6.5 49q0 26 9.5 49t27 40.5t43 28t57.5 10.5t56.5 -11t41.5 -28.5t26 -39.5t11 -45h-69zM126 -68h88v-65q0 -32 -10 -57.5t-20 -36.5h-45q20 32 23 72h-36v87z" />
    <glyph glyph-name="uni021A" unicode="&#x21a;" horiz-adv-x="387" 
d="M154 608h-145v74h369v-74h-145v-608h-79v608zM149 -68h88v-65q0 -32 -10 -57.5t-20 -36.5h-45q20 32 23 72h-36v87z" />
    <glyph glyph-name="uni021B" unicode="&#x21b;" horiz-adv-x="264" 
d="M12 479h54v154h74v-154h102v-64h-102v-275q0 -45 15 -63t50 -18q11 0 21.5 1t19.5 3v-63q-11 -3 -27.5 -4.5t-27.5 -1.5q-63 0 -94 34t-31 115v272h-54v64zM129 -68h88v-65q0 -32 -10 -57.5t-20 -36.5h-45q20 32 23 72h-36v87z" />
    <glyph glyph-name="uni0237" unicode="&#x237;" horiz-adv-x="201" 
d="M137 479v-565q0 -81 -30 -115t-95 -34q-11 0 -20 1.5t-19 3.5v64q5 -2 15.5 -3t18.5 -1q33 0 45 18.5t12 62.5v568h73z" />
    <glyph glyph-name="circumflex" unicode="&#x2c6;" horiz-adv-x="318" 
d="M294 599l-34 -40l-101 79l-101 -79l-34 40l135 118z" />
    <glyph glyph-name="caron" unicode="&#x2c7;" horiz-adv-x="318" 
d="M24 677l34 40l101 -79l101 79l34 -40l-135 -118z" />
    <glyph glyph-name="uni02C9" unicode="&#x2c9;" horiz-adv-x="318" 
d="M30 609v59h258v-59h-258z" />
    <glyph glyph-name="breve" unicode="&#x2d8;" horiz-adv-x="318" 
d="M305 714q-2 -32 -13 -58.5t-30 -46.5t-45 -31t-58 -11q-33 0 -59 11t-45 31t-30 46.5t-12 58.5h61q2 -37 24.5 -62t60.5 -25t60.5 25t24.5 62h61z" />
    <glyph glyph-name="dotaccent" unicode="&#x2d9;" horiz-adv-x="318" 
d="M116 684h88v-87h-88v87z" />
    <glyph glyph-name="ring" unicode="&#x2da;" horiz-adv-x="318" 
d="M97 637q0 -26 18.5 -44.5t44.5 -18.5t43.5 18.5t17.5 44.5t-17.5 43.5t-43.5 17.5t-44.5 -17.5t-18.5 -43.5zM52 637q0 22 8.5 41.5t23 33.5t34 22.5t42.5 8.5q45 0 75.5 -30.5t30.5 -75.5q0 -22 -8.5 -41.5t-22.5 -34.5t-33.5 -23.5t-41.5 -8.5q-23 0 -42.5 8.5
t-34 23.5t-23 34.5t-8.5 41.5z" />
    <glyph glyph-name="ogonek" unicode="&#x2db;" horiz-adv-x="318" 
d="M234 -205q-12 -2 -24 -3.5t-22 -1.5q-60 0 -84.5 27.5t-24.5 70.5q0 28 19 59t52 53h53q-32 -24 -44.5 -50t-12.5 -52q0 -18 12 -33.5t38 -15.5q8 0 17 1t21 3v-58z" />
    <glyph glyph-name="tilde" unicode="&#x2dc;" horiz-adv-x="318" 
d="M13 592q2 52 22 82t62 30q22 0 37 -8.5t29 -19.5q14 -12 23.5 -19t15.5 -10t10 -4t8 -1q14 0 22.5 10t9.5 45h53q-2 -55 -24.5 -83.5t-60.5 -28.5q-20 0 -36 7t-33 21t-30.5 24t-22.5 10q-14 0 -22 -12.5t-10 -42.5h-53z" />
    <glyph glyph-name="hungarumlaut" unicode="&#x2dd;" horiz-adv-x="318" 
d="M198 709l-114 -151l-43 29l98 162zM348 709l-114 -151l-43 29l98 162z" />
    <glyph glyph-name="uni0374" unicode="&#x374;" horiz-adv-x="214" 
d="M187 675l-87 -248l-53 17l72 254z" />
    <glyph glyph-name="uni0375" unicode="&#x375;" horiz-adv-x="214" 
d="M27 -212l87 248l53 -17l-72 -254z" />
    <glyph glyph-name="uni037E" unicode="&#x37e;" horiz-adv-x="224" 
d="M60 108h104v-52q0 -36 -5 -65t-12 -52.5t-15.5 -42t-15.5 -31.5h-53q17 29 24.5 63.5t10.5 71.5h-38v108zM60 462h104v-108h-104v108z" />
    <glyph glyph-name="tonos" unicode="&#x384;" horiz-adv-x="285" 
d="M121 753l79 -17l-54 -193l-61 13z" />
    <glyph glyph-name="dieresistonos" unicode="&#x385;" horiz-adv-x="323" 
d="M0 652h88v-87h-88v87zM235 652h88v-87h-88v87zM152 753l78 -17l-54 -193l-60 13z" />
    <glyph glyph-name="Alphatonos" unicode="&#x386;" horiz-adv-x="559" 
d="M56 698l79 -17l-54 -193l-61 13zM259 682h73l225 -682h-87l-56 185h-245l-59 -185h-83zM191 258h200l-59 194q-8 28 -19 64.5t-19 66.5h-4q-8 -32 -18 -67.5t-19 -64.5z" />
    <glyph glyph-name="anoteleia" unicode="&#x387;" horiz-adv-x="214" 
d="M55 479h104v-108h-104v108z" />
    <glyph glyph-name="Epsilontonos" unicode="&#x388;" horiz-adv-x="581" 
d="M56 698l79 -17l-54 -193l-61 13zM525 608h-236v-218h226v-74h-226v-242h244v-74h-324v682h316v-74z" />
    <glyph glyph-name="Etatonos" unicode="&#x389;" horiz-adv-x="745" 
d="M595 316h-305v-316h-80v682h80v-292h305v292h80v-682h-80v316zM56 698l79 -17l-54 -193l-61 13z" />
    <glyph glyph-name="Iotatonos" unicode="&#x38a;" horiz-adv-x="358" 
d="M209 682h80v-682h-80v682zM56 698l79 -17l-54 -193l-61 13z" />
    <glyph glyph-name="Omicrontonos" unicode="&#x38c;" horiz-adv-x="736" 
d="M235 340q0 -71 15 -124t40.5 -88.5t60.5 -53.5t76 -18t76 18t61 53.5t41 89t15 124.5q0 69 -14 122.5t-39.5 89.5t-61 54.5t-78.5 18.5q-41 0 -76 -18t-60.5 -54t-40.5 -89.5t-15 -124.5zM153 340q0 81 20.5 147t57.5 113t87 72.5t110 25.5q64 0 115 -26t86.5 -73.5
t54.5 -113t19 -144.5q0 -83 -21 -149t-57.5 -112t-87 -71t-109.5 -25q-71 0 -123 29t-85.5 78.5t-50 113.5t-16.5 135zM56 698l79 -17l-54 -193l-61 13z" />
    <glyph glyph-name="Upsilontonos" unicode="&#x38e;" horiz-adv-x="618" 
d="M350 138q0 203 -72 359q-14 29 -26 52t-25 44t-29 42t-37 47h91q32 -41 52 -78t33 -66q19 -42 32 -86.5t19 -86.5h4q6 38 19 82t32 88q14 33 36 72.5t50 74.5h88q-35 -42 -63.5 -89.5t-55.5 -104.5q-36 -76 -52 -160.5t-16 -187.5v-140h-80v138zM56 698l79 -17l-54 -193
l-61 13z" />
    <glyph glyph-name="Omegatonos" unicode="&#x38f;" horiz-adv-x="741" 
d="M476 0v124q71 18 108 85.5t37 175.5q0 53 -12.5 98.5t-36 78.5t-58 52t-78.5 19q-43 0 -78.5 -18t-60.5 -50.5t-38.5 -78.5t-13.5 -102q0 -117 41 -180t106 -80v-124h-227v72h155v10q-74 32 -115.5 108.5t-41.5 197.5q0 71 21.5 129.5t58.5 100t87 64.5t107 23
q61 0 110 -24.5t83.5 -67t53.5 -100t19 -123.5q0 -109 -37 -187.5t-118 -120.5v-10h155v-72h-227zM56 698l79 -17l-54 -193l-61 13z" />
    <glyph glyph-name="iotadieresistonos" unicode="&#x390;" horiz-adv-x="215" 
d="M135 479v-336q0 -44 8 -62t33 -18q13 0 25 4v-66q-10 -3 -21.5 -5t-23.5 -2q-52 0 -73.5 33.5t-21.5 111.5v340h74zM-64 652h88v-87h-88v87zM171 652h88v-87h-88v87zM88 753l78 -17l-54 -193l-60 13z" />
    <glyph glyph-name="Alpha" unicode="&#x391;" horiz-adv-x="534" 
d="M234 682h73l225 -682h-87l-56 185h-245l-59 -185h-83zM166 258h200l-59 194q-8 28 -19 64.5t-19 66.5h-4q-8 -32 -18 -67.5t-19 -64.5z" />
    <glyph glyph-name="Beta" unicode="&#x392;" horiz-adv-x="498" 
d="M69 682h161q94 0 145 -47t51 -126q0 -58 -30 -93.5t-71 -51.5v-2q68 -12 101.5 -59t33.5 -111q0 -41 -13 -76t-39.5 -61t-65.5 -40.5t-91 -14.5h-182v682zM377 193q0 58 -33.5 90.5t-98.5 32.5h-96v-242h98q66 0 98 31t32 88zM344 502q0 53 -31 79.5t-87 26.5h-77v-218
h82q50 0 81.5 30.5t31.5 81.5z" />
    <glyph glyph-name="Gamma" unicode="&#x393;" horiz-adv-x="402" 
d="M69 682h324v-74h-244v-608h-80v682z" />
    <glyph glyph-name="Delta" unicode="&#x394;" horiz-adv-x="534" 
d="M234 682h73l225 -682h-530zM107 72h317l-117 380q-8 28 -19 64.5t-19 66.5h-4q-8 -32 -18 -67.5t-19 -64.5z" />
    <glyph glyph-name="Epsilon" unicode="&#x395;" horiz-adv-x="441" 
d="M385 608h-236v-218h226v-74h-226v-242h244v-74h-324v682h316v-74z" />
    <glyph glyph-name="Zeta" unicode="&#x396;" horiz-adv-x="506" 
d="M49 682h408v-69l-328 -539h342v-74h-436v68l328 540h-314v74z" />
    <glyph glyph-name="Eta" unicode="&#x397;" horiz-adv-x="605" 
d="M455 316h-305v-316h-80v682h80v-292h305v292h80v-682h-80v316z" />
    <glyph glyph-name="Theta" unicode="&#x398;" horiz-adv-x="616" 
d="M115 340q0 -71 15 -124t40.5 -88.5t60.5 -53.5t76 -18t76 18t61 53.5t41 89t15 124.5q0 69 -14 122.5t-39.5 89.5t-61 54.5t-78.5 18.5q-41 0 -76 -18t-60.5 -54t-40.5 -89.5t-15 -124.5zM33 340q0 81 20.5 147t57.5 113t87 72.5t110 25.5q64 0 115 -26t86.5 -73.5
t54.5 -113t19 -144.5q0 -83 -21 -149t-57.5 -112t-87 -71t-109.5 -25q-71 0 -123 29t-85.5 78.5t-50 113.5t-16.5 135zM175 380h265v-74h-265v74z" />
    <glyph glyph-name="Iota" unicode="&#x399;" horiz-adv-x="218" 
d="M69 682h80v-682h-80v682z" />
    <glyph glyph-name="Kappa" unicode="&#x39a;" horiz-adv-x="521" 
d="M210 331l-60 -73v-258h-80v682h80v-317l260 317h95l-244 -292l260 -390h-98z" />
    <glyph glyph-name="Lambda" unicode="&#x39b;" horiz-adv-x="501" 
d="M210 682h78l213 -682h-80l-135 440q-11 35 -20 69t-17 69q-8 -35 -17.5 -71t-20.5 -71l-131 -436h-80z" />
    <glyph glyph-name="Mu" unicode="&#x39c;" horiz-adv-x="711" 
d="M676 0h-80l-35 409q-4 46 -6.5 87t-4.5 87h-4q-9 -40 -21 -90.5t-23 -92.5l-106 -400h-81l-107 400q-11 39 -23 89t-19 94h-4q-1 -32 -3.5 -74t-8.5 -100l-40 -409h-75l68 682h100l120 -438l7.5 -30t9 -38t8.5 -40l7 -35h4q3 16 7 35.5t8.5 39.5t9 38l7.5 30l118 438h100
z" />
    <glyph glyph-name="Nu" unicode="&#x39d;" horiz-adv-x="587" 
d="M142 549q0 -14 0.5 -33.5t1 -40.5t0.5 -40.5v-32.5v-402h-75v682h76l179 -322q46 -83 75.5 -140.5t42.5 -87.5h3q-1 35 -1.5 68.5t-0.5 68.5v413h75v-682h-76l-180 325q-27 49 -46.5 85.5t-33 62.5t-22 44t-14.5 32h-4z" />
    <glyph glyph-name="Xi" unicode="&#x39e;" horiz-adv-x="441" 
d="M56 682h329v-74h-329v74zM48 74h345v-74h-345v74zM66 390h309v-74h-309v74z" />
    <glyph glyph-name="Omicron" unicode="&#x39f;" horiz-adv-x="616" 
d="M115 340q0 -71 15 -124t40.5 -88.5t60.5 -53.5t76 -18t76 18t61 53.5t41 89t15 124.5q0 69 -14 122.5t-39.5 89.5t-61 54.5t-78.5 18.5q-41 0 -76 -18t-60.5 -54t-40.5 -89.5t-15 -124.5zM33 340q0 81 20.5 147t57.5 113t87 72.5t110 25.5q64 0 115 -26t86.5 -73.5
t54.5 -113t19 -144.5q0 -83 -21 -149t-57.5 -112t-87 -71t-109.5 -25q-71 0 -123 29t-85.5 78.5t-50 113.5t-16.5 135z" />
    <glyph glyph-name="Pi" unicode="&#x3a0;" horiz-adv-x="585" 
d="M435 608h-285v-608h-80v682h445v-682h-80v608z" />
    <glyph glyph-name="Rho" unicode="&#x3a1;" horiz-adv-x="486" 
d="M373 469q0 31 -7.5 56.5t-23 44t-40 28.5t-58.5 10h-94v-274h92q39 0 64 10.5t40 29t21 43t6 52.5zM70 682h172q47 0 86 -12.5t67.5 -38.5t44.5 -66t16 -94q0 -99 -52.5 -155t-167.5 -56h-86v-260h-80v682z" />
    <glyph glyph-name="Sigma" unicode="&#x3a3;" horiz-adv-x="486" 
d="M134 74h317v-74h-416v68l207 269l-193 276v69h388v-74h-289l190 -271z" />
    <glyph glyph-name="Tau" unicode="&#x3a4;" horiz-adv-x="387" 
d="M154 608h-145v74h369v-74h-145v-608h-79v608z" />
    <glyph glyph-name="Upsilon" unicode="&#x3a5;" horiz-adv-x="458" 
d="M190 138q0 203 -72 359q-14 29 -26 52t-25 44t-29 42t-37 47h91q32 -41 52 -78t33 -66q19 -42 32 -86.5t19 -86.5h4q6 38 19 82t32 88q14 33 36 72.5t50 74.5h88q-35 -42 -63.5 -89.5t-55.5 -104.5q-36 -76 -52 -160.5t-16 -187.5v-140h-80v138z" />
    <glyph glyph-name="Phi" unicode="&#x3a6;" horiz-adv-x="648" 
d="M615 345q0 -60 -18.5 -109t-52 -85t-79.5 -57.5t-101 -25.5v-78h-80v77q-65 5 -112 29.5t-78 62t-46 85.5t-15 100q0 60 18.5 109t52 85t79.5 57.5t101 26.5v70h80v-70q64 -5 111.5 -29.5t78.5 -62t46 -85.5t15 -100zM533 345q0 48 -13 85t-35.5 63t-53.5 40.5t-67 16.5
v-410q36 1 67 15.5t53.5 41t35.5 63.5t13 85zM115 345q0 -48 13 -85t35.5 -63.5t53.5 -41t67 -15.5v410q-36 -2 -67 -16.5t-53.5 -40.5t-35.5 -63t-13 -85z" />
    <glyph glyph-name="Chi" unicode="&#x3a7;" horiz-adv-x="462" 
d="M192 509q11 -23 21.5 -45t19.5 -42h2q8 23 18.5 47t19.5 42l86 171h90l-175 -326l183 -356h-93l-89 182q-11 23 -22 48t-22 53h-1q-11 -24 -24 -52t-24 -51l-87 -180h-90l182 352l-176 330h93z" />
    <glyph glyph-name="Psi" unicode="&#x3a8;" horiz-adv-x="619" 
d="M270 154q-50 0 -89.5 14.5t-67 45t-42.5 79.5t-15 119v270h80v-270q0 -92 30 -139t104 -47v456h80v-456q76 1 105 47t29 139v270h79v-270q0 -70 -14.5 -119t-42.5 -80t-67.5 -45t-88.5 -14v-164h-80v164z" />
    <glyph glyph-name="Omega" unicode="&#x3a9;" horiz-adv-x="616" 
d="M351 0v124q71 18 108 85.5t37 175.5q0 53 -12.5 98.5t-36 78.5t-58 52t-78.5 19q-43 0 -78.5 -18t-60.5 -50.5t-38.5 -78.5t-13.5 -102q0 -117 41 -180t106 -80v-124h-227v72h155v10q-74 32 -115.5 108.5t-41.5 197.5q0 71 21.5 129.5t58.5 100t87 64.5t107 23
q61 0 110 -24.5t83.5 -67t53.5 -100t19 -123.5q0 -109 -37 -187.5t-118 -120.5v-10h155v-72h-227z" />
    <glyph glyph-name="Iotadieresis" unicode="&#x3aa;" horiz-adv-x="218" 
d="M69 682h80v-682h-80v682zM-15 863h88v-87h-88v87zM145 863h88v-87h-88v87z" />
    <glyph glyph-name="Upsilondieresis" unicode="&#x3ab;" horiz-adv-x="458" 
d="M190 138q0 203 -72 359q-14 29 -26 52t-25 44t-29 42t-37 47h91q32 -41 52 -78t33 -66q19 -42 32 -86.5t19 -86.5h4q6 38 19 82t32 88q14 33 36 72.5t50 74.5h88q-35 -42 -63.5 -89.5t-55.5 -104.5q-36 -76 -52 -160.5t-16 -187.5v-140h-80v138zM105 863h88v-87h-88v87z
M265 863h88v-87h-88v87z" />
    <glyph glyph-name="alphatonos" unicode="&#x3ac;" horiz-adv-x="515" 
d="M473 479q-2 -34 -5.5 -64.5t-8.5 -61.5t-13 -64t-18 -72q5 -53 20.5 -109.5t33.5 -107.5h-79q-5 20 -11.5 50.5t-9.5 54.5q-26 -60 -67 -91t-99 -31q-45 0 -79.5 20t-58 55t-35.5 82t-12 100q0 55 14.5 102t40.5 81t61.5 53t76.5 19q121 0 168 -149q1 14 2.5 32l3 36
t2 35t0.5 30h73zM107 240q0 -35 6 -68.5t19 -59.5t34.5 -42.5t53.5 -16.5q53 0 93 44t54 131q-26 198 -140 198q-30 0 -52.5 -16t-37.5 -42.5t-22.5 -60t-7.5 -67.5zM228 753l79 -17l-54 -193l-61 13z" />
    <glyph glyph-name="epsilontonos" unicode="&#x3ad;" horiz-adv-x="386" 
d="M356 112q-13 -67 -58 -98.5t-105 -31.5q-38 0 -67 12t-48.5 32.5t-29.5 48.5t-10 60q0 42 22.5 73.5t54.5 42.5q-31 14 -48.5 40t-17.5 62q0 33 11 59.5t31 44.5t47.5 28t59.5 10q57 0 98 -33t51 -91h-79q-8 29 -27.5 42.5t-42.5 13.5q-37 0 -56 -21t-19 -53
q0 -29 17.5 -50t49.5 -21h54v-64h-54q-14 0 -27.5 -5.5t-24.5 -16t-18 -26t-7 -35.5q0 -35 20 -60t60 -25q33 0 56.5 16.5t28.5 45.5h78zM189 753l79 -17l-54 -193l-61 13z" />
    <glyph glyph-name="etatonos" unicode="&#x3ae;" horiz-adv-x="492" 
d="M138 413q40 81 139 81q27 0 55 -11t50.5 -36t37 -66t14.5 -102v-514h-74v509q0 75 -26 113t-73 38q-54 0 -84.5 -42.5t-30.5 -127.5v-255h-74v372q0 26 -8 38t-28 12q-5 0 -11.5 -1t-9.5 -2v67q15 5 40 5q12 0 25 -3.5t24.5 -12.5t19.5 -24t11 -38h3zM243 753l79 -17
l-54 -193l-61 13z" />
    <glyph glyph-name="iotatonos" unicode="&#x3af;" horiz-adv-x="215" 
d="M135 479v-336q0 -44 8 -62t33 -18q13 0 25 4v-66q-10 -3 -21.5 -5t-23.5 -2q-52 0 -73.5 33.5t-21.5 111.5v340h74zM91 753l79 -17l-54 -193l-61 13z" />
    <glyph glyph-name="upsilondieresistonos" unicode="&#x3b0;" horiz-adv-x="469" 
d="M132 205q0 -43 6.5 -71.5t19.5 -46t31 -25t42 -7.5q25 0 46.5 9t37 29.5t24 54.5t8.5 84q0 76 -14.5 136t-42.5 111h74q29 -54 44 -113t15 -130q0 -68 -14.5 -116t-40 -78t-61 -43.5t-77.5 -13.5q-36 0 -67.5 10t-55 35t-36.5 66t-13 104v279h74v-274zM63 652h88v-87h-88
v87zM298 652h88v-87h-88v87zM215 753l78 -17l-54 -193l-60 13z" />
    <glyph glyph-name="alpha" unicode="&#x3b1;" horiz-adv-x="515" 
d="M473 479q-2 -34 -5.5 -64.5t-8.5 -61.5t-13 -64t-18 -72q5 -53 20.5 -109.5t33.5 -107.5h-79q-5 20 -11.5 50.5t-9.5 54.5q-26 -60 -67 -91t-99 -31q-45 0 -79.5 20t-58 55t-35.5 82t-12 100q0 55 14.5 102t40.5 81t61.5 53t76.5 19q121 0 168 -149q1 14 2.5 32l3 36
t2 35t0.5 30h73zM107 240q0 -35 6 -68.5t19 -59.5t34.5 -42.5t53.5 -16.5q53 0 93 44t54 131q-26 198 -140 198q-30 0 -52.5 -16t-37.5 -42.5t-22.5 -60t-7.5 -67.5z" />
    <glyph glyph-name="beta" unicode="&#x3b2;" horiz-adv-x="488" 
d="M316 405q61 -16 99.5 -69t38.5 -129q0 -53 -14.5 -94.5t-39.5 -70t-59 -43.5t-73 -15q-51 0 -82 24t-48 61v-304h-74v749q0 110 45 160.5t133 50.5q40 0 71 -13t52 -36t32 -54t11 -68q0 -32 -8 -56t-21 -42t-29.5 -30t-33.5 -19v-2zM220 426q51 0 81.5 31t30.5 90
q0 20 -5.5 40t-16.5 35.5t-28 25t-41 9.5q-26 0 -45 -7t-32 -23.5t-19.5 -44.5t-6.5 -70v-271q0 -95 33 -142t87 -47q55 0 87.5 38.5t32.5 116.5q0 35 -11 63.5t-30 49t-45 31.5t-56 11h-35v64h19z" />
    <glyph glyph-name="gamma" unicode="&#x3b3;" horiz-adv-x="386" 
d="M392 479q-35 -54 -64.5 -119t-51 -135.5t-33.5 -144.5t-12 -147v-168h-74v161q0 145 -39.5 280t-123.5 273h82q48 -85 77 -167t43 -169h2q11 88 39 173t73 163h82z" />
    <glyph glyph-name="delta" unicode="&#x3b4;" horiz-adv-x="462" 
d="M107 208q0 -29 8 -57t23 -50t37 -35.5t51 -13.5q59 0 95 43.5t36 113.5q0 62 -32 111.5t-96 84.5q-60 -23 -91 -74t-31 -123zM307 596q-6 35 -26 49.5t-48 14.5q-33 0 -49.5 -21.5t-16.5 -53.5q0 -15 3 -27.5t12.5 -25.5t26 -27t43.5 -30q49 -30 83 -60t55.5 -62
t31 -67.5t9.5 -76.5q0 -54 -16 -96t-44 -71t-65.5 -44t-79.5 -15q-46 0 -82 18t-61 49t-38.5 72.5t-13.5 87.5q0 78 39.5 138.5t108.5 86.5v4q-35 23 -59 60.5t-24 82.5q0 27 9 52.5t26.5 46t43.5 32.5t61 12q60 0 96 -34.5t47 -94.5h-72z" />
    <glyph glyph-name="epsilon" unicode="&#x3b5;" horiz-adv-x="386" 
d="M356 112q-13 -67 -58 -98.5t-105 -31.5q-38 0 -67 12t-48.5 32.5t-29.5 48.5t-10 60q0 42 22.5 73.5t54.5 42.5q-31 14 -48.5 40t-17.5 62q0 33 11 59.5t31 44.5t47.5 28t59.5 10q57 0 98 -33t51 -91h-79q-8 29 -27.5 42.5t-42.5 13.5q-37 0 -56 -21t-19 -53
q0 -29 17.5 -50t49.5 -21h54v-64h-54q-14 0 -27.5 -5.5t-24.5 -16t-18 -26t-7 -35.5q0 -35 20 -60t60 -25q33 0 56.5 16.5t28.5 45.5h78z" />
    <glyph glyph-name="zeta" unicode="&#x3b6;" horiz-adv-x="350" 
d="M231 -207q15 21 26.5 52.5t11.5 62.5q0 45 -20.5 67.5t-62.5 30.5q-40 8 -68.5 24t-46.5 42.5t-26.5 64.5t-8.5 91q0 70 19.5 134.5t50 120t68.5 100t76 73.5h-186v64h272v-60q-107 -81 -165.5 -194.5t-58.5 -238.5q0 -38 5 -64.5t17 -43.5t31.5 -27t49.5 -16
q69 -14 99.5 -55t30.5 -102q0 -29 -9 -62t-26 -64h-79z" />
    <glyph glyph-name="eta" unicode="&#x3b7;" horiz-adv-x="492" 
d="M138 413q40 81 139 81q27 0 55 -11t50.5 -36t37 -66t14.5 -102v-514h-74v509q0 75 -26 113t-73 38q-54 0 -84.5 -42.5t-30.5 -127.5v-255h-74v372q0 26 -8 38t-28 12q-5 0 -11.5 -1t-9.5 -2v67q15 5 40 5q12 0 25 -3.5t24.5 -12.5t19.5 -24t11 -38h3z" />
    <glyph glyph-name="theta" unicode="&#x3b8;" horiz-adv-x="460" 
d="M31 358q0 102 17.5 172t46 113.5t64.5 62.5t73 19q35 0 70 -17t63.5 -59t46 -112t17.5 -175q0 -117 -20 -191t-49.5 -115.5t-64 -56.5t-64.5 -15q-35 0 -71 17t-64.5 59t-46.5 114.5t-18 183.5zM232 53q22 0 43 14t37.5 46.5t27.5 84.5t13 128h-247q2 -74 12 -126
t26.5 -84.5t39 -47.5t48.5 -15zM230 656q-24 0 -45.5 -14t-38 -45t-27.5 -80.5t-13 -121.5h247q-4 134 -36 197.5t-87 63.5z" />
    <glyph glyph-name="iota" unicode="&#x3b9;" horiz-adv-x="215" 
d="M135 479v-336q0 -44 8 -62t33 -18q13 0 25 4v-66q-10 -3 -21.5 -5t-23.5 -2q-52 0 -73.5 33.5t-21.5 111.5v340h74z" />
    <glyph glyph-name="kappa" unicode="&#x3ba;" horiz-adv-x="410" 
d="M139 256l168 223h86l-177 -221l189 -258h-89zM64 479h73v-479h-73v479z" />
    <glyph glyph-name="lambda" unicode="&#x3bb;" horiz-adv-x="410" 
d="M344 126q11 -38 24 -50.5t30 -12.5q5 0 10.5 1t10.5 3v-67q-9 -4 -20 -5t-18 -1q-38 0 -62.5 23.5t-43.5 86.5l-58 197q-6 20 -10 42t-7 48h-3q-4 -21 -10.5 -47.5t-13.5 -45.5l-99 -298h-79l167 478l-35 118q-10 34 -21.5 47t-30.5 13q-7 0 -14 -1t-12 -3v68q17 5 31 5
q49 0 73.5 -23.5t41.5 -79.5z" />
    <glyph glyph-name="mu" unicode="&#x3bc;" horiz-adv-x="509" 
d="M64 479h76v-274q0 -72 24 -112t75 -40q54 0 82 44.5t28 125.5v256h77v-366q0 -26 8 -38t28 -12q5 0 11.5 1t9.5 2v-67q-15 -5 -40 -5t-48.5 16t-31.5 56h-3q-26 -44 -60 -63.5t-76 -19.5q-21 0 -44 8.5t-48 28.5l-3 -2q7 -27 9 -59t2 -63v-131h-76v714z" />
    <glyph glyph-name="nu" unicode="&#x3bd;" horiz-adv-x="379" 
d="M374 479q-4 -63 -14.5 -120.5t-31 -115t-53 -117t-80.5 -126.5h-50l-149 479h77l78 -267q3 -9 7 -23.5t8.5 -32t8.5 -34.5t7 -30h2q30 51 50.5 98t34 93.5t20 94.5t8.5 101h77z" />
    <glyph glyph-name="xi" unicode="&#x3be;" horiz-adv-x="357" 
d="M185 6q-43 12 -71.5 30.5t-46 44.5t-24.5 60t-7 78q0 63 30.5 117t85.5 82q-34 17 -54 45.5t-20 76.5q0 17 5.5 34.5t15.5 33.5t24 28.5t31 19.5h-87v64h252v-64h-33q-67 0 -100.5 -29t-33.5 -82q0 -42 23 -68t65 -26h58v-64h-47q-69 0 -104 -44t-35 -123
q0 -33 4.5 -56.5t15.5 -40.5t29.5 -28.5t47.5 -19.5q38 -11 63.5 -25t40.5 -32t21.5 -41t6.5 -52t-8.5 -65t-25.5 -67h-77q15 24 25 57.5t10 65.5q0 34 -17.5 55.5t-62.5 34.5z" />
    <glyph glyph-name="omicron" unicode="&#x3bf;" horiz-adv-x="499" 
d="M31 240q0 55 16 102t44.5 80.5t69 52.5t88.5 19q50 0 90.5 -19.5t69 -53.5t44 -80.5t15.5 -100.5q0 -53 -15.5 -99.5t-44.5 -81.5t-69.5 -55t-89.5 -20q-48 0 -88.5 19.5t-69 54t-44.5 81.5t-16 101zM107 240q0 -41 10.5 -75t29.5 -59t45 -38.5t57 -13.5q33 0 59.5 14
t45 39t28 59t9.5 74q0 38 -9.5 72t-27.5 59t-44.5 39.5t-60.5 14.5t-60.5 -14t-44.5 -38.5t-27.5 -58.5t-9.5 -74z" />
    <glyph glyph-name="pi" unicode="&#x3c0;" horiz-adv-x="539" 
d="M482 1q-11 -3 -23 -5t-25 -2q-56 0 -79.5 35t-23.5 110v276h-142v-280q0 -44 -4.5 -76.5t-12.5 -58.5h-75q9 29 13.5 66t4.5 75v274q-26 0 -52.5 -6t-47.5 -20v67q21 11 51 17t72 6h369v-64h-102v-272q0 -44 8.5 -62t39.5 -18q16 0 29 5v-67z" />
    <glyph glyph-name="rho" unicode="&#x3c1;" horiz-adv-x="516" 
d="M58 224q0 72 18 123t47.5 84t67.5 48t79 15q46 0 85.5 -18t68.5 -51.5t45 -81t16 -105.5q0 -56 -16 -102.5t-43.5 -80t-65.5 -52.5t-82 -19q-56 0 -91.5 27t-54.5 62v-308h-74v459zM409 238q0 86 -38 137t-102 51q-26 0 -50.5 -10.5t-44 -33t-31 -57.5t-11.5 -84
q0 -43 10.5 -78t29 -59.5t43 -38t52.5 -13.5q64 0 103 49t39 137z" />
    <glyph glyph-name="sigma1" unicode="&#x3c2;" horiz-adv-x="377" 
d="M36 250q0 60 17 106t46 76.5t66.5 46t78.5 15.5q33 0 57 -7t42 -16v-77q-20 15 -45.5 23.5t-51.5 8.5q-59 0 -96.5 -44t-37.5 -132q0 -44 5.5 -73.5t17.5 -48.5t30.5 -31t43.5 -21q75 -28 103.5 -66t28.5 -94q0 -26 -10 -61.5t-24 -61.5h-77q15 24 25 56.5t10 58.5
q0 19 -3.5 33t-12.5 25.5t-24.5 21t-39.5 18.5q-39 15 -67.5 35t-46.5 49t-26.5 68t-8.5 92z" />
    <glyph glyph-name="sigma" unicode="&#x3c3;" horiz-adv-x="493" 
d="M31 233q0 54 15 99t44 78t72.5 51t100.5 18h220v-64h-88q26 -30 42.5 -79t16.5 -103q0 -53 -15 -98.5t-43 -79t-67 -52.5t-87 -19q-47 0 -86 18.5t-66.5 51.5t-43 78.5t-15.5 100.5zM107 233q0 -83 38 -131t97 -48q64 0 99.5 49t35.5 130q0 49 -12.5 95t-42.5 87h-59
q-85 0 -120.5 -48.5t-35.5 -133.5z" />
    <glyph glyph-name="tau" unicode="&#x3c4;" horiz-adv-x="393" 
d="M140 415q-45 0 -75.5 -5.5t-55.5 -19.5v66q21 11 51 17t72 6h232v-64h-135v-272q0 -44 8.5 -62t39.5 -18q16 0 29 4v-66q-11 -3 -23 -5t-25 -2q-54 0 -78.5 33t-24.5 112v276h-15z" />
    <glyph glyph-name="upsilon" unicode="&#x3c5;" horiz-adv-x="469" 
d="M132 205q0 -43 6.5 -71.5t19.5 -46t31 -25t42 -7.5q25 0 46.5 9t37 29.5t24 54.5t8.5 84q0 76 -14.5 136t-42.5 111h74q29 -54 44 -113t15 -130q0 -68 -14.5 -116t-40 -78t-61 -43.5t-77.5 -13.5q-36 0 -67.5 10t-55 35t-36.5 66t-13 104v279h74v-274z" />
    <glyph glyph-name="phi" unicode="&#x3c6;" horiz-adv-x="606" 
d="M575 239q0 -55 -17 -100t-47.5 -78t-74 -52t-96.5 -21v-223h-74v223q-53 2 -96.5 21.5t-74 53t-47.5 79t-17 99.5q0 55 17 100t47.5 78t74 51.5t96.5 20.5v229h74v-229q53 -2 96.5 -21.5t74 -53t47.5 -78.5t17 -99zM501 239q0 40 -12 73.5t-33.5 58t-51 38t-64.5 13.5
v-365q38 0 68 13.5t50.5 38t31.5 58t11 72.5zM105 241q0 -40 12 -74t33.5 -58.5t51 -38t64.5 -13.5v365q-39 0 -69 -13.5t-50.5 -37.5t-31 -57.5t-10.5 -72.5z" />
    <glyph glyph-name="chi" unicode="&#x3c7;" horiz-adv-x="375" 
d="M148 150l-133 329h78l63 -165q11 -27 18.5 -51.5t12.5 -44.5h4q5 20 14 42.5l23 57.5l60 161h79l-142 -328l151 -386h-81l-80 213q-8 22 -17 50t-13 47h-2q-7 -25 -16.5 -48t-18.5 -46l-83 -216h-82z" />
    <glyph glyph-name="psi" unicode="&#x3c8;" horiz-adv-x="621" 
d="M348 -235h-74v235q-49 0 -89 14t-68 42.5t-43.5 72.5t-15.5 104v246h74v-236q0 -95 34 -134.5t108 -39.5v410h74v-410q73 0 106.5 39t33.5 133v238h75v-248q0 -119 -57.5 -175t-157.5 -56v-235z" />
    <glyph glyph-name="omega" unicode="&#x3c9;" horiz-adv-x="661" 
d="M184 479q-27 -51 -44.5 -118.5t-17.5 -143.5q0 -80 21 -122t64 -42q20 0 36 8t27 28.5t17 55.5t6 88v166h74v-166q0 -97 24 -138.5t63 -41.5q38 0 61.5 37.5t23.5 126.5q0 73 -14.5 133.5t-47.5 128.5h73q29 -53 47 -120t18 -140q0 -59 -12.5 -103t-33.5 -73t-49 -44
t-59 -15q-48 0 -83 25t-48 88q-17 -61 -52.5 -87t-77.5 -26q-75 0 -114.5 62.5t-39.5 172.5q0 76 18 140t47 120h73z" />
    <glyph glyph-name="iotadieresis" unicode="&#x3ca;" horiz-adv-x="215" 
d="M135 479v-336q0 -44 8 -62t33 -18q13 0 25 4v-66q-10 -3 -21.5 -5t-23.5 -2q-52 0 -73.5 33.5t-21.5 111.5v340h74zM-12 682h88v-87h-88v87zM128 682h88v-87h-88v87z" />
    <glyph glyph-name="upsilondieresis" unicode="&#x3cb;" horiz-adv-x="469" 
d="M132 205q0 -43 6.5 -71.5t19.5 -46t31 -25t42 -7.5q25 0 46.5 9t37 29.5t24 54.5t8.5 84q0 76 -14.5 136t-42.5 111h74q29 -54 44 -113t15 -130q0 -68 -14.5 -116t-40 -78t-61 -43.5t-77.5 -13.5q-36 0 -67.5 10t-55 35t-36.5 66t-13 104v279h74v-274zM102 682h88v-87
h-88v87zM242 682h88v-87h-88v87z" />
    <glyph glyph-name="omicrontonos" unicode="&#x3cc;" horiz-adv-x="499" 
d="M31 240q0 55 16 102t44.5 80.5t69 52.5t88.5 19q50 0 90.5 -19.5t69 -53.5t44 -80.5t15.5 -100.5q0 -53 -15.5 -99.5t-44.5 -81.5t-69.5 -55t-89.5 -20q-48 0 -88.5 19.5t-69 54t-44.5 81.5t-16 101zM107 240q0 -41 10.5 -75t29.5 -59t45 -38.5t57 -13.5q33 0 59.5 14
t45 39t28 59t9.5 74q0 38 -9.5 72t-27.5 59t-44.5 39.5t-60.5 14.5t-60.5 -14t-44.5 -38.5t-27.5 -58.5t-9.5 -74zM238 753l79 -17l-54 -193l-61 13z" />
    <glyph glyph-name="upsilontonos" unicode="&#x3cd;" horiz-adv-x="469" 
d="M132 205q0 -43 6.5 -71.5t19.5 -46t31 -25t42 -7.5q25 0 46.5 9t37 29.5t24 54.5t8.5 84q0 76 -14.5 136t-42.5 111h74q29 -54 44 -113t15 -130q0 -68 -14.5 -116t-40 -78t-61 -43.5t-77.5 -13.5q-36 0 -67.5 10t-55 35t-36.5 66t-13 104v279h74v-274zM223 753l79 -17
l-54 -193l-61 13z" />
    <glyph glyph-name="omegatonos" unicode="&#x3ce;" horiz-adv-x="661" 
d="M184 479q-27 -51 -44.5 -118.5t-17.5 -143.5q0 -80 21 -122t64 -42q20 0 36 8t27 28.5t17 55.5t6 88v166h74v-166q0 -97 24 -138.5t63 -41.5q38 0 61.5 37.5t23.5 126.5q0 73 -14.5 133.5t-47.5 128.5h73q29 -53 47 -120t18 -140q0 -59 -12.5 -103t-33.5 -73t-49 -44
t-59 -15q-48 0 -83 25t-48 88q-17 -61 -52.5 -87t-77.5 -26q-75 0 -114.5 62.5t-39.5 172.5q0 76 18 140t47 120h73zM324 753l79 -17l-54 -193l-61 13z" />
    <glyph glyph-name="uni0400" unicode="&#x400;" horiz-adv-x="441" 
d="M385 608h-236v-218h226v-74h-226v-242h244v-74h-324v682h316v-74zM150 887l154 -104l-29 -47l-160 89z" />
    <glyph glyph-name="afii10023" unicode="&#x401;" horiz-adv-x="441" 
d="M385 608h-236v-218h226v-74h-226v-242h244v-74h-324v682h316v-74zM103 863h88v-87h-88v87zM263 863h88v-87h-88v87z" />
    <glyph glyph-name="afii10051" unicode="&#x402;" horiz-adv-x="577" 
d="M433 265q0 71 -25.5 107.5t-73.5 36.5q-32 0 -54.5 -13t-36.5 -35t-20.5 -51.5t-6.5 -62.5l1 -247h-80v608h-128v74h337v-74h-129v-201h3q21 32 54.5 52t76.5 20q35 0 65 -12.5t51.5 -38.5t33.5 -65.5t12 -93.5v-302q0 -102 -39 -145.5t-120 -43.5q-20 0 -35 3t-23 5v70
q6 -2 21 -4t31 -2q44 0 64.5 22.5t20.5 88.5v304z" />
    <glyph glyph-name="afii10052" unicode="&#x403;" horiz-adv-x="402" 
d="M69 682h324v-74h-244v-608h-80v682zM355 825l-160 -89l-29 47l154 104z" />
    <glyph glyph-name="afii10053" unicode="&#x404;" horiz-adv-x="580" 
d="M301 698q53 0 94 -15.5t70 -42t46 -61.5t23 -74h-84q-10 57 -49.5 89t-102.5 32q-35 0 -65.5 -14.5t-54.5 -44t-40 -73.5t-21 -104h278v-74h-280q3 -60 17.5 -108.5t39 -82t57.5 -51.5t72 -18q57 0 101 32t56 102h84q-20 -105 -82.5 -155.5t-157.5 -50.5q-60 0 -110 24
t-85 69.5t-54.5 112.5t-19.5 153q0 81 20 146.5t56 112t85 71.5t107 25z" />
    <glyph glyph-name="afii10054" unicode="&#x405;" horiz-adv-x="460" 
d="M330 540q-5 42 -29 64t-66 22q-47 0 -73.5 -25t-26.5 -70q0 -23 5 -40.5t19 -34t40.5 -32.5t68.5 -34q44 -19 73.5 -42.5t47.5 -50.5t26 -58.5t8 -67.5q0 -34 -12 -67.5t-36.5 -60t-61.5 -43t-87 -16.5q-48 0 -84 13.5t-61 37.5t-38.5 57.5t-15.5 73.5h82q2 -57 33 -83.5
t84 -26.5q30 0 51.5 9.5t36 25t21 35.5t6.5 41q0 27 -5.5 49.5t-19.5 41.5t-37.5 35.5t-60.5 31.5q-50 20 -81.5 43.5t-50.5 49.5t-26 54t-7 57q0 38 14 69t38 53.5t57 34.5t71 12q48 0 81.5 -13.5t54.5 -36t31 -51t12 -57.5h-82z" />
    <glyph glyph-name="afii10055" unicode="&#x406;" horiz-adv-x="218" 
d="M69 682h80v-682h-80v682z" />
    <glyph glyph-name="afii10056" unicode="&#x407;" horiz-adv-x="218" 
d="M69 682h80v-682h-80v682zM-15 863h88v-87h-88v87zM145 863h88v-87h-88v87z" />
    <glyph glyph-name="afii10057" unicode="&#x408;" horiz-adv-x="286" 
d="M142 682h80v-509q0 -102 -39 -145.5t-120 -43.5q-20 0 -35 3t-23 5v70q6 -2 22.5 -4t32.5 -2q43 0 62.5 22.5t19.5 88.5v515z" />
    <glyph glyph-name="afii10058" unicode="&#x409;" horiz-adv-x="820" 
d="M707 193q0 58 -31.5 90.5t-100.5 32.5h-95v-242h97q66 0 98 31t32 88zM220 608l-46 -470q-4 -42 -14.5 -70t-26.5 -44.5t-36.5 -23t-44.5 -6.5q-18 0 -29 2.5t-17 4.5v72q13 -5 33 -5q27 0 40.5 16.5t17.5 54.5l52 543h331v-292h81q52 0 94.5 -11t72.5 -35t46 -61.5
t16 -90.5q0 -41 -13 -76t-39.5 -61t-65.5 -40.5t-91 -14.5h-181v608h-180z" />
    <glyph glyph-name="afii10059" unicode="&#x40a;" horiz-adv-x="820" 
d="M561 390q52 0 94.5 -11t72.5 -35t46 -61.5t16 -90.5q0 -41 -13 -76t-39.5 -61t-65.5 -40.5t-91 -14.5h-181v316h-250v-316h-80v682h80v-292h250v292h80v-292h81zM707 193q0 58 -31.5 90.5t-100.5 32.5h-95v-242h97q66 0 98 31t32 88z" />
    <glyph glyph-name="afii10060" unicode="&#x40b;" horiz-adv-x="577" 
d="M217 407h3q21 32 54.5 52t76.5 20q35 0 65 -12.5t51.5 -38.5t33.5 -65.5t12 -93.5v-269h-80v265q0 71 -25.5 107.5t-73.5 36.5q-32 0 -54.5 -13t-36.5 -35t-20.5 -51.5t-6.5 -62.5l1 -247h-80v608h-128v74h337v-74h-129v-201z" />
    <glyph glyph-name="afii10061" unicode="&#x40c;" horiz-adv-x="521" 
d="M150 353v-353h-80v682h80v-322l265 322h95l-271 -323l282 -359h-98zM390 825l-160 -89l-29 47l154 104z" />
    <glyph glyph-name="uni040D" unicode="&#x40d;" horiz-adv-x="605" 
d="M455 389q0 42 0.5 77.5t2.5 77.5h-3q-32 -63 -67.5 -124.5t-73.5 -126.5l-172 -293h-72v682h80v-406q0 -34 -0.5 -65.5t-2.5 -65.5h3q28 53 59 107t64 110l189 320h73v-682h-80v389zM242 887l154 -104l-29 -47l-160 89z" />
    <glyph glyph-name="afii10062" unicode="&#x40e;" horiz-adv-x="458" 
d="M0 682h86l134 -297q10 -22 16.5 -41.5t11.5 -39.5h2q5 19 11 39.5t14 44.5l103 294h85l-212 -561q-27 -72 -60.5 -99.5t-71.5 -27.5q-13 0 -21.5 2t-13.5 4v70q9 -4 23 -4q20 0 36 12t31 52l36 95zM381 879q-2 -28 -13 -52t-30 -42t-45 -28t-58 -10q-33 0 -59 10t-45 28
t-30 42t-12 52h61q2 -29 24.5 -50.5t60.5 -21.5t60.5 21.5t24.5 50.5h61z" />
    <glyph glyph-name="afii10145" unicode="&#x40f;" horiz-adv-x="585" 
d="M150 74h285v608h80v-682h-182v-155h-80v155h-183v682h80v-608z" />
    <glyph glyph-name="afii10017" unicode="&#x410;" horiz-adv-x="534" 
d="M234 682h73l225 -682h-87l-56 185h-245l-59 -185h-83zM166 258h200l-59 194q-8 28 -19 64.5t-19 66.5h-4q-8 -32 -18 -67.5t-19 -64.5z" />
    <glyph glyph-name="afii10018" unicode="&#x411;" horiz-adv-x="480" 
d="M367 195q0 58 -31.5 89.5t-100.5 31.5h-85v-242h87q66 0 98 32t32 89zM238 390q46 0 85 -10.5t67 -34t44 -61t16 -90.5q0 -41 -13 -76.5t-39.5 -61.5t-65.5 -41t-91 -15h-171v682h325v-74h-245v-218h88z" />
    <glyph glyph-name="afii10019" unicode="&#x412;" horiz-adv-x="498" 
d="M69 682h161q94 0 145 -47t51 -126q0 -58 -30 -93.5t-71 -51.5v-2q68 -12 101.5 -59t33.5 -111q0 -41 -13 -76t-39.5 -61t-65.5 -40.5t-91 -14.5h-182v682zM377 193q0 58 -33.5 90.5t-98.5 32.5h-96v-242h98q66 0 98 31t32 88zM344 502q0 53 -31 79.5t-87 26.5h-77v-218
h82q50 0 81.5 30.5t31.5 81.5z" />
    <glyph glyph-name="afii10020" unicode="&#x413;" horiz-adv-x="402" 
d="M69 682h324v-74h-244v-608h-80v682z" />
    <glyph glyph-name="afii10021" unicode="&#x414;" horiz-adv-x="615" 
d="M520 74h80v-229h-80v155h-425v-155h-80v229h21q32 0 59 35.5t33 116.5l33 456h359v-608zM207 225q-4 -52 -15 -89t-34 -62h282v534h-205z" />
    <glyph glyph-name="afii10022" unicode="&#x415;" horiz-adv-x="441" 
d="M385 608h-236v-218h226v-74h-226v-242h244v-74h-324v682h316v-74z" />
    <glyph glyph-name="afii10024" unicode="&#x416;" horiz-adv-x="754" 
d="M337 682h80v-317l232 317h94l-235 -316l246 -366h-97l-240 358v-358h-80v358l-240 -358h-97l246 366l-235 316h94l232 -317v317z" />
    <glyph glyph-name="afii10025" unicode="&#x417;" horiz-adv-x="458" 
d="M104 166q4 -54 36 -82t83 -28q53 0 83.5 37t30.5 97q0 31 -7 56.5t-22 43.5t-39 28t-58 10h-53v74h61q47 0 72.5 32.5t25.5 83.5q0 46 -26 77t-71 31q-81 0 -93 -83h-81q3 37 17 66t37.5 48.5t54 30t65.5 10.5q40 0 72.5 -13t55.5 -37t36 -57t13 -73q0 -49 -24.5 -87.5
t-70.5 -59.5v-3q27 -9 49 -26t37 -40.5t23.5 -52t8.5 -59.5q0 -45 -14.5 -83t-40.5 -65t-62.5 -42.5t-80.5 -15.5t-79.5 13t-62 37t-42 57.5t-18.5 74.5h84z" />
    <glyph glyph-name="afii10026" unicode="&#x418;" horiz-adv-x="605" 
d="M455 389q0 42 0.5 77.5t2.5 77.5h-3q-32 -63 -67.5 -124.5t-73.5 -126.5l-172 -293h-72v682h80v-406q0 -34 -0.5 -65.5t-2.5 -65.5h3q28 53 59 107t64 110l189 320h73v-682h-80v389z" />
    <glyph glyph-name="afii10027" unicode="&#x419;" horiz-adv-x="605" 
d="M455 389q0 42 0.5 77.5t2.5 77.5h-3q-32 -63 -67.5 -124.5t-73.5 -126.5l-172 -293h-72v682h80v-406q0 -34 -0.5 -65.5t-2.5 -65.5h3q28 53 59 107t64 110l189 320h73v-682h-80v389zM450 879q-2 -28 -13 -52t-30 -42t-45 -28t-58 -10q-33 0 -59 10t-45 28t-30 42t-12 52
h61q2 -29 24.5 -50.5t60.5 -21.5t60.5 21.5t24.5 50.5h61z" />
    <glyph glyph-name="afii10028" unicode="&#x41a;" horiz-adv-x="521" 
d="M150 353v-353h-80v682h80v-322l265 322h95l-271 -323l282 -359h-98z" />
    <glyph glyph-name="afii10029" unicode="&#x41b;" horiz-adv-x="606" 
d="M174 138q-4 -42 -14.5 -70t-26.5 -44.5t-36.5 -23t-44.5 -6.5q-18 0 -29 2.5t-17 4.5v72q13 -5 33 -5q27 0 40.5 16.5t17.5 54.5l52 543h387v-682h-80v608h-236z" />
    <glyph glyph-name="afii10030" unicode="&#x41c;" horiz-adv-x="711" 
d="M676 0h-80l-35 409q-4 46 -6.5 87t-4.5 87h-4q-9 -40 -21 -90.5t-23 -92.5l-106 -400h-81l-107 400q-11 39 -23 89t-19 94h-4q-1 -32 -3.5 -74t-8.5 -100l-40 -409h-75l68 682h100l120 -438l7.5 -30t9 -38t8.5 -40l7 -35h4q3 16 7 35.5t8.5 39.5t9 38l7.5 30l118 438h100
z" />
    <glyph glyph-name="afii10031" unicode="&#x41d;" horiz-adv-x="605" 
d="M455 316h-305v-316h-80v682h80v-292h305v292h80v-682h-80v316z" />
    <glyph glyph-name="afii10032" unicode="&#x41e;" horiz-adv-x="616" 
d="M115 340q0 -71 15 -124t40.5 -88.5t60.5 -53.5t76 -18t76 18t61 53.5t41 89t15 124.5q0 69 -14 122.5t-39.5 89.5t-61 54.5t-78.5 18.5q-41 0 -76 -18t-60.5 -54t-40.5 -89.5t-15 -124.5zM33 340q0 81 20.5 147t57.5 113t87 72.5t110 25.5q64 0 115 -26t86.5 -73.5
t54.5 -113t19 -144.5q0 -83 -21 -149t-57.5 -112t-87 -71t-109.5 -25q-71 0 -123 29t-85.5 78.5t-50 113.5t-16.5 135z" />
    <glyph glyph-name="afii10033" unicode="&#x41f;" horiz-adv-x="585" 
d="M435 608h-285v-608h-80v682h445v-682h-80v608z" />
    <glyph glyph-name="afii10034" unicode="&#x420;" horiz-adv-x="486" 
d="M373 469q0 31 -7.5 56.5t-23 44t-40 28.5t-58.5 10h-94v-274h92q39 0 64 10.5t40 29t21 43t6 52.5zM70 682h172q47 0 86 -12.5t67.5 -38.5t44.5 -66t16 -94q0 -99 -52.5 -155t-167.5 -56h-86v-260h-80v682z" />
    <glyph glyph-name="afii10035" unicode="&#x421;" horiz-adv-x="580" 
d="M301 698q53 0 94 -15.5t70 -42t46 -61.5t23 -74h-84q-10 57 -49.5 89t-102.5 32q-38 0 -71 -17.5t-58 -52.5t-39.5 -88.5t-14.5 -125.5q0 -66 13.5 -119t38.5 -90t59 -57t75 -20q57 0 101 32t56 102h84q-20 -105 -82.5 -155.5t-157.5 -50.5q-60 0 -110 24t-85 69.5
t-54.5 112.5t-19.5 153q0 81 20 146.5t56 112t85 71.5t107 25z" />
    <glyph glyph-name="afii10036" unicode="&#x422;" horiz-adv-x="387" 
d="M154 608h-145v74h369v-74h-145v-608h-79v608z" />
    <glyph glyph-name="afii10037" unicode="&#x423;" horiz-adv-x="458" 
d="M0 682h86l134 -297q10 -22 16.5 -41.5t11.5 -39.5h2q5 19 11 39.5t14 44.5l103 294h85l-212 -561q-27 -72 -60.5 -99.5t-71.5 -27.5q-13 0 -21.5 2t-13.5 4v70q9 -4 23 -4q20 0 36 12t31 52l36 95z" />
    <glyph glyph-name="afii10038" unicode="&#x424;" horiz-adv-x="648" 
d="M615 345q0 -60 -18.5 -109t-52 -85t-79.5 -57.5t-101 -25.5v-78h-80v77q-65 5 -112 29.5t-78 62t-46 85.5t-15 100q0 60 18.5 109t52 85t79.5 57.5t101 26.5v70h80v-70q64 -5 111.5 -29.5t78.5 -62t46 -85.5t15 -100zM533 345q0 48 -13 85t-35.5 63t-53.5 40.5t-67 16.5
v-410q36 1 67 15.5t53.5 41t35.5 63.5t13 85zM115 345q0 -48 13 -85t35.5 -63.5t53.5 -41t67 -15.5v410q-36 -2 -67 -16.5t-53.5 -40.5t-35.5 -63t-13 -85z" />
    <glyph glyph-name="afii10039" unicode="&#x425;" horiz-adv-x="462" 
d="M192 509q11 -23 21.5 -45t19.5 -42h2q8 23 18.5 47t19.5 42l86 171h90l-175 -326l183 -356h-93l-89 182q-11 23 -22 48t-22 53h-1q-11 -24 -24 -52t-24 -51l-87 -180h-90l182 352l-176 330h93z" />
    <glyph glyph-name="afii10040" unicode="&#x426;" horiz-adv-x="610" 
d="M150 74h285v608h80v-608h80v-229h-80v155h-445v682h80v-608z" />
    <glyph glyph-name="afii10041" unicode="&#x427;" horiz-adv-x="538" 
d="M244 242q-90 0 -140 52t-50 150v238h80v-229q0 -75 30 -107t92 -32q70 0 101.5 41.5t31.5 114.5v212h79v-682h-79v313h-5q-22 -32 -55.5 -51.5t-84.5 -19.5z" />
    <glyph glyph-name="afii10042" unicode="&#x428;" horiz-adv-x="790" 
d="M70 0v682h80v-608h205v608h80v-608h205v608h80v-682h-650z" />
    <glyph glyph-name="afii10043" unicode="&#x429;" horiz-adv-x="815" 
d="M355 682h80v-608h205v608h80v-608h80v-229h-80v155h-650v682h80v-608h205v608z" />
    <glyph glyph-name="afii10044" unicode="&#x42a;" horiz-adv-x="564" 
d="M451 195q0 58 -31.5 89.5t-100.5 31.5h-85v-242h87q66 0 98 32t32 89zM325 390q45 0 83.5 -12t66 -36t43.5 -61t16 -87q0 -41 -13 -76.5t-39.5 -61.5t-65.5 -41t-91 -15h-171v608h-144v74h224v-292h91z" />
    <glyph glyph-name="afii10045" unicode="&#x42b;" horiz-adv-x="699" 
d="M367 195q0 58 -31.5 89.5t-100.5 31.5h-85v-242h87q66 0 98 32t32 89zM241 390q45 0 83.5 -11.5t66 -35.5t43.5 -61t16 -88q0 -41 -13 -76.5t-39.5 -61.5t-65.5 -41t-91 -15h-171v682h80v-292h91zM549 682h80v-682h-80v682z" />
    <glyph glyph-name="afii10046" unicode="&#x42c;" horiz-adv-x="480" 
d="M367 195q0 58 -31.5 89.5t-100.5 31.5h-85v-242h87q66 0 98 32t32 89zM241 390q45 0 83.5 -11.5t66 -35.5t43.5 -61t16 -88q0 -41 -13 -76.5t-39.5 -61.5t-65.5 -41t-91 -15h-171v682h80v-292h91z" />
    <glyph glyph-name="afii10047" unicode="&#x42d;" horiz-adv-x="580" 
d="M275 -16q-53 0 -94.5 16.5t-71 45t-47.5 66t-24 78.5h84q10 -63 51.5 -98.5t104.5 -35.5q36 0 68.5 16t58 48t41.5 81t18 115h-279v74h277q-10 110 -55.5 173t-125.5 63q-63 0 -101.5 -29.5t-49.5 -91.5h-84q20 98 80.5 145.5t154.5 47.5q59 0 108 -24t84 -69.5
t54.5 -112.5t19.5 -153q0 -81 -21 -146.5t-57.5 -112t-86 -71.5t-107.5 -25z" />
    <glyph glyph-name="afii10048" unicode="&#x42e;" horiz-adv-x="796" 
d="M150 390h90q6 70 27.5 127t56 97t79.5 62t98 22q61 0 109.5 -26t82.5 -73.5t52 -113t18 -144.5q0 -83 -20 -149t-55.5 -112t-83.5 -71t-104 -25q-65 0 -113 27t-80 72.5t-49 105.5t-20 127h-88v-316h-80v682h80v-292zM320 340q0 -71 14 -124t38 -88.5t57 -53.5t71 -18
t71 18t57 53.5t38 89t14 124.5q0 69 -13 122.5t-37 89.5t-57 54.5t-73 18.5q-38 0 -71 -18t-57 -54t-38 -89.5t-14 -124.5z" />
    <glyph glyph-name="afii10049" unicode="&#x42f;" horiz-adv-x="480" 
d="M167 296q-26 7 -50 23.5t-42 40.5t-28.5 55t-10.5 67q0 35 10 71t33 64.5t61 46.5t94 18h177v-682h-80v286h-80l-169 -286h-90zM119 482q0 -51 28 -86.5t87 -35.5h97v248h-91q-58 0 -89.5 -31.5t-31.5 -94.5z" />
    <glyph glyph-name="afii10065" unicode="&#x430;" horiz-adv-x="522" 
d="M458 0h-74v70q-23 -34 -58.5 -60t-91.5 -26q-40 0 -77 18t-65 51.5t-44.5 80.5t-16.5 106q0 55 15.5 102t43.5 80.5t66 52.5t82 19q28 0 50.5 -7.5t40.5 -19.5t31.5 -27t23.5 -31v70h74v-479zM107 240q0 -88 40 -138t103 -50q28 0 53 13.5t44.5 38t31 58.5t11.5 75
q0 43 -10.5 78t-29.5 59.5t-44 38t-54 13.5q-31 0 -57.5 -12.5t-46 -36t-30.5 -58t-11 -79.5z" />
    <glyph glyph-name="afii10066" unicode="&#x431;" horiz-adv-x="499" 
d="M31 280q0 100 19 171t53.5 119t82.5 74.5t106 37.5q29 5 56.5 16.5t47.5 28.5l33 -60q-27 -21 -63 -32.5t-70 -18.5q-90 -18 -136 -68t-57 -140h3q20 34 60 60t89 26q48 0 87.5 -19.5t67.5 -53.5t43 -80.5t15 -100.5q0 -53 -15.5 -99.5t-44.5 -81.5t-69.5 -55t-89.5 -20
q-48 0 -88.5 20t-69 58.5t-44.5 93.5t-16 124zM107 240q0 -41 10.5 -75t29.5 -59t45 -38.5t57 -13.5q33 0 59.5 14t45 39t28 59t9.5 74q0 38 -9 72t-27 59t-44 39.5t-60 14.5q-35 0 -61.5 -14t-45 -38.5t-28 -58.5t-9.5 -74z" />
    <glyph glyph-name="afii10067" unicode="&#x432;" horiz-adv-x="400" 
d="M64 479h144q66 0 103.5 -33.5t37.5 -87.5q0 -42 -16.5 -66.5t-47.5 -37.5q38 -8 61.5 -39t23.5 -72q0 -30 -9.5 -56t-28 -45.5t-47 -30.5t-66.5 -11h-155v479zM136 218v-154h84q40 0 58 23t18 55q0 36 -23 56t-54 20h-83zM136 415v-133h72q32 0 49.5 19.5t17.5 45.5
q0 27 -15 47.5t-52 20.5h-72z" />
    <glyph glyph-name="afii10068" unicode="&#x433;" horiz-adv-x="306" 
d="M298 479v-64h-160v-415h-74v479h234z" />
    <glyph glyph-name="afii10069" unicode="&#x434;" horiz-adv-x="512" 
d="M423 69h74v-224h-74v155h-334v-155h-74v224h12q17 0 33.5 10t30 33t24 60.5t15.5 91.5l19 215h274v-410zM215 410l-13 -146q-8 -80 -22.5 -124t-37.5 -71h207v341h-134z" />
    <glyph glyph-name="afii10070" unicode="&#x435;" horiz-adv-x="469" 
d="M239 494q54 0 92 -22t62 -57.5t34.5 -79.5t10.5 -89q0 -6 -0.5 -15t-1.5 -14h-329q2 -36 13.5 -66.5t30 -52.5t43 -34t52.5 -12q35 0 61.5 14.5t41.5 43.5h82q-10 -24 -26 -47t-38.5 -40.5t-51.5 -28t-65 -10.5q-49 0 -89.5 18t-69 51.5t-44.5 82t-16 110.5
q0 57 16.5 102.5t44.5 78t66 50t81 17.5zM362 282q-1 30 -10 56.5t-25 46t-38.5 30.5t-51.5 11t-51.5 -13t-39 -33.5t-26.5 -46t-12 -51.5h254z" />
    <glyph glyph-name="afii10072" unicode="&#x436;" horiz-adv-x="580" 
d="M254 0v252l-163 -252h-86l174 258l-162 221h83l154 -220v220h72v-220l154 220h83l-162 -221l174 -258h-86l-163 252v-252h-72z" />
    <glyph glyph-name="afii10073" unicode="&#x437;" horiz-adv-x="386" 
d="M106 110q5 -28 27 -45t60 -17q40 0 60.5 24t20.5 61q0 41 -23 63t-55 22h-54v64h54q32 0 50.5 21t18.5 50q0 32 -19.5 54t-56.5 22q-23 0 -44.5 -13.5t-29.5 -42.5h-76q10 57 51.5 89.5t98.5 32.5q66 0 107 -38t41 -104q0 -36 -18.5 -62t-50.5 -40q32 -11 56 -43t24 -73
q0 -32 -10 -59.5t-30 -48.5t-49.5 -33t-69.5 -12q-62 0 -105 31t-54 97h76z" />
    <glyph glyph-name="afii10074" unicode="&#x438;" horiz-adv-x="490" 
d="M64 479h74v-249q0 -27 -1 -55.5t-3 -55.5h3q14 27 30.5 55.5t33.5 54.5l156 250h69v-479h-74v255q0 54 3 107h-4q-11 -24 -25.5 -48.5t-28.5 -47.5l-164 -266h-69v479z" />
    <glyph glyph-name="afii10075" unicode="&#x439;" horiz-adv-x="490" 
d="M64 479h74v-249q0 -27 -1 -55.5t-3 -55.5h3q14 27 30.5 55.5t33.5 54.5l156 250h69v-479h-74v255q0 54 3 107h-4q-11 -24 -25.5 -48.5t-28.5 -47.5l-164 -266h-69v479zM392 714q-2 -32 -13 -58.5t-30 -46.5t-45 -31t-58 -11q-33 0 -59 11t-45 31t-30 46.5t-12 58.5h61
q2 -37 24.5 -62t60.5 -25t60.5 25t24.5 62h61z" />
    <glyph glyph-name="afii10076" unicode="&#x43a;" horiz-adv-x="417" 
d="M138 252v-252h-74v479h74v-220l176 220h86l-185 -221l197 -258h-89z" />
    <glyph glyph-name="afii10077" unicode="&#x43b;" horiz-adv-x="485" 
d="M127 479h294v-479h-74v410h-156l-30 -267q-9 -80 -35.5 -114.5t-80.5 -34.5q-21 0 -39 5v68q5 -2 14 -3t15 -1q24 0 36.5 18t17.5 62z" />
    <glyph glyph-name="afii10078" unicode="&#x43c;" horiz-adv-x="587" 
d="M563 0h-70l-36 255q-4 26 -7 58t-5 57h-3q-5 -27 -13.5 -59t-18.5 -59l-88 -252h-58l-87 258q-9 27 -18 60t-14 55h-2q-2 -24 -5 -53.5t-7 -57.5l-36 -262h-71l72 479h72l102 -306q6 -18 12 -39t10 -39h3q5 19 11 39.5t12 38.5l105 306h70z" />
    <glyph glyph-name="afii10079" unicode="&#x43d;" horiz-adv-x="490" 
d="M64 479h74v-197h214v197h74v-479h-74v213h-214v-213h-74v479z" />
    <glyph glyph-name="afii10080" unicode="&#x43e;" horiz-adv-x="499" 
d="M31 240q0 55 16 102t44.5 80.5t69 52.5t88.5 19q50 0 90.5 -19.5t69 -53.5t44 -80.5t15.5 -100.5q0 -53 -15.5 -99.5t-44.5 -81.5t-69.5 -55t-89.5 -20q-48 0 -88.5 19.5t-69 54t-44.5 81.5t-16 101zM107 240q0 -41 10.5 -75t29.5 -59t45 -38.5t57 -13.5q33 0 59.5 14
t45 39t28 59t9.5 74q0 38 -9.5 72t-27.5 59t-44.5 39.5t-60.5 14.5t-60.5 -14t-44.5 -38.5t-27.5 -58.5t-9.5 -74z" />
    <glyph glyph-name="afii10081" unicode="&#x43f;" horiz-adv-x="475" 
d="M64 479h347v-479h-74v410h-199v-410h-74v479z" />
    <glyph glyph-name="afii10082" unicode="&#x440;" horiz-adv-x="522" 
d="M64 479h74v-71q22 34 58 60t92 26q40 0 77 -18t65 -51.5t44.5 -81t16.5 -105.5q0 -56 -16 -102.5t-43.5 -80t-65.5 -52.5t-82 -19q-28 0 -51 7.5t-41 19.5t-31.5 27t-22.5 31v-304h-74v714zM415 238q0 86 -38.5 137t-104.5 51q-28 0 -53 -13.5t-44.5 -38t-31 -58.5
t-11.5 -75q0 -43 10.5 -78t29.5 -59.5t44 -38t54 -13.5q66 0 105.5 49t39.5 137z" />
    <glyph glyph-name="afii10083" unicode="&#x441;" horiz-adv-x="467" 
d="M248 494q43 0 75.5 -13.5t55 -33.5t36 -44t19.5 -45h-83q-11 31 -36.5 49.5t-65.5 18.5q-27 0 -53 -11.5t-45.5 -34.5t-31.5 -58t-12 -82q0 -41 10.5 -75.5t29.5 -59.5t45.5 -39t57.5 -14q46 0 71 24t36 54h83q-9 -26 -24 -52t-38 -47t-54.5 -34t-71.5 -13
q-45 0 -85 17.5t-70 51t-48 81t-18 107.5q0 52 15 98.5t43.5 80.5t68.5 54t90 20z" />
    <glyph glyph-name="afii10084" unicode="&#x442;" horiz-adv-x="330" 
d="M322 479v-64h-120v-415h-74v415h-120v64h314z" />
    <glyph glyph-name="afii10085" unicode="&#x443;" horiz-adv-x="393" 
d="M169 0l-167 479h79l74 -223q10 -29 24 -72t25 -89h2q6 29 18.5 72.5t24.5 88.5l61 223h78l-214 -714h-74z" />
    <glyph glyph-name="afii10086" unicode="&#x444;" horiz-adv-x="724" 
d="M112 240q0 -93 31 -140.5t80 -47.5q21 0 40.5 13.5t34.5 38t24 58.5t9 75q0 43 -8.5 78t-23 59.5t-34 38t-41.5 13.5q-53 0 -82.5 -49t-29.5 -137zM325 60q-20 -37 -48.5 -56.5t-74.5 -19.5q-33 0 -63 17.5t-53 50.5t-36.5 80.5t-13.5 107.5q0 57 13 104t35.5 80.5
t54 51.5t67.5 18q46 0 74.5 -21.5t44.5 -53.5v301h74v-302q19 37 48.5 56.5t74.5 19.5q33 0 63 -17.5t53 -50.5t36.5 -80.5t13.5 -107.5q0 -57 -13 -104t-35.5 -80.5t-53 -51.5t-66.5 -18q-47 0 -76 21.5t-45 53.5v-294h-74v295zM612 238q0 93 -31 140.5t-79 47.5
q-21 0 -40.5 -13.5t-35 -38t-24.5 -58.5t-9 -75q0 -43 8.5 -78t23 -59.5t34 -38t41.5 -13.5q52 0 82 49t30 137z" />
    <glyph glyph-name="afii10087" unicode="&#x445;" horiz-adv-x="380" 
d="M150 246l-127 233h79l63 -120q9 -17 14.5 -32.5t9.5 -25.5h5q5 15 11.5 29t12.5 26l67 123h79l-134 -231l142 -248h-83l-71 133q-7 13 -14.5 29.5t-12.5 29.5h-6q-5 -13 -12 -30t-15 -30l-72 -132h-78z" />
    <glyph glyph-name="afii10088" unicode="&#x446;" horiz-adv-x="500" 
d="M411 69h74v-224h-74v155h-347v479h74v-410h199v410h74v-410z" />
    <glyph glyph-name="afii10089" unicode="&#x447;" horiz-adv-x="471" 
d="M407 0h-74v245q-24 -43 -61 -62t-70 -19q-31 0 -59.5 11t-50 36t-34.5 66t-13 102v100h74v-97q0 -75 24 -112t69 -37q58 0 89.5 41.5t31.5 126.5v78h74v-479z" />
    <glyph glyph-name="afii10090" unicode="&#x448;" horiz-adv-x="728" 
d="M64 0v479h74v-410h189v410h74v-410h189v410h74v-479h-600z" />
    <glyph glyph-name="afii10091" unicode="&#x449;" horiz-adv-x="753" 
d="M64 0v479h74v-410h189v410h74v-410h189v410h74v-410h74v-224h-74v155h-600z" />
    <glyph glyph-name="afii10092" unicode="&#x44a;" horiz-adv-x="455" 
d="M202 216v-150h68q42 0 61 21t19 56q0 73 -79 73h-69zM8 415v64h194v-197h73q67 0 108 -34t41 -105q0 -30 -9.5 -56t-28 -45.5t-47 -30.5t-65.5 -11h-146v415h-120z" />
    <glyph glyph-name="afii10093" unicode="&#x44b;" horiz-adv-x="573" 
d="M138 216v-150h68q42 0 61 21t19 56q0 73 -79 73h-69zM211 282q67 0 108 -34t41 -105q0 -30 -9.5 -56t-28 -45.5t-47 -30.5t-65.5 -11h-146v479h74v-197h73zM435 479h73v-479h-73v479z" />
    <glyph glyph-name="afii10094" unicode="&#x44c;" horiz-adv-x="391" 
d="M138 216v-150h68q42 0 61 21t19 56q0 73 -79 73h-69zM211 282q67 0 108 -34t41 -105q0 -30 -9.5 -56t-28 -45.5t-47 -30.5t-65.5 -11h-146v479h74v-197h73z" />
    <glyph glyph-name="afii10095" unicode="&#x44d;" horiz-adv-x="467" 
d="M166 282h191q-10 67 -46.5 105.5t-87.5 38.5q-24 0 -41.5 -6t-30.5 -15.5t-21 -21.5t-14 -25h-83q9 24 23.5 48t37.5 43.5t55 32t74 12.5q43 0 81.5 -17t67.5 -50t46.5 -81t17.5 -109q0 -54 -15.5 -100.5t-43.5 -80.5t-67 -53t-85 -19q-47 0 -81.5 14t-58.5 36t-38 47.5
t-20 48.5h83q11 -36 39 -57t76 -21q24 0 46.5 10t41.5 30.5t31 52t15 73.5h-193v64z" />
    <glyph glyph-name="afii10096" unicode="&#x44e;" horiz-adv-x="667" 
d="M423 -16q-44 0 -81 17t-65 48t-44.5 72.5t-20.5 91.5h-74v-213h-74v479h74v-197h75q6 47 23.5 86t44.5 67t63 43.5t79 15.5q48 0 87.5 -19.5t67.5 -53.5t43 -80.5t15 -100.5q0 -53 -15.5 -99.5t-43 -81.5t-67 -55t-87.5 -20zM287 240q0 -41 10 -75t28 -59t43 -38.5
t55 -13.5q32 0 57 14t42.5 39t27 59t9.5 74q0 38 -9 72t-26 59t-42.5 39.5t-58.5 14.5q-32 0 -57.5 -14t-43 -38.5t-26.5 -58.5t-9 -74z" />
    <glyph glyph-name="afii10097" unicode="&#x44f;" horiz-adv-x="414" 
d="M204 197l-106 -197h-84l121 206q-40 14 -65.5 46t-25.5 84q0 30 10 56t29.5 45.5t48.5 30.5t67 11h151v-479h-74v197h-72zM276 263v150h-78q-40 0 -60 -22.5t-20 -55.5q0 -36 21 -54t56 -18h81z" />
    <glyph glyph-name="uni0450" unicode="&#x450;" horiz-adv-x="469" 
d="M239 494q54 0 92 -22t62 -57.5t34.5 -79.5t10.5 -89q0 -6 -0.5 -15t-1.5 -14h-329q2 -36 13.5 -66.5t30 -52.5t43 -34t52.5 -12q35 0 61.5 14.5t41.5 43.5h82q-10 -24 -26 -47t-38.5 -40.5t-51.5 -28t-65 -10.5q-49 0 -89.5 18t-69 51.5t-44.5 82t-16 110.5
q0 57 16.5 102.5t44.5 78t66 50t81 17.5zM362 282q-1 30 -10 56.5t-25 46t-38.5 30.5t-51.5 11t-51.5 -13t-39 -33.5t-26.5 -46t-12 -51.5h254zM175 726l131 -131l-37 -41l-141 118z" />
    <glyph glyph-name="afii10071" unicode="&#x451;" horiz-adv-x="469" 
d="M239 494q54 0 92 -22t62 -57.5t34.5 -79.5t10.5 -89q0 -6 -0.5 -15t-1.5 -14h-329q2 -36 13.5 -66.5t30 -52.5t43 -34t52.5 -12q35 0 61.5 14.5t41.5 43.5h82q-10 -24 -26 -47t-38.5 -40.5t-51.5 -28t-65 -10.5q-49 0 -89.5 18t-69 51.5t-44.5 82t-16 110.5
q0 57 16.5 102.5t44.5 78t66 50t81 17.5zM362 282q-1 30 -10 56.5t-25 46t-38.5 30.5t-51.5 11t-51.5 -13t-39 -33.5t-26.5 -46t-12 -51.5h254zM126 682h88v-87h-88v87zM266 682h88v-87h-88v87z" />
    <glyph glyph-name="afii10099" unicode="&#x452;" horiz-adv-x="479" 
d="M426 -88q0 -81 -30 -114t-95 -33q-11 0 -20 1.5t-19 3.5v64q5 -2 15.5 -3t18.5 -1q33 0 44.5 19t11.5 63v364q0 75 -26 112t-73 37q-54 0 -84.5 -41.5t-30.5 -126.5v-257h-74v579h-64v59h64v82h74v-82h140v-59h-140v-166q28 47 63 64t68 17q27 0 55 -11t50.5 -36t37 -66
t14.5 -102v-367z" />
    <glyph glyph-name="afii10100" unicode="&#x453;" horiz-adv-x="306" 
d="M298 479v-64h-160v-415h-74v479h234zM292 672l-141 -118l-37 41l131 131z" />
    <glyph glyph-name="afii10101" unicode="&#x454;" horiz-adv-x="467" 
d="M248 494q43 0 75.5 -13.5t55 -33.5t36 -44t19.5 -45h-83q-11 31 -36.5 49.5t-65.5 18.5q-49 0 -89 -35.5t-51 -108.5h192v-64h-193q3 -37 14.5 -67.5t30 -52.5t43.5 -34t54 -12q46 0 71 24t36 54h83q-9 -26 -24 -52t-38 -47t-54.5 -34t-71.5 -13q-45 0 -85 17.5t-70 51
t-48 81t-18 107.5q0 52 15 98.5t43.5 80.5t68.5 54t90 20z" />
    <glyph glyph-name="afii10102" unicode="&#x455;" horiz-adv-x="355" 
d="M244 370q-4 26 -21.5 42t-44.5 16q-30 0 -47.5 -16t-17.5 -46q0 -15 3.5 -26.5t13 -21.5t25.5 -19.5t41 -20.5q39 -17 64 -34.5t39.5 -36.5t19.5 -39t5 -43q0 -27 -10 -52.5t-29.5 -45t-48.5 -31.5t-66 -12q-66 0 -106.5 38.5t-45.5 100.5h72q2 -32 21.5 -52.5
t60.5 -20.5q42 0 60.5 22.5t18.5 49.5q0 25 -17.5 47t-66.5 44q-35 15 -59 30.5t-39 33.5t-21.5 40t-6.5 49q0 26 9.5 49t27 40.5t43 28t57.5 10.5t56.5 -11t41.5 -28.5t26 -39.5t11 -45h-69z" />
    <glyph glyph-name="afii10103" unicode="&#x456;" horiz-adv-x="201" 
d="M64 479h73v-479h-73v479zM55 686h92v-91h-92v91z" />
    <glyph glyph-name="afii10104" unicode="&#x457;" horiz-adv-x="201" 
d="M64 479h73v-479h-73v479zM-14 682h88v-87h-88v87zM126 682h88v-87h-88v87z" />
    <glyph glyph-name="afii10105" unicode="&#x458;" horiz-adv-x="201" 
d="M137 479v-565q0 -81 -30 -115t-95 -34q-11 0 -20 1.5t-19 3.5v64q5 -2 15.5 -3t18.5 -1q33 0 45 18.5t12 62.5v568h73zM55 686h92v-91h-92v91z" />
    <glyph glyph-name="afii10106" unicode="&#x459;" horiz-adv-x="651" 
d="M398 216v-150h68q42 0 61 21t19 56q0 73 -79 73h-69zM191 410l-30 -267q-9 -80 -35.5 -114.5t-80.5 -34.5q-21 0 -39 5v68q5 -2 14 -3t15 -1q24 0 36.5 18t17.5 62l38 336h271v-197h73q67 0 108 -34t41 -105q0 -30 -9.5 -56t-28 -45.5t-47 -30.5t-65.5 -11h-146v410h-133
z" />
    <glyph glyph-name="afii10107" unicode="&#x45a;" horiz-adv-x="641" 
d="M388 216v-150h68q42 0 61 21t19 56q0 73 -79 73h-69zM314 213h-176v-213h-74v479h74v-197h176v197h74v-197h73q67 0 108 -34t41 -105q0 -30 -9.5 -56t-28 -45.5t-47 -30.5t-65.5 -11h-146v213z" />
    <glyph glyph-name="afii10108" unicode="&#x45b;" horiz-adv-x="479" 
d="M138 579v-166q28 47 63 64t68 17q27 0 55 -11t50.5 -36t37 -66t14.5 -102v-279h-74v276q0 75 -26 112t-73 37q-54 0 -84.5 -41.5t-30.5 -126.5v-257h-74v579h-64v59h64v82h74v-82h140v-59h-140z" />
    <glyph glyph-name="afii10109" unicode="&#x45c;" horiz-adv-x="417" 
d="M138 252v-252h-74v479h74v-220l176 220h86l-185 -221l197 -258h-89zM322 672l-141 -118l-37 41l131 131z" />
    <glyph glyph-name="uni045D" unicode="&#x45d;" horiz-adv-x="490" 
d="M64 479h74v-249q0 -27 -1 -55.5t-3 -55.5h3q14 27 30.5 55.5t33.5 54.5l156 250h69v-479h-74v255q0 54 3 107h-4q-11 -24 -25.5 -48.5t-28.5 -47.5l-164 -266h-69v479zM197 726l131 -131l-37 -41l-141 118z" />
    <glyph glyph-name="afii10110" unicode="&#x45e;" horiz-adv-x="393" 
d="M169 0l-167 479h79l74 -223q10 -29 24 -72t25 -89h2q6 29 18.5 72.5t24.5 88.5l61 223h78l-214 -714h-74zM349 714q-2 -32 -13 -58.5t-30 -46.5t-45 -31t-58 -11q-33 0 -59 11t-45 31t-30 46.5t-12 58.5h61q2 -37 24.5 -62t60.5 -25t60.5 25t24.5 62h61z" />
    <glyph glyph-name="afii10193" unicode="&#x45f;" horiz-adv-x="475" 
d="M64 0v479h74v-410h199v410h74v-479h-136v-155h-74v155h-137z" />
    <glyph glyph-name="afii10050" unicode="&#x490;" horiz-adv-x="423" 
d="M69 682h264v158h80v-232h-264v-608h-80v682z" />
    <glyph glyph-name="afii10098" unicode="&#x491;" horiz-adv-x="354" 
d="M270 479v135h74v-199h-206v-415h-74v479h206z" />
    <glyph glyph-name="Wgrave" unicode="&#x1e80;" horiz-adv-x="708" 
d="M380 425q-5 23 -8.5 41.5t-5.5 35.5t-4 33.5t-4 34.5h-4q-2 -17 -4 -32.5t-4 -32t-5.5 -35t-7.5 -42.5l-84 -428h-89l-152 682h79l92 -428q5 -25 9 -43t6.5 -33t5 -28.5t4.5 -28.5h4q5 32 10 68t13 74l87 419h80l89 -426q6 -27 11.5 -65.5t9.5 -69.5h4q5 35 11.5 73.5
t11.5 60.5l86 427h79l-143 -682h-89zM280 887l154 -104l-29 -47l-160 89z" />
    <glyph glyph-name="wgrave" unicode="&#x1e81;" horiz-adv-x="592" 
d="M466 0h-88l-66 305q-5 22 -8 51.5t-5 49.5h-4q-1 -21 -4.5 -50.5t-8.5 -50.5l-71 -305h-87l-108 479h72l60 -279q7 -32 13 -62.5t10 -56.5h4q3 26 9.5 59.5t12.5 59.5l62 279h76l62 -279q6 -27 12.5 -60t9.5 -59h4q2 25 8.5 58t12.5 61l60 279h72zM231 726l131 -131
l-37 -41l-141 118z" />
    <glyph glyph-name="Wacute" unicode="&#x1e82;" horiz-adv-x="708" 
d="M380 425q-5 23 -8.5 41.5t-5.5 35.5t-4 33.5t-4 34.5h-4q-2 -17 -4 -32.5t-4 -32t-5.5 -35t-7.5 -42.5l-84 -428h-89l-152 682h79l92 -428q5 -25 9 -43t6.5 -33t5 -28.5t4.5 -28.5h4q5 32 10 68t13 74l87 419h80l89 -426q6 -27 11.5 -65.5t9.5 -69.5h4q5 35 11.5 73.5
t11.5 60.5l86 427h79l-143 -682h-89zM469 825l-160 -89l-29 47l154 104z" />
    <glyph glyph-name="wacute" unicode="&#x1e83;" horiz-adv-x="592" 
d="M466 0h-88l-66 305q-5 22 -8 51.5t-5 49.5h-4q-1 -21 -4.5 -50.5t-8.5 -50.5l-71 -305h-87l-108 479h72l60 -279q7 -32 13 -62.5t10 -56.5h4q3 26 9.5 59.5t12.5 59.5l62 279h76l62 -279q6 -27 12.5 -60t9.5 -59h4q2 25 8.5 58t12.5 61l60 279h72zM408 672l-141 -118
l-37 41l131 131z" />
    <glyph glyph-name="Wdieresis" unicode="&#x1e84;" horiz-adv-x="708" 
d="M380 425q-5 23 -8.5 41.5t-5.5 35.5t-4 33.5t-4 34.5h-4q-2 -17 -4 -32.5t-4 -32t-5.5 -35t-7.5 -42.5l-84 -428h-89l-152 682h79l92 -428q5 -25 9 -43t6.5 -33t5 -28.5t4.5 -28.5h4q5 32 10 68t13 74l87 419h80l89 -426q6 -27 11.5 -65.5t9.5 -69.5h4q5 35 11.5 73.5
t11.5 60.5l86 427h79l-143 -682h-89zM233 863h88v-87h-88v87zM393 863h88v-87h-88v87z" />
    <glyph glyph-name="wdieresis" unicode="&#x1e85;" horiz-adv-x="592" 
d="M466 0h-88l-66 305q-5 22 -8 51.5t-5 49.5h-4q-1 -21 -4.5 -50.5t-8.5 -50.5l-71 -305h-87l-108 479h72l60 -279q7 -32 13 -62.5t10 -56.5h4q3 26 9.5 59.5t12.5 59.5l62 279h76l62 -279q6 -27 12.5 -60t9.5 -59h4q2 25 8.5 58t12.5 61l60 279h72zM182 682h88v-87h-88v87
zM322 682h88v-87h-88v87z" />
    <glyph glyph-name="Ygrave" unicode="&#x1ef2;" horiz-adv-x="458" 
d="M190 277l-184 405h86l108 -242q10 -22 17 -43.5t13 -41.5h2q8 21 15.5 41t17.5 43l102 243h85l-182 -404v-278h-80v277zM152 887l154 -104l-29 -47l-160 89z" />
    <glyph glyph-name="ygrave" unicode="&#x1ef3;" horiz-adv-x="393" 
d="M169 0l-167 479h79l74 -223q10 -29 24 -72t25 -89h2q6 29 18.5 72.5t24.5 88.5l61 223h78l-214 -714h-74zM131 726l131 -131l-37 -41l-141 118z" />
    <glyph glyph-name="uni2010" unicode="&#x2010;" horiz-adv-x="380" 
d="M62 225v78h256v-78h-256z" />
    <glyph glyph-name="endash" unicode="&#x2013;" horiz-adv-x="500" 
d="M48 229v70h404v-70h-404z" />
    <glyph glyph-name="emdash" unicode="&#x2014;" horiz-adv-x="1000" 
d="M48 229v70h904v-70h-904z" />
    <glyph glyph-name="afii00208" unicode="&#x2015;" horiz-adv-x="750" 
d="M100 229v70h550v-70h-550z" />
    <glyph glyph-name="underscoredbl" unicode="&#x2017;" horiz-adv-x="470" 
d="M0 -180h470v-55h-470v55zM0 -80h470v-55h-470v55z" />
    <glyph glyph-name="quoteleft" unicode="&#x2018;" horiz-adv-x="202" 
d="M150 497h-98v52q0 54 14 97t34 74h48q-18 -28 -24.5 -59t-8.5 -63h35v-101z" />
    <glyph glyph-name="quoteright" unicode="&#x2019;" horiz-adv-x="202" 
d="M52 720h98v-52q0 -54 -13.5 -96.5t-33.5 -74.5h-49q18 28 25 59t9 63h-36v101z" />
    <glyph glyph-name="quotesinglbase" unicode="&#x201a;" horiz-adv-x="202" 
d="M52 101h98v-52q0 -54 -13.5 -96.5t-33.5 -74.5h-49q18 28 25 59t9 63h-36v101z" />
    <glyph glyph-name="quotereversed" unicode="&#x201b;" horiz-adv-x="202" 
d="M150 619h-36q2 -32 9 -63t25 -59h-49q-20 32 -33.5 74.5t-13.5 96.5v52h98v-101z" />
    <glyph glyph-name="quotedblleft" unicode="&#x201c;" horiz-adv-x="346" 
d="M150 497h-98v52q0 54 14 97t34 74h48q-18 -28 -24.5 -59t-8.5 -63h35v-101zM294 497h-98v52q0 54 13.5 97t33.5 74h49q-18 -28 -25 -59t-9 -63h36v-101z" />
    <glyph glyph-name="quotedblright" unicode="&#x201d;" horiz-adv-x="346" 
d="M196 720h98v-52q0 -54 -14 -96.5t-34 -74.5h-48q18 28 24.5 59t8.5 63h-35v101zM52 720h98v-52q0 -54 -13.5 -96.5t-33.5 -74.5h-49q18 28 25 59t9 63h-36v101z" />
    <glyph glyph-name="quotedblbase" unicode="&#x201e;" horiz-adv-x="346" 
d="M196 101h98v-52q0 -54 -14 -96.5t-34 -74.5h-48q18 28 24.5 59t8.5 63h-35v101zM52 101h98v-52q0 -54 -13.5 -96.5t-33.5 -74.5h-49q18 28 25 59t9 63h-36v101z" />
    <glyph glyph-name="dagger" unicode="&#x2020;" horiz-adv-x="398" 
d="M226 463l11 -89l-11 -374h-55l-11 374l11 89l-126 -11v76l126 -10l-11 164h77l-11 -164l127 10v-76z" />
    <glyph glyph-name="daggerdbl" unicode="&#x2021;" horiz-adv-x="398" 
d="M226 0h-55l-11 171l11 78l-126 -11v78l126 -11l-11 78l11 78l-126 -10v77l126 -11l-11 165h77l-11 -165l127 11v-77l-127 10l11 -78l-11 -78l127 11v-78l-127 11l11 -78z" />
    <glyph glyph-name="bullet" unicode="&#x2022;" horiz-adv-x="388" 
d="M68 304q0 26 10 49t27 40t39.5 27t48.5 10t49 -10t40.5 -27t27.5 -40t10 -49t-10 -49t-27.5 -40t-40.5 -27t-49 -10t-48.5 10t-39.5 27t-27 40t-10 49z" />
    <glyph glyph-name="ellipsis" unicode="&#x2026;" horiz-adv-x="657" 
d="M58 108h104v-108h-104v108zM277 108h104v-108h-104v108zM496 108h104v-108h-104v108z" />
    <glyph glyph-name="perthousand" unicode="&#x2030;" horiz-adv-x="956" 
d="M553 682l-388 -682h-70l387 682h71zM33 514q0 50 11.5 85t30 57t41.5 32t47 10q21 0 44 -9t42 -30t31.5 -56t12.5 -87q0 -57 -13.5 -94t-33 -58.5t-42 -29.5t-40.5 -8q-22 0 -45.5 9t-42.5 31t-31 58t-12 90zM223 514q0 63 -15.5 91.5t-44.5 28.5q-25 0 -42.5 -26.5
t-17.5 -92.5q0 -69 16 -97t45 -28q23 0 41 27.5t18 96.5zM352 171q0 50 11.5 85t30.5 57t42.5 32t46.5 10q22 0 45 -9t42 -30t31 -56t12 -87q0 -58 -13.5 -94.5t-33 -57.5t-42.5 -29t-41 -8q-22 0 -45.5 9t-42.5 30.5t-31 57.5t-12 90zM543 171q0 63 -16 91.5t-45 28.5
q-24 0 -42 -26t-18 -93q0 -69 16.5 -96.5t44.5 -27.5q12 0 22.5 6t19 20.5t13.5 38t5 58.5zM662 171q0 50 11.5 85t30.5 57t42.5 32t46.5 10q22 0 45 -9t42 -30t31 -56t12 -87q0 -58 -13.5 -94.5t-33 -57.5t-42.5 -29t-41 -8q-22 0 -45.5 9t-42.5 30.5t-31 57.5t-12 90z
M853 171q0 63 -16 91.5t-45 28.5q-24 0 -42 -26t-18 -93q0 -69 16.5 -96.5t44.5 -27.5q12 0 22.5 6t19 20.5t13.5 38t5 58.5z" />
    <glyph glyph-name="minute" unicode="&#x2032;" horiz-adv-x="230" 
d="M185 675l-87 -248l-53 17l72 254z" />
    <glyph glyph-name="second" unicode="&#x2033;" horiz-adv-x="360" 
d="M185 675l-87 -248l-53 17l72 254zM345 675l-87 -248l-53 17l72 254z" />
    <glyph glyph-name="guilsinglleft" unicode="&#x2039;" horiz-adv-x="244" 
d="M141 441l53 -22l-65 -179l65 -179l-53 -22l-99 201z" />
    <glyph glyph-name="guilsinglright" unicode="&#x203a;" horiz-adv-x="244" 
d="M103 39l-53 22l65 179l-65 179l53 22l99 -201z" />
    <glyph glyph-name="exclamdbl" unicode="&#x203c;" horiz-adv-x="390" 
d="M56 87h83v-87h-83v87zM141 682l-9 -494h-69l-9 494h87zM251 87h83v-87h-83v87zM336 682l-9 -494h-69l-9 494h87z" />
    <glyph glyph-name="uni203D" unicode="&#x203d;" horiz-adv-x="408" 
d="M291 337q-18 -18 -29 -34t-17 -33t-8.5 -37t-2.5 -45h-65l-13 438q-40 -11 -59 -41t-19 -74h-73q2 89 53.5 138t142.5 49q46 0 81.5 -13t60 -36t37 -54t12.5 -68q0 -29 -6 -52.5t-18 -45t-31 -43.5t-46 -49zM159 87h83v-87h-83v87zM319 520q0 38 -18.5 67t-60.5 39
l-7 -256q39 43 62.5 76.5t23.5 73.5z" />
    <glyph glyph-name="uni203E" unicode="&#x203e;" horiz-adv-x="470" 
d="M0 835h470v-70h-470v70z" />
    <glyph glyph-name="fraction" unicode="&#x2044;" horiz-adv-x="151" 
d="M304 682l-387 -682h-70l386 682h71z" />
    <glyph glyph-name="uni2070" unicode="&#x2070;" 
d="M26 645q0 62 13.5 105t36 69.5t50.5 38.5t57 12q26 0 53 -11t48.5 -37t35 -69.5t13.5 -108.5q0 -72 -15.5 -117.5t-38.5 -71.5t-50 -36t-50 -10q-26 0 -53.5 11t-49.5 38t-36 72.5t-14 114.5zM260 642q0 87 -21.5 126.5t-58.5 39.5q-15 0 -29.5 -8t-26 -27t-18 -50
t-6.5 -76q0 -49 6 -82.5t16.5 -54.5t25.5 -30t32 -9q15 0 29.5 8.5t25.5 28.5t18 53t7 81z" />
    <glyph glyph-name="uni2074" unicode="&#x2074;" 
d="M275 509v-86h-69v86h-182v55l186 293h65v-290h60v-58h-60zM90 567h116v146q0 9 0.5 23.5t2.5 25.5h-3q-5 -12 -12 -26t-13 -25z" />
    <glyph glyph-name="uni2075" unicode="&#x2075;" 
d="M131 702q8 2 22 3.5t22 1.5q65 0 102 -40.5t37 -106.5q0 -29 -9 -56t-26.5 -48t-43.5 -34t-61 -13q-34 0 -59 10t-42 27.5t-26 40t-11 48.5h72q2 -28 20 -46t49 -18q28 0 46 23t18 62q0 43 -22 67t-67 24q-43 0 -91 -14l22 224h198v-62h-141z" />
    <glyph glyph-name="uni2076" unicode="&#x2076;" 
d="M27 566q0 42 13.5 77t38.5 68l107 146h78l-101 -136q7 2 12.5 2.5t16.5 0.5q33 -1 59 -13.5t44 -33.5t27.5 -49.5t9.5 -61.5q0 -32 -11 -60.5t-31 -50t-48.5 -34t-62.5 -12.5t-62 12t-48 33t-31 49.5t-11 62.5zM99 566q0 -46 23 -71.5t58 -25.5t58 25.5t23 71.5
q0 45 -22.5 72.5t-58.5 27.5t-58.5 -26.5t-22.5 -73.5z" />
    <glyph glyph-name="uni2077" unicode="&#x2077;" 
d="M315 802l-163 -379h-80l166 372h-187v62h264v-55z" />
    <glyph glyph-name="uni2078" unicode="&#x2078;" 
d="M117 747q0 -31 18.5 -48.5t44.5 -17.5q27 0 44.5 18t17.5 48q0 32 -18 48.5t-44 16.5q-27 0 -45 -16.5t-18 -48.5zM109 548q0 -38 19.5 -59.5t51.5 -21.5q31 0 50.5 21.5t19.5 59.5q0 35 -19 57t-51 22q-31 0 -51 -21t-20 -58zM322 543q0 -28 -9.5 -52.5t-27.5 -42.5
t-44.5 -28.5t-60.5 -10.5q-35 0 -61.5 10t-44.5 28t-27.5 42t-9.5 52q0 42 22 71.5t60 43.5v1q-32 12 -51 36.5t-19 57.5q0 51 35 85t96 34q60 0 95 -33t35 -82q0 -35 -18.5 -60t-50.5 -36v-2q41 -14 61 -43.5t20 -70.5z" />
    <glyph glyph-name="uni2079" unicode="&#x2079;" 
d="M332 713q0 -42 -13.5 -77t-38.5 -68l-107 -145h-78l101 135q-7 -2 -12.5 -2.5t-16.5 -0.5q-33 1 -59 13.5t-44 33.5t-27.5 49.5t-9.5 61.5q0 32 11 60.5t31 50t48 34t63 12.5q34 0 62 -12t48 -33t31 -49.5t11 -62.5zM260 713q0 46 -23 71.5t-58 25.5t-58 -25.5t-23 -71.5
q0 -45 22.5 -72.5t58.5 -27.5t58.5 26.5t22.5 73.5z" />
    <glyph glyph-name="uni207F" unicode="&#x207f;" 
d="M50 690h63v-42q20 33 42.5 43t48.5 10q23 0 43 -7t35 -24.5t23.5 -46.5t8.5 -72v-203h-63v200q0 54 -16.5 76.5t-46.5 22.5q-36 0 -55.5 -25.5t-19.5 -86.5v-187h-63v342z" />
    <glyph glyph-name="uni2080" unicode="&#x2080;" 
d="M26 48q0 62 13.5 105t36 69.5t50.5 38.5t57 12q26 0 53 -11t48.5 -37t35 -69.5t13.5 -108.5q0 -72 -15.5 -117.5t-38.5 -72t-50 -36.5t-50 -10q-26 0 -53.5 11t-49.5 38t-36 73t-14 115zM260 45q0 87 -21.5 126.5t-58.5 39.5q-15 0 -29.5 -8t-26 -27t-18 -50t-6.5 -76
q0 -49 6 -82.5t16.5 -54.5t25.5 -30.5t32 -9.5q15 0 29.5 8.5t25.5 29t18 53.5t7 81z" />
    <glyph glyph-name="uni2081" unicode="&#x2081;" 
d="M150 198h-62v61h133v-434h-71v373z" />
    <glyph glyph-name="uni2082" unicode="&#x2082;" 
d="M52 -124l126 153q25 31 42.5 58t17.5 59q0 29 -15 47t-42 18q-28 0 -42.5 -20t-16.5 -55h-72q4 58 37 97t97 39q30 0 54 -9.5t40.5 -26.5t25.5 -39.5t9 -47.5q0 -43 -20.5 -79t-61.5 -83l-85 -99h173v-63h-267v51z" />
    <glyph glyph-name="uni2083" unicode="&#x2083;" 
d="M48 150q1 25 10.5 47.5t26 39t40 26t53.5 9.5q61 0 94 -31.5t33 -80.5q0 -37 -22.5 -62.5t-55.5 -33.5v-2q42 -9 66.5 -38t24.5 -76q0 -27 -9 -51.5t-26.5 -43.5t-44 -30.5t-62.5 -11.5q-66 0 -101 36.5t-40 96.5h72q9 -74 70 -74q33 0 51 23.5t18 59.5q0 31 -19.5 54.5
t-64.5 23.5h-26v56h22q33 0 53.5 17.5t20.5 46.5q0 27 -13.5 45t-42.5 18t-42 -20t-15 -44h-71z" />
    <glyph glyph-name="uni2084" unicode="&#x2084;" 
d="M275 -89v-86h-68v86h-183v55l186 293h65v-290h60v-58h-60zM90 -31h117v147q0 22 3 49h-3q-5 -12 -14 -29.5t-15 -28.5z" />
    <glyph glyph-name="uni2085" unicode="&#x2085;" 
d="M131 104q8 2 22 3.5t22 1.5q65 0 102 -40.5t37 -106.5q0 -29 -9 -56t-26.5 -48t-43.5 -34t-61 -13q-34 0 -59 10t-42 27.5t-26 40t-11 48.5h72q2 -28 19.5 -46t48.5 -18q28 0 46.5 23t18.5 62q0 43 -22.5 67t-67.5 24q-42 0 -90 -14l22 224h198v-62h-141z" />
    <glyph glyph-name="uni2086" unicode="&#x2086;" 
d="M27 -32q0 42 13.5 77t38.5 68l107 146h78l-101 -136q7 2 12.5 2.5t16.5 0.5q33 -1 59 -13.5t44 -33.5t27.5 -49.5t9.5 -61.5q0 -32 -11 -60.5t-31 -50t-48.5 -34t-62.5 -12.5t-62 12t-48 33t-31 49.5t-11 62.5zM99 -32q0 -46 23 -71.5t58 -25.5t58 25.5t23 71.5
q0 45 -22.5 72.5t-58.5 27.5t-58.5 -26.5t-22.5 -73.5z" />
    <glyph glyph-name="uni2087" unicode="&#x2087;" 
d="M315 204l-163 -379h-80l166 372h-187v62h264v-55z" />
    <glyph glyph-name="uni2088" unicode="&#x2088;" 
d="M118 149q0 -31 18 -48.5t44 -17.5q27 0 44 18t17 48q0 32 -17.5 48.5t-43.5 16.5q-27 0 -44.5 -16.5t-17.5 -48.5zM109 -50q0 -38 19.5 -59.5t51.5 -21.5q31 0 50.5 21.5t19.5 59.5q0 35 -19 57t-51 22q-31 0 -51 -21t-20 -58zM322 -55q0 -28 -9.5 -52.5t-27.5 -42.5
t-44.5 -28.5t-60.5 -10.5q-35 0 -61.5 10t-44.5 28t-27.5 42t-9.5 52q0 42 22 71.5t60 43.5v1q-32 12 -51.5 36.5t-19.5 57.5q0 25 9 47t26.5 38t42 25t54.5 9q60 0 95.5 -33t35.5 -82q0 -35 -19 -60t-51 -36v-2q41 -14 61 -43.5t20 -70.5z" />
    <glyph glyph-name="uni2089" unicode="&#x2089;" 
d="M332 116q0 -42 -13.5 -77t-38.5 -68l-107 -146h-78l101 136q-7 -2 -12.5 -2.5t-16.5 -0.5q-33 1 -59 13.5t-44 33.5t-27.5 49.5t-9.5 61.5q0 32 11 60.5t31 50t48 34t63 12.5q34 0 62 -12t48 -33t31 -49.5t11 -62.5zM260 116q0 46 -23 71.5t-58 25.5t-58 -25.5t-23 -71.5
q0 -45 22.5 -72.5t58.5 -27.5t58.5 26.5t22.5 73.5z" />
    <glyph glyph-name="franc" unicode="&#x20a3;" horiz-adv-x="483" 
d="M10 200h95v482h315v-72h-238v-221h229v-72h-229v-117h182v-65h-182v-135h-77v135h-95v65z" />
    <glyph glyph-name="lira" unicode="&#x20a4;" horiz-adv-x="483" 
d="M30 433h47q-6 34 -6 79q0 38 11.5 73t34 61.5t55.5 42.5t76 16t75.5 -14t55 -39t34 -59.5t13.5 -75.5h-78q-2 56 -28.5 86t-70.5 30q-50 0 -74 -32t-24 -91q0 -20 1 -39t3 -38h206v-62h-195q4 -17 7 -32t5 -26h183v-62h-176q1 -7 1 -13v-11q0 -43 -13.5 -74.5
t-35.5 -48.5q23 0 47 -7t53 -21q22 -11 42.5 -18.5t39.5 -7.5q23 0 39 23t17 83h78q-2 -88 -35 -133t-87 -45q-33 0 -62.5 9t-58.5 22q-25 11 -45 18t-40 7q-26 0 -48.5 -9t-46.5 -23v70q23 10 39 26t26 34.5t14.5 39t4.5 40.5q0 10 -0.5 19t-1.5 20h-82v62h72l-13 58h-59
v62z" />
    <glyph glyph-name="peseta" unicode="&#x20a7;" horiz-adv-x="1045" 
d="M70 682h172q46 0 84.5 -12t67 -37t44.5 -63.5t18 -90.5h61v154h74v-154h102v-64h-102v-275q0 -45 15 -63t50 -18q11 0 21.5 1t19.5 3v-63q-11 -3 -27.5 -4.5t-27.5 -1.5q-63 0 -94 34t-31 115v272h-66q-13 -74 -65 -114.5t-150 -40.5h-86v-260h-80v682zM934 370
q-4 26 -21.5 42t-44.5 16q-30 0 -47.5 -16t-17.5 -46q0 -15 4 -26t13.5 -20.5t25.5 -19.5t40 -22q38 -19 62.5 -36.5t39 -36t20.5 -38t6 -42.5q0 -27 -10 -52.5t-29 -45t-47 -31.5t-64 -12q-66 0 -104.5 38.5t-43.5 100.5h72q2 -32 21 -52.5t57 -20.5t56.5 22.5t18.5 49.5
q0 25 -18.5 46.5t-65.5 44.5q-34 16 -58 31.5t-39 33.5t-22 39.5t-7 48.5q0 26 9.5 49t27 40.5t43 28t57.5 10.5t56.5 -11t41.5 -28.5t26 -39.5t11 -45h-69zM373 469q0 31 -7.5 56.5t-23 44t-40 28.5t-58.5 10h-94v-274h92q39 0 64 10.5t40 29t21 43t6 52.5z" />
    <glyph glyph-name="Euro" unicode="&#x20ac;" horiz-adv-x="483" 
d="M185 235q3 -50 13.5 -84.5t28.5 -55.5t43 -30t58 -9q11 0 26 1t31.5 3.5t32 5.5t27.5 7v-74q-10 -3 -25.5 -6t-33 -5t-34.5 -3t-29 -1q-50 0 -88 13.5t-65 43.5t-43 78t-22 116h-79l12 63h64q-1 10 -1 23v24v25.5t1 24.5h-74l12 63h66q12 121 71.5 180.5t153.5 59.5
q30 0 62.5 -7t54.5 -17l-14 -71q-19 10 -49 16.5t-60 6.5q-27 0 -51 -8.5t-42 -28.5t-30 -52t-16 -79h223l-12 -63h-215q-1 -11 -1 -23.5v-23.5v-26t1 -24h200l-12 -63h-185z" />
    <glyph glyph-name="afii61248" unicode="&#x2105;" horiz-adv-x="700" 
d="M579 682l-388 -682h-70l387 682h71zM378 171q0 50 13 85t34 57t47 32t52 10q24 0 49.5 -9t46.5 -30t34.5 -56t13.5 -87q0 -58 -15 -94.5t-37 -57.5t-47 -29t-45 -8q-25 0 -51 9t-47 30.5t-34.5 57.5t-13.5 90zM598 171q0 63 -19.5 91.5t-56.5 28.5q-15 0 -28 -6
t-23.5 -20t-16.5 -37t-6 -56q0 -68 20.5 -96t55.5 -28q14 0 27.5 6t24 20.5t16.5 38t6 58.5zM176 698q61 0 94.5 -32.5t38.5 -80.5h-70q-4 23 -21 36t-43 13q-28 0 -50.5 -29t-22.5 -92q0 -57 21 -89.5t54 -32.5q23 0 41 13.5t23 42.5h70q-11 -61 -45 -90.5t-86 -29.5
q-67 0 -107.5 48t-40.5 139q0 42 11 76t30 58t45.5 37t57.5 13z" />
    <glyph glyph-name="afii61289" unicode="&#x2113;" horiz-adv-x="483" 
d="M417 55q-11 -12 -25.5 -24t-31.5 -22t-37 -16.5t-42 -6.5q-33 0 -55.5 12.5t-37 33.5t-21 48.5t-6.5 58.5v88l-58 -62l-35 37l93 101v216q0 89 32.5 134t90.5 45q27 0 46 -10.5t30 -26t16 -34.5t5 -37q0 -72 -31.5 -135.5t-81.5 -126.5q-8 -9 -17.5 -21t-16.5 -20v-146
q0 -51 19 -72.5t46 -21.5q26 0 48 17t38 34q8 -11 16 -21.5t16 -21.5zM326 582q0 22 -9 39t-29 17q-24 0 -39 -25.5t-15 -85.5v-162q5 6 10.5 13.5t10.5 14.5q31 46 51 96.5t20 92.5z" />
    <glyph glyph-name="afii61352" unicode="&#x2116;" horiz-adv-x="974" 
d="M142 549q0 -14 0.5 -33.5t1 -40.5t0.5 -40.5v-32.5v-402h-75v682h76l179 -322q46 -83 75.5 -140.5t42.5 -87.5h3q-1 35 -1.5 68.5t-0.5 68.5v413h75v-682h-76l-180 325q-27 49 -46.5 85.5t-33 62.5t-22 44t-14.5 32h-4zM600 319q0 46 13 82t36.5 61t55 38.5t68.5 13.5
q39 0 71 -14.5t54.5 -41t35 -62t12.5 -77.5q0 -44 -12.5 -79.5t-35 -61.5t-54.5 -40t-71 -14q-37 0 -68.5 13.5t-55 38.5t-36.5 61.5t-13 81.5zM674 319q0 -57 27.5 -91.5t71.5 -34.5t71.5 33.5t27.5 92.5q0 57 -27.5 91.5t-71.5 34.5q-42 0 -70.5 -30t-28.5 -96zM615 0v64
h316v-64h-316z" />
    <glyph glyph-name="uni2117" unicode="&#x2117;" horiz-adv-x="796" 
d="M35 341q0 75 28.5 141t78 115.5t115.5 78t141 28.5t141.5 -28.5t115.5 -78t77.5 -115.5t28.5 -141t-28.5 -141t-77.5 -115.5t-115.5 -78t-141.5 -28.5t-141 28.5t-115.5 78t-78 115.5t-28.5 141zM93 341q0 -63 24 -119t65.5 -97t97 -65t118.5 -24t119 24t97 65t65 97
t24 119t-24 119t-65 97t-97 65t-119 24t-118.5 -24t-97 -65t-65.5 -97t-24 -119zM484 415q0 29 -17.5 48.5t-59.5 19.5h-56v-136h55q46 0 62 19.5t16 48.5zM286 541h122q30 0 56 -7.5t45.5 -23t31 -39.5t11.5 -56q0 -59 -38 -92.5t-113 -33.5h-50v-137h-65v389z" />
    <glyph glyph-name="trademark" unicode="&#x2122;" horiz-adv-x="495" 
d="M445 471h-50l-6 118q-1 17 -1 29v20h-3q-2 -8 -4 -20t-7 -29l-38 -118h-44l-34 111q-7 22 -9.5 35t-4.5 21h-2v-21.5t-1 -30.5l-7 -115h-50l19 211h67l35 -107q5 -16 7 -23t3 -12h1q2 8 4 15t7 21l34 106h67zM25 682h157v-45h-55v-166h-49v166h-53v45z" />
    <glyph glyph-name="uni2126" unicode="&#x2126;" horiz-adv-x="616" 
d="M351 0v124q71 18 108 85.5t37 175.5q0 53 -12.5 98.5t-36 78.5t-58 52t-78.5 19q-43 0 -78.5 -18t-60.5 -50.5t-38.5 -78.5t-13.5 -102q0 -117 41 -180t106 -80v-124h-227v72h155v10q-74 32 -115.5 108.5t-41.5 197.5q0 71 21.5 129.5t58.5 100t87 64.5t107 23
q61 0 110 -24.5t83.5 -67t53.5 -100t19 -123.5q0 -109 -37 -187.5t-118 -120.5v-10h155v-72h-227z" />
    <glyph glyph-name="estimated" unicode="&#x212e;" horiz-adv-x="670" 
d="M166 299v-209q66 -65 166 -65q74 0 128.5 37.5t92.5 95.5q9 -5 17.5 -10t16.5 -10q-22 -32 -48 -59t-57 -47.5t-68.5 -32t-81.5 -11.5q-66 0 -120 24.5t-91.5 67t-58 98.5t-20.5 119q0 64 20 121t57.5 99t92 66.5t122.5 24.5q67 0 120.5 -25t91 -67t58.5 -98t24 -119
h-462zM499 504q-32 32 -75 50t-91 18q-101 0 -167 -66v-171h333v169z" />
    <glyph glyph-name="onethird" unicode="&#x2153;" horiz-adv-x="869" 
d="M150 621h-62v61h133v-434h-71v373zM648 682l-387 -682h-70l386 682h71zM558 325q1 25 10.5 47.5t26 39t40 26t53.5 9.5q61 0 94 -31.5t33 -80.5q0 -37 -22.5 -62.5t-55.5 -33.5v-2q42 -9 66.5 -38t24.5 -76q0 -27 -9 -51.5t-26.5 -43.5t-44 -30.5t-62.5 -11.5
q-66 0 -101 36.5t-40 96.5h72q9 -74 70 -74q33 0 51 23.5t18 59.5q0 31 -19.5 54.5t-64.5 23.5h-26v56h22q33 0 53.5 17.5t20.5 46.5q0 27 -13.5 45t-42.5 18t-42 -20t-15 -44h-71z" />
    <glyph glyph-name="twothirds" unicode="&#x2154;" horiz-adv-x="869" 
d="M52 299l126 153q25 31 42.5 58t17.5 59q0 29 -15 47t-42 18q-28 0 -42.5 -20t-16.5 -55h-72q4 58 37 97t97 39q30 0 54 -9.5t40.5 -26.5t25.5 -39.5t9 -47.5q0 -43 -20.5 -79t-61.5 -83l-85 -99h173v-63h-267v51zM663 682l-387 -682h-70l386 682h71zM558 325
q1 25 10.5 47.5t26 39t40 26t53.5 9.5q61 0 94 -31.5t33 -80.5q0 -37 -22.5 -62.5t-55.5 -33.5v-2q42 -9 66.5 -38t24.5 -76q0 -27 -9 -51.5t-26.5 -43.5t-44 -30.5t-62.5 -11.5q-66 0 -101 36.5t-40 96.5h72q9 -74 70 -74q33 0 51 23.5t18 59.5q0 31 -19.5 54.5t-64.5 23.5
h-26v56h22q33 0 53.5 17.5t20.5 46.5q0 27 -13.5 45t-42.5 18t-42 -20t-15 -44h-71z" />
    <glyph glyph-name="oneeighth" unicode="&#x215b;" horiz-adv-x="869" 
d="M150 621h-62v61h133v-434h-71v373zM648 682l-387 -682h-70l386 682h71zM628 324q0 -31 18 -48.5t44 -17.5q27 0 44 18t17 48q0 32 -17.5 48.5t-43.5 16.5q-27 0 -44.5 -16.5t-17.5 -48.5zM619 125q0 -38 19.5 -59.5t51.5 -21.5q31 0 50.5 21.5t19.5 59.5q0 35 -19 57
t-51 22q-31 0 -51 -21t-20 -58zM832 120q0 -28 -9.5 -52.5t-27.5 -42.5t-44.5 -28.5t-60.5 -10.5q-35 0 -61.5 10t-44.5 28t-27.5 42t-9.5 52q0 42 22 71.5t60 43.5v1q-32 12 -51.5 36.5t-19.5 57.5q0 25 9 47t26.5 38t42 25t54.5 9q60 0 95.5 -33t35.5 -82q0 -35 -19 -60
t-51 -36v-2q41 -14 61 -43.5t20 -70.5z" />
    <glyph glyph-name="threeeighths" unicode="&#x215c;" horiz-adv-x="869" 
d="M48 573q1 25 10.5 47.5t26 39t40 26t53.5 9.5q61 0 94 -31.5t33 -80.5q0 -37 -22.5 -62.5t-55.5 -33.5v-2q42 -9 66.5 -38t24.5 -76q0 -27 -9 -51.5t-26.5 -43.5t-44 -30.5t-62.5 -11.5q-66 0 -101 36.5t-40 96.5h72q9 -74 70 -74q33 0 51 23.5t18 59.5q0 31 -19.5 54.5
t-64.5 23.5h-26v56h22q33 0 54 17.5t21 46.5q0 27 -14 45t-43 18t-42 -20t-15 -44h-71zM663 682l-387 -682h-70l386 682h71zM628 324q0 -31 18 -48.5t44 -17.5q27 0 44 18t17 48q0 32 -17.5 48.5t-43.5 16.5q-27 0 -44.5 -16.5t-17.5 -48.5zM619 125q0 -38 19.5 -59.5
t51.5 -21.5q31 0 50.5 21.5t19.5 59.5q0 35 -19 57t-51 22q-31 0 -51 -21t-20 -58zM832 120q0 -28 -9.5 -52.5t-27.5 -42.5t-44.5 -28.5t-60.5 -10.5q-35 0 -61.5 10t-44.5 28t-27.5 42t-9.5 52q0 42 22 71.5t60 43.5v1q-32 12 -51.5 36.5t-19.5 57.5q0 25 9 47t26.5 38
t42 25t54.5 9q60 0 95.5 -33t35.5 -82q0 -35 -19 -60t-51 -36v-2q41 -14 61 -43.5t20 -70.5z" />
    <glyph glyph-name="fiveeighths" unicode="&#x215d;" horiz-adv-x="869" 
d="M131 527q8 2 22 3.5t22 1.5q65 0 102 -40.5t37 -106.5q0 -29 -9 -56t-26.5 -48t-43.5 -34t-61 -13q-34 0 -59 10t-42 27.5t-26 40t-11 48.5h72q2 -28 19.5 -46t48.5 -18q28 0 46.5 23t18.5 62q0 43 -22.5 67t-67.5 24q-42 0 -90 -14l22 224h198v-62h-141zM663 682
l-387 -682h-70l386 682h71zM628 324q0 -31 18 -48.5t44 -17.5q27 0 44 18t17 48q0 32 -17.5 48.5t-43.5 16.5q-27 0 -44.5 -16.5t-17.5 -48.5zM619 125q0 -38 19.5 -59.5t51.5 -21.5q31 0 50.5 21.5t19.5 59.5q0 35 -19 57t-51 22q-31 0 -51 -21t-20 -58zM832 120
q0 -28 -9.5 -52.5t-27.5 -42.5t-44.5 -28.5t-60.5 -10.5q-35 0 -61.5 10t-44.5 28t-27.5 42t-9.5 52q0 42 22 71.5t60 43.5v1q-32 12 -51.5 36.5t-19.5 57.5q0 25 9 47t26.5 38t42 25t54.5 9q60 0 95.5 -33t35.5 -82q0 -35 -19 -60t-51 -36v-2q41 -14 61 -43.5t20 -70.5z
" />
    <glyph glyph-name="seveneighths" unicode="&#x215e;" horiz-adv-x="869" 
d="M315 627l-163 -379h-80l166 372h-187v62h264v-55zM643 682l-387 -682h-70l386 682h71zM628 324q0 -31 18 -48.5t44 -17.5q27 0 44 18t17 48q0 32 -17.5 48.5t-43.5 16.5q-27 0 -44.5 -16.5t-17.5 -48.5zM619 125q0 -38 19.5 -59.5t51.5 -21.5q31 0 50.5 21.5t19.5 59.5
q0 35 -19 57t-51 22q-31 0 -51 -21t-20 -58zM832 120q0 -28 -9.5 -52.5t-27.5 -42.5t-44.5 -28.5t-60.5 -10.5q-35 0 -61.5 10t-44.5 28t-27.5 42t-9.5 52q0 42 22 71.5t60 43.5v1q-32 12 -51.5 36.5t-19.5 57.5q0 25 9 47t26.5 38t42 25t54.5 9q60 0 95.5 -33t35.5 -82
q0 -35 -19 -60t-51 -36v-2q41 -14 61 -43.5t20 -70.5z" />
    <glyph glyph-name="partialdiff" unicode="&#x2202;" horiz-adv-x="506" 
d="M462 473q0 -94 -22 -188q-13 -56 -34 -109t-51.5 -94.5t-70.5 -67t-89 -25.5q-74 0 -117 53t-43 141q0 74 19.5 131.5t51.5 97t71.5 60t80.5 20.5q48 0 79 -19.5t43 -48.5h2q2 15 2.5 27t0.5 31q0 82 -33.5 127t-96.5 45q-23 0 -47 -7.5t-44 -20.5q-5 15 -10 29.5
t-10 29.5q18 13 52.5 24.5t73.5 11.5q90 0 141 -65t51 -183zM368 336q-4 18 -12 34.5t-20 30t-28 21.5t-37 8q-31 0 -59 -19t-49.5 -53t-34.5 -79.5t-13 -99.5q0 -56 22.5 -89.5t61.5 -33.5q30 0 56 20t48 57t38.5 88.5t26.5 114.5z" />
    <glyph glyph-name="uni2206" unicode="&#x2206;" horiz-adv-x="534" 
d="M234 682h73l225 -682h-530zM107 72h317l-117 380q-8 28 -19 64.5t-19 66.5h-4q-8 -32 -18 -67.5t-19 -64.5z" />
    <glyph glyph-name="product" unicode="&#x220f;" horiz-adv-x="670" 
d="M514 -235v843h-359v-843h-80v917h520v-917h-81z" />
    <glyph glyph-name="summation" unicode="&#x2211;" horiz-adv-x="608" 
d="M26 -235v39l315 425l-292 409v44h495v-69h-385l275 -382l-294 -397h430v-69h-544z" />
    <glyph glyph-name="minus" unicode="&#x2212;" horiz-adv-x="566" 
d="M52 229v70h462v-70h-462z" />
    <glyph glyph-name="uni2215" unicode="&#x2215;" horiz-adv-x="151" 
d="M304 682l-387 -682h-70l386 682h71z" />
    <glyph glyph-name="uni2219" unicode="&#x2219;" horiz-adv-x="214" 
d="M55 409h104v-108h-104v108z" />
    <glyph glyph-name="radical" unicode="&#x221a;" horiz-adv-x="516" 
d="M311 -12h-67q-36 84 -72.5 167t-72.5 167q-14 -8 -28.5 -17t-28.5 -17q-7 12 -13.5 23t-13.5 23q30 19 60.5 38t59.5 37q35 -81 70.5 -161t70.5 -161q45 158 90 316.5t90 316.5h62z" />
    <glyph glyph-name="infinity" unicode="&#x221e;" horiz-adv-x="833" 
d="M781 291q0 -35 -12 -66t-34.5 -54t-54 -36.5t-71.5 -13.5q-61 0 -110.5 30t-81.5 79h-3q-34 -49 -82 -79t-107 -30q-39 0 -71 12.5t-54.5 34.5t-35 52.5t-12.5 66.5q0 38 12.5 69.5t35 54t54 35t69.5 12.5q66 0 113 -31.5t78 -79.5h3q13 19 32 39t42.5 36t52.5 26t62 10
q38 0 70 -12t55.5 -34t36.5 -53t13 -68zM703 290q0 21 -5.5 39t-17.5 31.5t-31 21t-47 7.5q-48 0 -84.5 -27t-66.5 -73q29 -50 68 -75.5t84 -25.5q55 0 77.5 30t22.5 72zM381 289q-29 48 -70 74t-84 26q-53 0 -75.5 -29t-22.5 -73q0 -45 26.5 -72t71.5 -27q48 0 87 28.5
t67 72.5z" />
    <glyph glyph-name="integral" unicode="&#x222b;" horiz-adv-x="483" 
d="M410 666q-8 4 -21 7t-27 3q-43 0 -64 -26t-21 -74v-633q0 -82 -42 -127.5t-118 -45.5q-17 0 -38 4.5t-35 9.5l18 61q9 -3 21 -6t27 -3q43 0 64.5 26t21.5 73v636q0 78 40 124t119 46q22 0 42.5 -4t31.5 -10z" />
    <glyph glyph-name="approxequal" unicode="&#x2248;" horiz-adv-x="566" 
d="M527 188q-26 -43 -60 -73.5t-84 -30.5q-31 0 -56 9.5t-51 26.5q-19 13 -32.5 21t-24 12.5t-18.5 6.5t-17 2q-31 0 -51.5 -18.5t-37.5 -47.5l-56 36q10 19 24.5 37.5t32.5 32t39.5 22t46.5 8.5q32 0 56 -10.5t52 -28.5q19 -12 32 -20t23 -12t18.5 -5.5t19.5 -1.5
q31 0 50.5 20t37.5 50zM527 408q-26 -43 -60 -74.5t-84 -31.5q-31 0 -56 9.5t-51 26.5q-19 13 -32.5 21t-24 12.5t-18.5 6.5t-17 2q-31 0 -51.5 -18.5t-37.5 -47.5l-56 36q10 19 24.5 37.5t32.5 32t39.5 22t46.5 8.5q32 0 56 -10.5t52 -28.5q19 -12 32 -20t23 -12t18.5 -5.5
t19.5 -1.5q31 0 50.5 21t37.5 51z" />
    <glyph glyph-name="notequal" unicode="&#x2260;" horiz-adv-x="566" 
d="M254 119l-57 -119h-76l57 119h-126v70h156l73 152h-229v70h259l55 115h78l-57 -115h127v-70h-157l-73 -152h230v-70h-260z" />
    <glyph glyph-name="lessequal" unicode="&#x2264;" horiz-adv-x="566" 
d="M52 0v70h462v-70h-462zM52 292v67l462 192v-81l-350 -144v-2l350 -143v-82z" />
    <glyph glyph-name="greaterequal" unicode="&#x2265;" horiz-adv-x="566" 
d="M52 0v70h462v-70h-462zM514 358v-67l-462 -192v81l350 144v2l-350 143v82z" />
    <glyph glyph-name="lozenge" unicode="&#x25ca;" horiz-adv-x="592" 
d="M536 341l-219 -341h-44l-217 340l217 342h44zM464 341l-169 262l-168 -262l168 -262z" />
    <glyph glyph-name="uniF001" unicode="&#xf001;" horiz-adv-x="450" 
d="M23 479h55v88q0 82 33.5 120t96.5 38q11 0 25 -2t24 -4v-63q-9 2 -21 3.5t-21 1.5q-33 0 -48 -20t-15 -65v-97h89v-64h-89v-415h-74v415h-55v64zM313 479h73v-479h-73v479zM304 686h92v-91h-92v91z" />
    <glyph glyph-name="uniF002" unicode="&#xf002;" horiz-adv-x="456" 
d="M23 479h55v88q0 82 33.5 120t96.5 38q11 0 25 -2t24 -4v-63q-9 2 -21 3.5t-21 1.5q-33 0 -48 -20t-15 -65v-97h89v-64h-89v-415h-74v415h-55v64zM318 720h74v-720h-74v720z" />
    <glyph glyph-name="uniF8FF" unicode="&#xf8ff;" horiz-adv-x="500" 
d="M12 665h475v-665h-475v665zM250 375l161 243h-323zM60 91l7 10t18 27t25.5 39t29.5 45q35 54 81 121l-161 242v-484zM278 333l162 -243v485zM250 290l-162 -242h323z" />
    <glyph glyph-name="glyph369" horiz-adv-x="318" 
d="M114 -68h88v-65q0 -32 -10 -57.5t-20 -36.5h-45q20 32 23 72h-36v87z" />
    <glyph glyph-name="zero.dnom" 
d="M26 223q0 62 13.5 105t36 69.5t50.5 38.5t57 12q26 0 53 -11t48.5 -37t35 -69.5t13.5 -108.5q0 -72 -15.5 -117.5t-38.5 -72t-50 -36.5t-50 -10q-26 0 -53.5 11t-49.5 38t-36 73t-14 115zM260 220q0 87 -21.5 126.5t-58.5 39.5q-15 0 -29.5 -8t-26 -27t-18 -50t-6.5 -76
q0 -49 6 -82.5t16.5 -54.5t25.5 -30.5t32 -9.5q15 0 29.5 8.5t25.5 29t18 53.5t7 81z" />
    <glyph glyph-name="one.dnom" 
d="M150 373h-62v61h133v-434h-71v373z" />
    <glyph glyph-name="two.dnom" 
d="M52 51l126 153q25 31 42.5 58t17.5 59q0 29 -15 47t-42 18q-28 0 -42.5 -20t-16.5 -55h-72q4 58 37 97t97 39q30 0 54 -9.5t40.5 -26.5t25.5 -39.5t9 -47.5q0 -43 -20.5 -79t-61.5 -83l-85 -99h173v-63h-267v51z" />
    <glyph glyph-name="three.dnom" 
d="M48 325q1 25 10.5 47.5t26 39t40 26t53.5 9.5q61 0 94 -31.5t33 -80.5q0 -37 -22.5 -62.5t-55.5 -33.5v-2q42 -9 66.5 -38t24.5 -76q0 -27 -9 -51.5t-26.5 -43.5t-44 -30.5t-62.5 -11.5q-66 0 -101 36.5t-40 96.5h72q9 -74 70 -74q33 0 51 23.5t18 59.5q0 31 -19.5 54.5
t-64.5 23.5h-26v56h22q33 0 53.5 17.5t20.5 46.5q0 27 -13.5 45t-42.5 18t-42 -20t-15 -44h-71z" />
    <glyph glyph-name="four.dnom" 
d="M275 86v-86h-68v86h-183v55l186 293h65v-290h60v-58h-60zM90 144h117v147q0 22 3 49h-3q-5 -12 -14 -29.5t-15 -28.5z" />
    <glyph glyph-name="five.dnom" 
d="M131 279q8 2 22 3.5t22 1.5q65 0 102 -40.5t37 -106.5q0 -29 -9 -56t-26.5 -48t-43.5 -34t-61 -13q-34 0 -59 10t-42 27.5t-26 40t-11 48.5h72q2 -28 19.5 -46t48.5 -18q28 0 46.5 23t18.5 62q0 43 -22.5 67t-67.5 24q-42 0 -90 -14l22 224h198v-62h-141z" />
    <glyph glyph-name="six.dnom" 
d="M27 143q0 42 13.5 77t38.5 68l107 146h78l-101 -136q7 2 12.5 2.5t16.5 0.5q33 -1 59 -13.5t44 -33.5t27.5 -49.5t9.5 -61.5q0 -32 -11 -60.5t-31 -50t-48.5 -34t-62.5 -12.5t-62 12t-48 33t-31 49.5t-11 62.5zM99 143q0 -46 23 -71.5t58 -25.5t58 25.5t23 71.5
q0 45 -22.5 72.5t-58.5 27.5t-58.5 -26.5t-22.5 -73.5z" />
    <glyph glyph-name="seven.dnom" 
d="M315 379l-163 -379h-80l166 372h-187v62h264v-55z" />
    <glyph glyph-name="eight.dnom" 
d="M118 324q0 -31 18 -48.5t44 -17.5q27 0 44 18t17 48q0 32 -17.5 48.5t-43.5 16.5q-27 0 -44.5 -16.5t-17.5 -48.5zM109 125q0 -38 19.5 -59.5t51.5 -21.5q31 0 50.5 21.5t19.5 59.5q0 35 -19 57t-51 22q-31 0 -51 -21t-20 -58zM322 120q0 -28 -9.5 -52.5t-27.5 -42.5
t-44.5 -28.5t-60.5 -10.5q-35 0 -61.5 10t-44.5 28t-27.5 42t-9.5 52q0 42 22 71.5t60 43.5v1q-32 12 -51.5 36.5t-19.5 57.5q0 25 9 47t26.5 38t42 25t54.5 9q60 0 95.5 -33t35.5 -82q0 -35 -19 -60t-51 -36v-2q41 -14 61 -43.5t20 -70.5z" />
    <glyph glyph-name="nine.dnom" 
d="M332 291q0 -42 -13.5 -77t-38.5 -68l-107 -146h-78l101 136q-7 -2 -12.5 -2.5t-16.5 -0.5q-33 1 -59 13.5t-44 33.5t-27.5 49.5t-9.5 61.5q0 32 11 60.5t31 50t48 34t63 12.5q34 0 62 -12t48 -33t31 -49.5t11 -62.5zM260 291q0 46 -23 71.5t-58 25.5t-58 -25.5t-23 -71.5
q0 -45 22.5 -72.5t58.5 -27.5t58.5 26.5t22.5 73.5z" />
    <glyph glyph-name="zero.numr" 
d="M26 470q0 62 13.5 105t36 69.5t50.5 38.5t57 12q26 0 53 -11t48.5 -37t35 -69.5t13.5 -108.5q0 -72 -15.5 -117.5t-38.5 -71.5t-50 -36t-50 -10q-26 0 -53.5 11t-49.5 38t-36 72.5t-14 114.5zM260 467q0 87 -21.5 126.5t-58.5 39.5q-15 0 -29.5 -8t-26 -27t-18 -50
t-6.5 -76q0 -49 6 -82.5t16.5 -54.5t25.5 -30t32 -9q15 0 29.5 8.5t25.5 28.5t18 53t7 81z" />
    <glyph glyph-name="one.numr" 
d="M150 621h-62v61h133v-434h-71v373z" />
    <glyph glyph-name="two.numr" 
d="M52 299l126 153q25 31 42.5 58t17.5 59q0 29 -15 47t-42 18q-28 0 -42.5 -20t-16.5 -55h-72q4 58 37 97t97 39q30 0 54 -9.5t40.5 -26.5t25.5 -39.5t9 -47.5q0 -43 -20.5 -79t-61.5 -83l-85 -99h173v-63h-267v51z" />
    <glyph glyph-name="three.numr" 
d="M48 573q1 25 10.5 47.5t26 39t40 26t53.5 9.5q61 0 94 -31.5t33 -80.5q0 -37 -22.5 -62.5t-55.5 -33.5v-2q42 -9 66.5 -38t24.5 -76q0 -27 -9 -51.5t-26.5 -43.5t-44 -30.5t-62.5 -11.5q-66 0 -101 36.5t-40 96.5h72q9 -74 70 -74q33 0 51 23.5t18 59.5q0 31 -19.5 54.5
t-64.5 23.5h-26v56h22q33 0 54 17.5t21 46.5q0 27 -14 45t-43 18t-42 -20t-15 -44h-71z" />
    <glyph glyph-name="four.numr" 
d="M275 334v-86h-69v86h-182v55l186 293h65v-290h60v-58h-60zM90 392h116v146q0 9 0.5 23.5t2.5 25.5h-3q-5 -12 -12 -26t-13 -25z" />
    <glyph glyph-name="five.numr" 
d="M131 527q8 2 22 3.5t22 1.5q65 0 102 -40.5t37 -106.5q0 -29 -9 -56t-26.5 -48t-43.5 -34t-61 -13q-34 0 -59 10t-42 27.5t-26 40t-11 48.5h72q2 -28 19.5 -46t48.5 -18q28 0 46.5 23t18.5 62q0 43 -22.5 67t-67.5 24q-42 0 -90 -14l22 224h198v-62h-141z" />
    <glyph glyph-name="six.numr" 
d="M27 391q0 42 13.5 77t38.5 68l107 146h78l-101 -136q7 2 12.5 2.5t16.5 0.5q33 -1 59 -13.5t44 -33.5t27.5 -49.5t9.5 -61.5q0 -32 -11 -60.5t-31 -50t-48.5 -34t-62.5 -12.5t-62 12t-48 33t-31 49.5t-11 62.5zM99 391q0 -46 23 -71.5t58 -25.5t58 25.5t23 71.5
q0 45 -22.5 72.5t-58.5 27.5t-58.5 -26.5t-22.5 -73.5z" />
    <glyph glyph-name="seven.numr" 
d="M315 627l-163 -379h-80l166 372h-187v62h264v-55z" />
    <glyph glyph-name="eight.numr" 
d="M117 572q0 -31 18.5 -48.5t44.5 -17.5q27 0 44.5 18t17.5 48q0 32 -18 48.5t-44 16.5q-27 0 -45 -16.5t-18 -48.5zM109 373q0 -38 19.5 -59.5t51.5 -21.5q31 0 50.5 21.5t19.5 59.5q0 35 -19 57t-51 22q-31 0 -51 -21t-20 -58zM322 368q0 -28 -9.5 -52.5t-27.5 -42.5
t-44.5 -28.5t-60.5 -10.5q-35 0 -61.5 10t-44.5 28t-27.5 42t-9.5 52q0 42 22 71.5t60 43.5v1q-32 12 -51 36.5t-19 57.5q0 51 35 85t96 34q60 0 95 -33t35 -82q0 -35 -18.5 -60t-50.5 -36v-2q41 -14 61 -43.5t20 -70.5z" />
    <glyph glyph-name="nine.numr" 
d="M332 538q0 -42 -13.5 -77t-38.5 -68l-107 -145h-78l101 135q-7 -2 -12.5 -2.5t-16.5 -0.5q-33 1 -59 13.5t-44 33.5t-27.5 49.5t-9.5 61.5q0 32 11 60.5t31 50t48 34t63 12.5q34 0 62 -12t48 -33t31 -49.5t11 -62.5zM260 538q0 46 -23 71.5t-58 25.5t-58 -25.5t-23 -71.5
q0 -45 22.5 -72.5t58.5 -27.5t58.5 26.5t22.5 73.5z" />
    <glyph glyph-name="glyph423" horiz-adv-x="272" 
d="M248 825l-160 -89l-29 47l154 104z" />
    <glyph glyph-name="glyph424" horiz-adv-x="318" 
d="M305 879q-2 -28 -13 -52t-30 -42t-45 -28t-58 -10q-33 0 -59 10t-45 28t-30 42t-12 52h61q2 -29 24.5 -50.5t60.5 -21.5t60.5 21.5t24.5 50.5h61z" />
    <glyph glyph-name="glyph425" horiz-adv-x="318" 
d="M115 720h88v-65q0 -32 -10 -57.5t-20 -36.5h-45q20 32 23 72h-36v87z" />
    <glyph glyph-name="glyph426" horiz-adv-x="318" 
d="M24 833l28 44l107 -59l107 59l28 -44l-135 -94z" />
    <glyph glyph-name="glyph427" horiz-adv-x="318" 
d="M294 783l-28 -44l-107 59l-107 -59l-28 44l135 94z" />
    <glyph glyph-name="glyph428" horiz-adv-x="318" 
d="M203 553h-88v65q0 32 10 57.5t20 36.5h45q-20 -32 -23 -72h36v-87z" />
    <glyph glyph-name="glyph429" horiz-adv-x="318" 
d="M35 863h88v-87h-88v87zM195 863h88v-87h-88v87z" />
    <glyph glyph-name="glyph430" horiz-adv-x="318" 
d="M115 866h88v-87h-88v87z" />
    <glyph glyph-name="glyph431" horiz-adv-x="272" 
d="M59 887l154 -104l-29 -47l-160 89z" />
    <glyph glyph-name="glyph432" horiz-adv-x="318" 
d="M235 839l-155 -108l-32 41l144 123zM400 839l-155 -108l-32 41l144 123z" />
    <glyph glyph-name="glyph433" horiz-adv-x="318" 
d="M20 788v59h278v-59h-278z" />
    <glyph glyph-name="glyph434" horiz-adv-x="318" 
d="M97 823q0 -26 18.5 -44.5t44.5 -18.5t43.5 18.5t17.5 44.5t-17.5 43.5t-43.5 17.5t-44.5 -17.5t-18.5 -43.5zM52 823q0 22 8.5 41.5t23 33.5t34 22.5t42.5 8.5q45 0 75.5 -30.5t30.5 -75.5q0 -22 -8.5 -41.5t-22.5 -34.5t-33.5 -23.5t-41.5 -8.5q-23 0 -42.5 8.5
t-34 23.5t-23 34.5t-8.5 41.5z" />
    <glyph glyph-name="glyph435" horiz-adv-x="318" 
d="M13 772q2 52 22 82t62 30q22 0 37 -8.5t29 -19.5q14 -12 23.5 -19t15.5 -10t10 -4t8 -1q14 0 22.5 10t9.5 45h53q-2 -55 -24.5 -83.5t-60.5 -28.5q-20 0 -36 7t-33 21t-30.5 24t-22.5 10q-14 0 -22 -12.5t-10 -42.5h-53z" />
    <glyph glyph-name="dollar.aalt" horiz-adv-x="408" 
d="M237 622v-63q29 -5 51 -17t37.5 -29t24 -38t10.5 -43h-72q-6 45 -51 59v-175q39 -18 65 -37.5t41 -40t21 -42.5t6 -45q0 -66 -36.5 -103.5t-96.5 -45.5v-70h-59v69q-66 6 -104.5 45t-43.5 101h72q2 -31 20.5 -52t55.5 -27v195q-71 31 -101 69t-30 92q0 52 34 90t97 46v62
h59zM298 149q0 26 -13 47t-48 41v-168q61 14 61 80zM119 426q0 -27 12 -45.5t47 -37.5v151q-28 -5 -43.5 -22t-15.5 -46z" />
    <glyph glyph-name="zero.oldstyle.pnum" horiz-adv-x="503" 
d="M30 255q0 64 17 114.5t46.5 85t70 53t88.5 18.5t88.5 -18t70 -53t46 -85.5t16.5 -114.5q0 -63 -16.5 -113t-46 -85t-70 -54t-88.5 -19t-88.5 18.5t-70.5 53t-46.5 85t-16.5 114.5zM110 254q0 -48 11 -85t30.5 -62t45 -38t55.5 -13q64 0 102.5 51t38.5 147
q0 91 -37.5 145.5t-103.5 54.5q-65 0 -103.5 -51.5t-38.5 -148.5z" />
    <glyph glyph-name="one.oldstyle.pnum" horiz-adv-x="323" 
d="M137 438h-103v74h179v-512h-76v438z" />
    <glyph glyph-name="two.oldstyle.pnum" horiz-adv-x="467" 
d="M45 61l160 123q36 28 59.5 49.5t37.5 40.5t19.5 38t5.5 42q0 43 -23.5 71.5t-68.5 28.5q-43 0 -70.5 -26t-29.5 -77h-80q5 80 52 127.5t129 47.5q40 0 72 -13t54 -35.5t33.5 -52t11.5 -62.5q0 -31 -8 -59t-25.5 -55t-46 -54.5t-68.5 -57.5l-86 -63h253v-74h-381v61z" />
    <glyph glyph-name="three.oldstyle.pnum" horiz-adv-x="468" 
d="M57 363q2 37 15.5 67.5t36.5 51.5t53.5 32.5t65.5 11.5q38 0 69.5 -12t54 -33.5t35 -52.5t12.5 -69q0 -47 -22.5 -85t-75.5 -57v-2q37 -9 62.5 -27.5t41.5 -44t23.5 -57t7.5 -67.5q0 -49 -14.5 -91t-42 -72.5t-68 -48t-91.5 -17.5q-95 0 -145 53.5t-61 141.5h81
q10 -64 42 -94t89 -30q60 0 94 43.5t34 115.5q0 34 -8.5 62.5t-26.5 49.5t-45.5 32.5t-65.5 11.5h-39v71h42q49 0 77.5 26t28.5 80q0 48 -24.5 75t-65.5 27q-38 0 -62.5 -23.5t-26.5 -68.5h-81z" />
    <glyph glyph-name="four.oldstyle.pnum" horiz-adv-x="478" 
d="M373 48v-192h-75v192h-266l1 69l265 395h76v-390h74l-1 -74h-74zM113 122h186l-1 204v25v17.5t0.5 15t0.5 18.5h-7q-4 -9 -7 -16.5t-7 -16.5t-10 -19.5t-16 -24.5z" />
    <glyph glyph-name="five.oldstyle.pnum" horiz-adv-x="483" 
d="M156 259q14 4 36 6.5t40 2.5q47 0 86.5 -16t68 -46t44.5 -73.5t16 -98.5q0 -49 -14 -93t-40.5 -77.5t-65 -53t-87.5 -19.5q-87 0 -138 48t-57 133h80q3 -46 29 -77.5t86 -31.5q56 0 91.5 44.5t35.5 126.5q0 78 -38 120t-114 42q-35 0 -67.5 -5.5t-69.5 -19.5l29 341h290
v-74h-224z" />
    <glyph glyph-name="six.oldstyle.pnum" horiz-adv-x="493" 
d="M42 207q0 57 22.5 109.5t57.5 113.5l142 252h86l-148 -254q12 5 27 7t26 2q43 0 80 -15.5t64 -44.5t42.5 -70.5t15.5 -94.5q0 -51 -15.5 -93t-43 -72t-66 -46.5t-84.5 -16.5t-84 15t-65 43.5t-42 70t-15 94.5zM122 206q0 -76 35 -113t91 -37t92.5 39.5t36.5 115.5
q0 75 -32.5 114.5t-96.5 39.5q-57 0 -91.5 -40.5t-34.5 -118.5z" />
    <glyph glyph-name="seven.oldstyle.pnum" horiz-adv-x="428" 
d="M392 444l-253 -638h-89l263 632h-283v74h362v-68z" />
    <glyph glyph-name="eight.oldstyle.pnum" horiz-adv-x="503" 
d="M161 523q0 -50 25.5 -76.5t63.5 -26.5q40 0 65.5 27.5t25.5 75.5t-25.5 75.5t-65.5 27.5q-39 0 -64 -27t-25 -76zM124 202q0 -36 10.5 -63.5t28 -46t40.5 -28t47 -9.5q55 0 91.5 38t36.5 109q0 33 -9.5 60t-26 46.5t-40.5 30t-52 10.5q-57 0 -91.5 -39.5t-34.5 -107.5z
M461 197q0 -48 -15.5 -87.5t-43 -67t-66.5 -43t-86 -15.5q-46 0 -84 15t-65.5 43t-43 67.5t-15.5 87.5q0 66 33 117t86 72v2q-38 20 -58.5 54.5t-20.5 83.5q0 37 12.5 68t35 54t53.5 36t67 13q37 0 68.5 -13t54 -36t35 -54t12.5 -68q0 -48 -20.5 -84t-59.5 -54v-2
q27 -10 49.5 -28.5t38 -43t24.5 -54.5t9 -63z" />
    <glyph glyph-name="nine.oldstyle.pnum" horiz-adv-x="493" 
d="M451 311q0 -57 -22.5 -109.5t-57.5 -113.5l-159 -282h-86l165 284q-12 -5 -27 -7t-26 -2q-45 0 -82 16t-63.5 45.5t-41.5 71t-15 92.5t15.5 93t43 72t66 46.5t84.5 16.5t84 -15t65 -43.5t42 -70t15 -94.5zM371 312q0 76 -35 113t-91 37q-57 0 -93 -39.5t-36 -115.5
q0 -73 32.5 -113.5t96.5 -40.5q57 0 91.5 41t34.5 118z" />
    <glyph glyph-name="cent.aalt" horiz-adv-x="455" 
d="M210 28q-36 6 -67 25t-53.5 48t-35.5 69t-13 88q0 43 11 81.5t33 69t53 50.5t72 26v86h59v-85q35 -5 60.5 -19t43 -33.5t28 -41t15.5 -40.5h-83q-8 25 -23 42t-41 23v-321q30 7 46 28t24 47h83q-8 -24 -20 -48.5t-30.5 -44.5t-44 -34t-58.5 -18v-91h-59v93zM117 257
q0 -60 24.5 -103t68.5 -56v317q-41 -11 -67 -49.5t-26 -108.5z" />
    <glyph glyph-name="zero.pnum" horiz-adv-x="505" 
d="M42 345q0 99 18 166.5t47.5 109t66.5 59.5t75 18q42 0 80.5 -16t68 -56t47.5 -107.5t18 -169.5q0 -113 -20.5 -184.5t-51.5 -111.5t-68 -54.5t-70 -14.5q-39 0 -76.5 16t-67.5 57t-48.5 111t-18.5 177zM383 345q0 76 -8 129.5t-24.5 87.5t-41 49t-57.5 15
q-29 0 -52.5 -14.5t-41 -47t-27 -85.5t-9.5 -131q0 -80 9 -136t26 -90.5t41.5 -50t56.5 -15.5q27 0 50 14.5t40.5 48.5t27.5 89.5t10 136.5z" />
    <glyph glyph-name="one.pnum" horiz-adv-x="374" 
d="M158 608h-103v74h179v-682h-76v608z" />
    <glyph glyph-name="two.pnum" horiz-adv-x="465" 
d="M48 75l187 241q40 51 64 98.5t24 99.5q0 48 -24 80t-71 32q-41 0 -67.5 -30t-28.5 -85h-80q2 42 16.5 76.5t38 59t55.5 38t68 13.5q43 0 75.5 -14.5t54.5 -38.5t32.5 -56t10.5 -67q0 -36 -8.5 -68.5t-23 -63t-34.5 -59.5t-43 -59l-154 -198h275v-74h-367v75z" />
    <glyph glyph-name="three.pnum" horiz-adv-x="469" 
d="M55 534q1 33 13 62.5t33.5 52t52.5 36t71 13.5t71 -13t52 -36t32 -54t11 -68q0 -32 -9 -56.5t-23 -43t-31 -31t-34 -19.5l1 -2q23 -6 45 -20t39 -36.5t27.5 -54.5t10.5 -72q0 -42 -13 -79.5t-37.5 -66t-61 -45.5t-82.5 -17q-44 0 -77.5 14.5t-57 39t-36.5 57.5t-16 70h80
q4 -48 31.5 -78.5t77.5 -30.5q25 0 45.5 10t35.5 28t23 42.5t8 53.5q0 27 -7 52.5t-22 45t-39.5 31t-59.5 11.5h-29v75h23q48 0 78 29.5t30 88.5q0 20 -5 38.5t-15.5 33t-27 23t-38.5 8.5q-45 0 -67 -25t-24 -67h-79z" />
    <glyph glyph-name="four.pnum" horiz-adv-x="477" 
d="M372 158v-158h-75v158h-266l1 69l265 455h76v-450h74l-1 -74h-74zM109 232h189l-1 244v25v17.5t0.5 15t0.5 18.5h-7q-8 -17 -15 -32t-25 -45z" />
    <glyph glyph-name="five.pnum" horiz-adv-x="481" 
d="M151 424q13 4 33.5 6.5t37.5 2.5q99 0 155 -56t56 -159q0 -51 -13.5 -93.5t-38.5 -74t-62 -49t-83 -17.5q-91 0 -138 48t-53 133h80q1 -23 8 -43t20 -34.5t33.5 -23t49.5 -8.5q51 0 84 40t33 121q0 67 -33 105.5t-108 38.5q-31 0 -67.5 -5.5t-71.5 -19.5l28 346h292v-74
h-226z" />
    <glyph glyph-name="six.pnum" horiz-adv-x="491" 
d="M38 207q0 57 22.5 109.5t57.5 113.5l142 252h86l-148 -254q12 5 27 7t26 2q43 0 80 -15.5t64 -44.5t42.5 -70.5t15.5 -94.5q0 -51 -15.5 -93t-43 -72t-66 -46.5t-84.5 -16.5t-84 15t-65 43.5t-42 70t-15 94.5zM118 206q0 -76 35 -113t91 -37t92.5 39.5t36.5 115.5
q0 75 -32.5 114.5t-96.5 39.5q-57 0 -91.5 -40.5t-34.5 -118.5z" />
    <glyph glyph-name="seven.pnum" horiz-adv-x="412" 
d="M390 614l-245 -614h-89l255 608h-283v74h362v-68z" />
    <glyph glyph-name="eight.pnum" horiz-adv-x="473" 
d="M143 516q0 -54 27 -83.5t69 -29.5q44 0 67.5 31.5t23.5 81.5q0 54 -26 82t-68 28q-39 0 -66 -27.5t-27 -82.5zM122 195q0 -62 32 -100.5t82 -38.5q48 0 81.5 35t33.5 104q0 66 -33 101t-81 35q-26 0 -47 -11t-36 -29.5t-23.5 -43t-8.5 -52.5zM431 193q0 -43 -12.5 -81
t-37 -66.5t-61 -45t-84.5 -16.5t-84.5 16.5t-60.5 44.5t-36.5 65t-12.5 78q0 71 29 114t78 68v2q-40 23 -62 61t-22 92q0 37 12 69t34 55t54 36t71 13t71 -13t54.5 -36t34.5 -55t12 -69q0 -61 -25.5 -99t-59.5 -54v-2q51 -26 79.5 -70t28.5 -107z" />
    <glyph glyph-name="nine.pnum" horiz-adv-x="491" 
d="M453 475q0 -57 -22.5 -109.5t-57.5 -113.5l-142 -252h-86l148 254q-12 -5 -27 -7t-26 -2q-45 0 -82 16t-63.5 45.5t-41.5 71t-15 92.5t15.5 93t43 72t66 46.5t84.5 16.5t84 -15t65 -43.5t42 -70t15 -94.5zM373 476q0 76 -35 113t-91 37q-57 0 -93 -39.5t-36 -115.5
q0 -73 32.5 -113.5t96.5 -40.5q57 0 91.5 41t34.5 118z" />
    <glyph glyph-name="percent.aalt" horiz-adv-x="644" 
d="M522 562l-325 -562h-73l325 562h73zM32 421q0 43 11.5 72.5t30 48.5t41.5 27.5t47 8.5q21 0 44 -7.5t42 -25.5t31.5 -48t12.5 -74q0 -49 -13.5 -80.5t-33 -49.5t-42 -25t-40.5 -7q-22 0 -45.5 7.5t-42.5 26t-31 49.5t-12 77zM222 421q0 49 -15.5 71t-44.5 22
q-25 0 -42.5 -20.5t-17.5 -71.5q0 -54 16 -75.5t45 -21.5q23 0 41 21.5t18 74.5zM352 144q0 43 11.5 72.5t30 48.5t41.5 27.5t47 8.5q21 0 44 -7.5t42 -25.5t31.5 -48t12.5 -74q0 -49 -13.5 -80.5t-33 -49.5t-42 -25t-40.5 -7q-22 0 -45.5 7.5t-42.5 26t-31 49.5t-12 77z
M542 144q0 49 -15.5 71t-44.5 22q-25 0 -42.5 -20.5t-17.5 -71.5q0 -54 16 -75.5t45 -21.5q23 0 41 21.5t18 74.5z" />
    <glyph glyph-name="perthousand.aalt" horiz-adv-x="944" 
d="M522 566l-325 -566h-73l325 566h73zM32 421q0 43 11.5 72.5t30 48.5t41.5 27.5t47 8.5q21 0 44 -7.5t42 -25.5t31.5 -48t12.5 -74q0 -49 -13.5 -80.5t-33 -49.5t-42 -25t-40.5 -7q-22 0 -45.5 7.5t-42.5 26t-31 49.5t-12 77zM222 421q0 49 -15.5 71t-44.5 22
q-25 0 -42.5 -20.5t-17.5 -71.5q0 -54 16 -75.5t45 -21.5q23 0 41 21.5t18 74.5zM352 144q0 43 11.5 72.5t30 48.5t41.5 27.5t47 8.5q21 0 44 -7.5t42 -25.5t31.5 -48t12.5 -74q0 -49 -13.5 -80.5t-33 -49.5t-42 -25t-40.5 -7q-22 0 -45.5 7.5t-42.5 26t-31 49.5t-12 77z
M542 144q0 49 -15.5 71t-44.5 22q-25 0 -42.5 -20.5t-17.5 -71.5q0 -54 16 -75.5t45 -21.5q23 0 41 21.5t18 74.5zM652 144q0 43 11.5 72.5t30 48.5t41.5 27.5t47 8.5q21 0 44 -7.5t42 -25.5t31.5 -48t12.5 -74q0 -49 -13.5 -80.5t-33 -49.5t-42 -25t-40.5 -7
q-22 0 -45.5 7.5t-42.5 26t-31 49.5t-12 77zM842 144q0 49 -15.5 71t-44.5 22q-25 0 -42.5 -20.5t-17.5 -71.5q0 -54 16 -75.5t45 -21.5q23 0 41 21.5t18 74.5z" />
    <glyph glyph-name="zero.oldstyle" horiz-adv-x="483" 
d="M30 255q0 64 16 114.5t44.5 85t67.5 53t84 18.5q46 0 84.5 -18t66.5 -53t44 -85.5t16 -114.5q0 -63 -16 -113t-44 -85t-66.5 -54t-84.5 -19t-84.5 18.5t-67 53t-44.5 85t-16 114.5zM110 254q0 -48 10.5 -85t28.5 -62t42 -38t51 -13q60 0 95.5 51t35.5 147
q0 91 -34.5 145.5t-96.5 54.5q-60 0 -96 -51.5t-36 -148.5z" />
    <glyph glyph-name="one.oldstyle" horiz-adv-x="483" 
d="M212 438h-103v74h179v-512h-76v438z" />
    <glyph glyph-name="two.oldstyle" horiz-adv-x="483" 
d="M59 60l160 123q36 27 59.5 48.5t37.5 41t19.5 38.5t5.5 42q0 43 -23.5 72t-68.5 29q-43 0 -70.5 -26.5t-29.5 -77.5h-80q5 80 52 128t129 48q40 0 72 -13.5t54 -36t33.5 -52t11.5 -62.5q0 -31 -8 -59t-26 -55t-46 -54t-68 -57l-86 -63h253v-74h-381v60z" />
    </font>
</defs>
</svg>
